#N canvas 459 123 450 300 12;
#X obj 61 104 metro;
#X obj 61 30 tgl 15 0 empty empty empty 17 7 0 10 #fcfcfc #000000 #000000
0 1;
#X obj 90 130 + 1;
#X floatatom 61 152 5 0 0 0 - - - 0;
#X obj 61 175 mod 8;
#X floatatom 61 201 5 0 0 0 - - - 0;
#X obj 108 8 inlet;
#X obj 61 8 inlet;
#X obj 61 223 sel 0 1 2 3 4 5 6 7;
#X obj 17 286 outlet;
#X obj 60 285 outlet;
#X obj 103 283 outlet;
#X obj 199 283 outlet;
#X obj 245 286 outlet;
#X obj 304 286 outlet;
#X obj 357 284 outlet;
#X obj 153 282 outlet;
#X obj 108 81 * 60000;
#X floatatom 108 104 5 0 0 0 - - - 0;
#X floatatom 108 36 5 0 0 0 - - - 0;
#X obj 108 58 expr 1/$f1;
#X text 146 36 BPM;
#X msg 17 152 0;
#X obj 17 128 sel 7;
#X obj 61 129 f;
#X text 147 105 ms;
#X connect 0 0 24 0;
#X connect 1 0 0 0;
#X connect 2 0 24 1;
#X connect 3 0 4 0;
#X connect 3 0 23 0;
#X connect 4 0 5 0;
#X connect 5 0 8 0;
#X connect 6 0 19 0;
#X connect 7 0 1 0;
#X connect 8 0 9 0;
#X connect 8 1 10 0;
#X connect 8 2 11 0;
#X connect 8 3 16 0;
#X connect 8 4 12 0;
#X connect 8 5 13 0;
#X connect 8 6 14 0;
#X connect 8 7 15 0;
#X connect 17 0 18 0;
#X connect 18 0 0 1;
#X connect 19 0 20 0;
#X connect 20 0 17 0;
#X connect 22 0 24 1;
#X connect 23 0 22 0;
#X connect 24 0 2 0;
#X connect 24 0 3 0;
