#N canvas 92 184 553 421 12;
#X obj 113 146 textfile;
#X msg 216 144 rewind;
#X symbolatom 113 190 10 0 0 0 - - - 0;
#X symbolatom 144 211 10 0 0 0 - - - 0;
#X symbolatom 176 231 10 0 0 0 - - - 0;
#X symbolatom 208 251 10 0 0 0 - - - 0;
#X obj 186 145 t b;
#X obj 114 45 bng 15 250 50 0 empty empty empty 17 7 0 10 #fcfcfc #000000
#000000;
#X obj 181 11 loadbang;
#X obj 81 209 outlet;
#X obj 119 231 outlet;
#X obj 150 252 outlet;
#X obj 208 273 outlet;
#X obj 114 16 inlet;
#X obj 113 168 unpack s s s s s;
#X symbolatom 262 280 10 0 0 0 - - - 0;
#X obj 262 302 outlet;
#X obj 348 4 inlet;
#X msg 328 109 read arpeggio.txt;
#X msg 327 85 read chords2.txt;
#X obj 348 28 sel 0 1;
#X connect 0 0 14 0;
#X connect 0 1 6 0;
#X connect 1 0 0 0;
#X connect 2 0 9 0;
#X connect 3 0 10 0;
#X connect 4 0 11 0;
#X connect 5 0 12 0;
#X connect 6 0 1 0;
#X connect 7 0 0 0;
#X connect 8 0 19 0;
#X connect 13 0 7 0;
#X connect 14 0 2 0;
#X connect 14 1 3 0;
#X connect 14 2 4 0;
#X connect 14 3 5 0;
#X connect 14 4 15 0;
#X connect 15 0 16 0;
#X connect 17 0 20 0;
#X connect 18 0 0 0;
#X connect 19 0 0 0;
#X connect 20 0 19 0;
#X connect 20 1 18 0;
