#N canvas 512 250 450 382 12;
#X obj 255 355 udpsend;
#X obj 271 301 packOSC;
#X msg 271 277 /new_clock 1;
#X obj 373 301 packOSC;
#X msg 373 277 /new_clock2 1;
#X obj 426 42 r dur;
#X obj 331 97 expr $f2 / $f1;
#X floatatom 332 77 5 0 0 0 - - - 0;
#X floatatom 331 118 5 0 0 0 - - - 0;
#X obj 271 201 r tog;
#X obj 271 253 bng 15 250 50 0 \$0-clock1 empty empty 17 7 0 10 #fcfcfc
#000000 #000000;
#X obj 576 32 r dur;
#X obj 481 109 expr $f2 / $f1;
#X floatatom 481 87 5 0 0 0 - - - 0;
#X floatatom 481 131 5 0 0 0 - - - 0;
#X obj 375 195 r tog;
#X obj 375 251 bng 15 250 50 0 \$0-clock2 empty empty 17 7 0 10 #fcfcfc
#000000 #000000;
#X obj 332 42 r cluster1;
#X obj 481 32 r cluster2;
#X text 72 -39 OSC MESSAGES;
#X obj 314 178 f;
#X obj 288 157 r beat;
#X obj 441 191 f;
#X obj 413 165 r beat;
#X obj 271 227 metro 2000;
#X obj 375 224 metro 2000;
#X obj 212 7 inlet;
#X obj 107 136 bng 15 250 50 0 empty \$0-clock1 empty 17 7 0 10 #fcfcfc
#000000 #000000;
#X obj 174 136 bng 15 250 50 0 empty \$0-clock2 empty 17 7 0 10 #fcfcfc
#000000 #000000;
#X text 122 134 clock1;
#X text 189 134 clock2;
#X floatatom 426 69 5 0 0 0 - - - 0;
#X floatatom 327 207 5 0 0 0 - - - 0;
#X floatatom 576 70 5 0 0 0 - - - 0;
#X floatatom 467 212 5 0 0 0 - - - 0;
#X connect 1 0 0 0;
#X connect 2 0 1 0;
#X connect 3 0 0 0;
#X connect 4 0 3 0;
#X connect 5 0 31 0;
#X connect 6 0 8 0;
#X connect 7 0 6 0;
#X connect 8 0 20 1;
#X connect 9 0 24 0;
#X connect 10 0 2 0;
#X connect 11 0 33 0;
#X connect 12 0 14 0;
#X connect 13 0 12 0;
#X connect 14 0 22 1;
#X connect 15 0 25 0;
#X connect 16 0 4 0;
#X connect 17 0 7 0;
#X connect 18 0 13 0;
#X connect 20 0 32 0;
#X connect 21 0 20 0;
#X connect 22 0 34 0;
#X connect 23 0 22 0;
#X connect 24 0 10 0;
#X connect 25 0 16 0;
#X connect 26 0 0 0;
#X connect 31 0 6 1;
#X connect 32 0 24 1;
#X connect 33 0 12 1;
#X connect 34 0 25 1;
#X coords 0 -1 1 1 180 60 1 100 100;
