#N canvas 0 25 896 640 12;
#X obj 340 130 mtof;
#X floatatom 340 172 5 0 0 0 - - - 0;
#X obj 340 151 expr 1000/$f1;
#X text 427 151 periodo in millisecondi;
#X obj 340 192 t f f;
#X obj 367 214 sig~;
#X obj 367 256 z~;
#X obj 367 281 +~;
#X obj 367 302 *~ 0.5;
#X msg 720 205 0;
#X obj 581 159 noise~;
#X obj 580 210 *~;
#X msg 683 177 1;
#X obj 579 110 t b b;
#X obj 745 148 * 0.1;
#X obj 582 181 lop~ 12000;
#X obj 667 18 t b;
#X floatatom 668 66 5 0 0 0 - - - 0;
#X obj 720 176 del 4;
#X floatatom 474 89 5 0 0 0 - - - 0;
#X obj 367 324 *~ 0.9;
#X obj 474 47 random 100;
#X floatatom 474 130 5 0 0 0 - - - 0;
#X obj 474 68 / 999;
#X obj 457 174 min 0.999;
#X floatatom 457 195 5 0 0 0 - - - 0;
#X msg 340 93 54;
#X obj 261 32 inlet;
#X obj 368 411 outlet~;
#X obj 572 442 snapshot~;
#X obj 680 393 metro 10;
#X obj 688 311 tgl 15 0 empty empty empty 17 7 0 10 #fcfcfc #000000
#000000 0 1;
#X floatatom 572 463 5 0 0 0 - - - 0;
#X obj 572 483 s lop;
#X obj 571 362 phasor~ 0.1;
#X obj 571 384 +~ 0.2;
#X obj 572 421 *~ 5000;
#X obj 712 34 r lop;
#X obj 584 52 random 3;
#X obj 584 73 + 2;
#X obj 474 109 + 1;
#X obj 367 234 delread4~ \$0-buff;
#X obj 578 237 delwrite~ \$0-buff 1000;
#X obj 393 255 z~ 1;
#X obj 367 344 *~ 0.1;
#X connect 0 0 2 0;
#X connect 0 0 13 0;
#X connect 0 0 16 0;
#X connect 1 0 4 0;
#X connect 2 0 1 0;
#X connect 4 0 18 1;
#X connect 4 1 5 0;
#X connect 5 0 41 0;
#X connect 6 0 7 0;
#X connect 7 0 8 0;
#X connect 8 0 20 0;
#X connect 9 0 11 1;
#X connect 10 0 15 0;
#X connect 11 0 42 0;
#X connect 12 0 11 1;
#X connect 13 0 12 0;
#X connect 13 1 18 0;
#X connect 14 0 18 1;
#X connect 15 0 11 0;
#X connect 16 0 21 0;
#X connect 16 0 38 0;
#X connect 17 0 15 1;
#X connect 18 0 9 0;
#X connect 19 0 40 0;
#X connect 20 0 42 0;
#X connect 20 0 44 0;
#X connect 21 0 23 0;
#X connect 22 0 24 0;
#X connect 23 0 19 0;
#X connect 24 0 25 0;
#X connect 25 0 20 1;
#X connect 26 0 0 0;
#X connect 27 0 0 0;
#X connect 27 0 13 0;
#X connect 27 0 16 0;
#X connect 29 0 32 0;
#X connect 30 0 29 0;
#X connect 31 0 30 0;
#X connect 32 0 33 0;
#X connect 34 0 35 0;
#X connect 35 0 36 0;
#X connect 36 0 29 0;
#X connect 37 0 17 0;
#X connect 38 0 39 0;
#X connect 40 0 22 0;
#X connect 41 0 6 0;
#X connect 41 0 43 0;
#X connect 43 0 7 1;
#X connect 44 0 28 0;
