#N canvas 0 25 1440 776 12;
#X msg 233 74 connect 127.0.0.1 3000;
#X text 228 54 Once Processing is running click on this message.;
#X obj 1566 600 t f;
#X floatatom 1568 631 5 0 0 0 - - - 0;
#X floatatom 1457 641 5 0 0 0 - - - 0;
#X obj 1431 739 osc~;
#X obj 1431 763 *~ 0.1;
#X obj 1615 741 osc~;
#X obj 1615 765 *~ 0.1;
#X msg 1616 707 500;
#X msg 1649 707 600;
#X msg 1683 708 800;
#X msg 1759 708 1100;
#X msg 1794 708 1200;
#X msg 1718 708 400;
#X floatatom 1399 670 5 0 0 0 - - - 0;
#X floatatom 1378 748 5 0 0 0 - - - 0;
#X obj 1438 707 *;
#X obj 1436 613 t b f;
#X obj 1456 669 % 7;
#X obj 1568 662 % 7;
#X floatatom 1470 699 5 0 0 0 - - - 0;
#X floatatom 1571 733 5 0 0 0 - - - 0;
#X obj 1615 682 route 0 1 2 3 4 5;
#X obj 1436 571 r boid1;
#X obj 1568 567 r boid2;
#X floatatom 1487 740 5 0 0 0 - - - 0;
#X floatatom 1681 751 5 0 0 0 - - - 0;
#X text 953 660 POLYPHONY;
#X obj 953 727 random 25;
#X obj 953 750 + 48;
#X obj 953 795 mtof;
#X obj 953 818 osc~;
#X obj 953 845 *~;
#N canvas 0 25 1440 776 quant 0;
#X text 325 200 if present \, it goes out the first outlets if not
\, second outlet;
#X floatatom 279 200 5 0 0 0 - - - 0;
#X msg 135 240 0;
#X floatatom 99 313 5 0 0 0 - - - 0;
#X obj 142 172 % 12;
#X floatatom 94 134 5 0 0 0 - - - 0;
#X obj 140 198 select 0 2 4 7 9;
#X obj 285 250 select 0 2 4 7 9;
#X msg 284 285 -1;
#X obj 281 226 - 1;
#X obj 97 278 +;
#X msg 367 290 1;
#X obj 101 83 inlet;
#X obj 111 366 outlet;
#X connect 1 0 9 0;
#X connect 2 0 10 1;
#X connect 3 0 13 0;
#X connect 4 0 6 0;
#X connect 5 0 4 0;
#X connect 5 0 10 0;
#X connect 6 0 2 0;
#X connect 6 1 2 0;
#X connect 6 2 2 0;
#X connect 6 3 2 0;
#X connect 6 4 2 0;
#X connect 6 5 1 0;
#X connect 7 0 8 0;
#X connect 7 1 8 0;
#X connect 7 2 8 0;
#X connect 7 3 8 0;
#X connect 7 4 8 0;
#X connect 7 5 11 0;
#X connect 8 0 10 1;
#X connect 9 0 7 0;
#X connect 10 0 3 0;
#X connect 11 0 10 1;
#X connect 12 0 5 0;
#X restore 953 773 pd quant;
#X obj 1206 726 random 25;
#X obj 1206 805 mtof;
#X obj 1206 828 osc~;
#X obj 1206 855 *~;
#N canvas -204 68 1920 976 quant 0;
#X text 325 200 if present \, it goes out the first outlets if not
\, second outlet;
#X floatatom 279 200 5 0 0 0 - - - 0;
#X msg 135 240 0;
#X floatatom 99 313 5 0 0 0 - - - 0;
#X obj 142 172 % 12;
#X floatatom 94 134 5 0 0 0 - - - 0;
#X obj 140 198 select 0 2 4 7 9;
#X obj 285 250 select 0 2 4 7 9;
#X msg 284 285 -1;
#X obj 281 226 - 1;
#X obj 97 278 +;
#X msg 367 290 1;
#X obj 101 83 inlet;
#X obj 111 366 outlet;
#X connect 1 0 9 0;
#X connect 2 0 10 1;
#X connect 3 0 13 0;
#X connect 4 0 6 0;
#X connect 5 0 4 0;
#X connect 5 0 10 0;
#X connect 6 0 2 0;
#X connect 6 1 2 0;
#X connect 6 2 2 0;
#X connect 6 3 2 0;
#X connect 6 4 2 0;
#X connect 6 5 1 0;
#X connect 7 0 8 0;
#X connect 7 1 8 0;
#X connect 7 2 8 0;
#X connect 7 3 8 0;
#X connect 7 4 8 0;
#X connect 7 5 11 0;
#X connect 8 0 10 1;
#X connect 9 0 7 0;
#X connect 10 0 3 0;
#X connect 11 0 10 1;
#X connect 12 0 5 0;
#X restore 1206 769 pd quant;
#X obj 953 686 r boid1;
#X obj 1206 686 r boid2;
#X obj 953 709 bng 15 250 50 0 empty empty empty 17 7 0 10 #fcfcfc
#000000 #000000;
#X obj 1206 708 bng 15 250 50 0 empty empty empty 17 7 0 10 #fcfcfc
#000000 #000000;
#X obj 1206 747 + 60;
#X obj 973 110 osc~ 200;
#X obj 983 173 *~;
#X obj 1035 142 vline~;
#X obj 1260 172 *~;
#X obj 1312 141 vline~;
#X obj 1250 109 osc~ 500;
#X obj 1043 30 r boid1;
#X obj 1315 38 r boid2;
#X obj 1039 58 bng 15 250 50 0 empty empty empty 17 7 0 10 #fcfcfc
#000000 #000000;
#X obj 1314 62 bng 15 250 50 0 empty empty empty 17 7 0 10 #fcfcfc
#000000 #000000;
#X text 1037 12 POLYRHYTHMS;
#X obj 1003 848 line~;
#X obj 1006 805 hsl 128 15 0 1 0 0 empty empty empty -2 -8 0 10 #fcfcfc
#000000 #000000 0 1;
#X obj 1003 825 pack f 50;
#X obj 1246 842 line~;
#X obj 1249 799 hsl 128 15 0 1 0 0 empty empty empty -2 -8 0 10 #fcfcfc
#000000 #000000 0 1;
#X obj 1246 819 pack f 50;
#X obj 480 114 Processing2Pure;
#X obj 514 165 s cluster1;
#X obj 480 139 s boid1;
#X obj 548 190 s boid2;
#X obj 582 215 s cluster2;
#X text 559 85 change the port;
#X msg 480 86 port 57120;
#X obj 233 98 clock2Processing, f 33;
#X obj 100 295 chords, f 14;
#X msg 195 266 0;
#X msg 230 266 1;
#X obj 100 276 bng 15 250 50 0 empty empty empty 17 7 0 10 #fcfcfc
#000000 #000000;
#X obj 101 33 tgl 35 0 empty empty ON/OFF 40 7 0 10 #c7c6ff #e3c6ff
#e3c6ff 0 1;
#X floatatom 181 52 5 0 0 0 - - - 0;
#X obj 101 97 bng 15 250 50 0 empty empty empty 17 7 0 10 #fcfcfc #000000
#000000;
#X obj 181 74 s dur;
#X obj 47 74 s tog;
#X obj 181 8 loadbang;
#X text 13 41 GLOBAL METRO;
#X obj 101 117 s beat;
#X obj 101 74 metro 2000;
#X msg 181 30 2000;
#X obj 100 428 note2midi;
#X listbox 100 319 4 0 0 0 - - - 0;
#X listbox 123 340 4 0 0 0 - - - 0;
#X listbox 148 364 4 0 0 0 - - - 0;
#X listbox 171 385 4 0 0 0 - - - 0;
#X floatatom 100 452 5 0 0 0 - - - 0;
#X obj 124 478 note2midi;
#X floatatom 124 502 5 0 0 0 - - - 0;
#X obj 153 526 note2midi;
#X floatatom 153 550 5 0 0 0 - - - 0;
#X obj 177 576 note2midi;
#X floatatom 177 600 5 0 0 0 - - - 0;
#X obj 317 304 chords, f 14;
#X msg 412 275 0;
#X msg 447 275 1;
#X obj 317 285 bng 15 250 50 0 empty empty empty 17 7 0 10 #fcfcfc
#000000 #000000;
#X obj 317 437 note2midi;
#X listbox 317 328 4 0 0 0 - - - 0;
#X listbox 340 349 4 0 0 0 - - - 0;
#X listbox 365 373 4 0 0 0 - - - 0;
#X listbox 388 394 4 0 0 0 - - - 0;
#X floatatom 317 461 5 0 0 0 - - - 0;
#X obj 341 487 note2midi;
#X floatatom 341 511 5 0 0 0 - - - 0;
#X obj 370 535 note2midi;
#X floatatom 370 559 5 0 0 0 - - - 0;
#X obj 394 585 note2midi;
#X floatatom 394 609 5 0 0 0 - - - 0;
#X obj 100 253 r beat;
#X obj 317 260 r beat;
#X obj 83 659 f;
#X obj 111 659 f;
#X obj 139 659 f;
#X obj 167 659 f;
#X obj 47 605 r boid1;
#X obj 308 663 f;
#X obj 336 663 f;
#X obj 364 663 f;
#X obj 392 663 f;
#X obj 307 632 sel 1 2 3 4 5 6 7 8;
#X obj 268 609 r boid2;
#X msg 119 825 1 \$1;
#X msg 82 825 0 \$1;
#X msg 156 825 2 \$1;
#X floatatom 81 804 5 0 0 0 - - - 0;
#X floatatom 118 804 5 0 0 0 - - - 0;
#X floatatom 155 804 5 0 0 0 - - - 0;
#X msg 193 825 3 \$1;
#X floatatom 192 804 5 0 0 0 - - - 0;
#X obj 81 857 clone karplus~ 4;
#X msg 346 833 1 \$1;
#X msg 309 833 0 \$1;
#X msg 383 833 2 \$1;
#X floatatom 308 812 5 0 0 0 - - - 0;
#X floatatom 345 812 5 0 0 0 - - - 0;
#X floatatom 382 812 5 0 0 0 - - - 0;
#X msg 420 833 3 \$1;
#X floatatom 419 812 5 0 0 0 - - - 0;
#X obj 308 865 clone karplus~ 4;
#X floatatom 31 657 5 0 0 0 - - - 0;
#X floatatom 250 653 5 0 0 0 - - - 0;
#X obj 22 836 s f;
#X obj 904 39 r f;
#X obj 904 63 mtof;
#X obj 267 837 s f2;
#X obj 1226 53 r f2;
#X obj 1226 77 mtof;
#X msg 1057 90 0.3 5 \, 0 100 5;
#X msg 1334 89 0.3 5 \, 0 100 5;
#X obj 509 761 paf~;
#X obj 561 688 r centerfreq1;
#X obj 605 709 r bandwidth1;
#X obj 652 730 r ampiezza1;
#X floatatom 715 692 5 0 0 0 - - - 0;
#X obj 494 722 mtof;
#X obj 82 628 sel 1 2 3 4 5 6 7 8;
#X obj 81 882 *~ 0.3;
#X obj 308 890 *~ 0.3;
#X obj 697 263 8stepsequencer, f 24;
#X obj 697 245 tgl 15 0 empty empty empty 17 7 0 10 #fcfcfc #000000
#000000 0 1;
#X floatatom 861 243 5 0 0 0 - - - 0;
#X obj 697 285 bng 15 250 50 0 empty empty empty 17 7 0 10 #fcfcfc
#000000 #000000;
#X obj 767 285 bng 15 250 50 0 empty empty empty 17 7 0 10 #fcfcfc
#000000 #000000;
#X obj 791 284 bng 15 250 50 0 empty empty empty 17 7 0 10 #fcfcfc
#000000 #000000;
#X obj 794 605 dac~;
#X obj 836 286 bng 15 250 50 0 empty empty empty 17 7 0 10 #fcfcfc
#000000 #000000;
#X obj 866 286 bng 15 250 50 0 empty empty empty 17 7 0 10 #fcfcfc
#000000 #000000;
#X obj 733 286 bng 15 250 50 0 empty empty empty 17 7 0 10 #fcfcfc
#000000 #000000;
#X obj 703 325 sample;
#X obj 754 325 sample;
#X obj 803 322 sample;
#X obj 855 321 sample;
#X connect 0 0 69 0;
#X connect 2 0 3 0;
#X connect 3 0 20 0;
#X connect 4 0 19 0;
#X connect 5 0 6 0;
#X connect 7 0 8 0;
#X connect 9 0 7 0;
#X connect 10 0 7 0;
#X connect 11 0 7 0;
#X connect 12 0 7 0;
#X connect 13 0 7 0;
#X connect 14 0 7 0;
#X connect 15 0 17 0;
#X connect 17 0 5 0;
#X connect 17 0 16 0;
#X connect 18 0 17 0;
#X connect 18 1 4 0;
#X connect 19 0 17 1;
#X connect 19 0 21 0;
#X connect 20 0 22 0;
#X connect 20 0 23 0;
#X connect 23 0 9 0;
#X connect 23 1 10 0;
#X connect 23 2 11 0;
#X connect 23 3 14 0;
#X connect 23 4 12 0;
#X connect 23 4 11 0;
#X connect 23 5 13 0;
#X connect 24 0 18 0;
#X connect 25 0 2 0;
#X connect 26 0 6 1;
#X connect 27 0 8 1;
#X connect 29 0 30 0;
#X connect 30 0 34 0;
#X connect 31 0 32 0;
#X connect 32 0 33 0;
#X connect 34 0 31 0;
#X connect 35 0 44 0;
#X connect 36 0 37 0;
#X connect 37 0 38 0;
#X connect 39 0 36 0;
#X connect 40 0 42 0;
#X connect 41 0 43 0;
#X connect 42 0 29 0;
#X connect 43 0 35 0;
#X connect 44 0 39 0;
#X connect 45 0 46 0;
#X connect 47 0 46 1;
#X connect 49 0 48 1;
#X connect 50 0 48 0;
#X connect 51 0 53 0;
#X connect 52 0 54 0;
#X connect 53 0 151 0;
#X connect 54 0 152 0;
#X connect 56 0 33 1;
#X connect 57 0 58 0;
#X connect 58 0 56 0;
#X connect 59 0 38 1;
#X connect 60 0 61 0;
#X connect 61 0 59 0;
#X connect 62 0 64 0;
#X connect 62 1 63 0;
#X connect 62 2 65 0;
#X connect 62 3 66 0;
#X connect 68 0 62 0;
#X connect 70 0 85 0;
#X connect 70 1 86 0;
#X connect 70 2 87 0;
#X connect 70 3 88 0;
#X connect 71 0 70 1;
#X connect 72 0 70 1;
#X connect 73 0 70 0;
#X connect 74 0 78 0;
#X connect 74 0 82 0;
#X connect 75 0 77 0;
#X connect 75 0 82 1;
#X connect 76 0 81 0;
#X connect 79 0 83 0;
#X connect 82 0 76 0;
#X connect 83 0 75 0;
#X connect 84 0 89 0;
#X connect 85 0 84 0;
#X connect 86 0 90 0;
#X connect 87 0 92 0;
#X connect 88 0 94 0;
#X connect 89 0 114 1;
#X connect 90 0 91 0;
#X connect 91 0 115 1;
#X connect 92 0 93 0;
#X connect 93 0 116 1;
#X connect 94 0 95 0;
#X connect 95 0 117 1;
#X connect 96 0 101 0;
#X connect 96 1 102 0;
#X connect 96 2 103 0;
#X connect 96 3 104 0;
#X connect 97 0 96 1;
#X connect 98 0 96 1;
#X connect 99 0 96 0;
#X connect 100 0 105 0;
#X connect 101 0 100 0;
#X connect 102 0 106 0;
#X connect 103 0 108 0;
#X connect 104 0 110 0;
#X connect 105 0 119 1;
#X connect 106 0 107 0;
#X connect 107 0 120 1;
#X connect 108 0 109 0;
#X connect 109 0 121 1;
#X connect 110 0 111 0;
#X connect 111 0 122 1;
#X connect 112 0 73 0;
#X connect 113 0 99 0;
#X connect 114 0 128 0;
#X connect 114 0 158 0;
#X connect 115 0 129 0;
#X connect 115 0 158 0;
#X connect 116 0 130 0;
#X connect 117 0 132 0;
#X connect 118 0 143 0;
#X connect 118 0 159 0;
#X connect 119 0 137 0;
#X connect 120 0 138 0;
#X connect 121 0 139 0;
#X connect 121 0 158 0;
#X connect 122 0 141 0;
#X connect 122 0 158 0;
#X connect 123 0 119 0;
#X connect 123 1 120 0;
#X connect 123 2 121 0;
#X connect 123 3 122 0;
#X connect 124 0 123 0;
#X connect 124 0 144 0;
#X connect 125 0 133 0;
#X connect 126 0 133 0;
#X connect 127 0 133 0;
#X connect 128 0 126 0;
#X connect 128 0 145 0;
#X connect 129 0 125 0;
#X connect 130 0 127 0;
#X connect 131 0 133 0;
#X connect 132 0 131 0;
#X connect 133 0 160 0;
#X connect 134 0 142 0;
#X connect 135 0 142 0;
#X connect 136 0 142 0;
#X connect 137 0 135 0;
#X connect 138 0 134 0;
#X connect 139 0 136 0;
#X connect 139 0 148 0;
#X connect 140 0 142 0;
#X connect 141 0 140 0;
#X connect 142 0 161 0;
#X connect 146 0 147 0;
#X connect 147 0 45 0;
#X connect 149 0 150 0;
#X connect 150 0 50 0;
#X connect 151 0 47 0;
#X connect 152 0 49 0;
#X connect 154 0 153 1;
#X connect 155 0 153 2;
#X connect 156 0 153 3;
#X connect 157 0 153 3;
#X connect 158 0 153 0;
#X connect 159 0 114 0;
#X connect 159 1 115 0;
#X connect 159 2 116 0;
#X connect 159 3 117 0;
#X connect 162 0 165 0;
#X connect 162 2 171 0;
#X connect 162 3 166 0;
#X connect 162 4 167 0;
#X connect 162 6 169 0;
#X connect 162 7 170 0;
#X connect 163 0 162 0;
#X connect 164 0 162 1;
#X connect 165 0 172 0;
#X connect 166 0 174 0;
#X connect 167 0 175 0;
#X connect 171 0 173 0;
#X connect 172 0 168 0;
#X connect 173 0 168 1;
#X connect 174 0 168 0;
