#N canvas 781 84 450 300 12;
#X obj 24 24 udpreceive 57120;
#X obj 24 78 unpackOSC /probability;
#X obj 24 105 routeOSC /probability;
#X obj 202 75 unpackOSC /probability2;
#X obj 202 102 routeOSC /probability2;
#X obj 21 157 unpack f f;
#X obj 216 148 unpack f f;
#X obj 21 181 outlet;
#X obj 90 181 outlet;
#X obj 216 172 outlet;
#X obj 282 172 outlet;
#X obj 25 2 inlet;
#X connect 0 0 1 0;
#X connect 0 0 3 0;
#X connect 1 0 2 0;
#X connect 2 0 5 0;
#X connect 3 0 4 0;
#X connect 4 0 6 0;
#X connect 5 0 7 0;
#X connect 5 1 8 0;
#X connect 6 0 9 0;
#X connect 6 1 10 0;
#X connect 11 0 0 0;
