#N canvas 235 25 1081 775 12;
#X obj 178 697 udpsend;
#X obj 194 643 packOSC;
#X obj 419 643 packOSC;
#X obj 421 217 r dur;
#X obj 325 307 expr $f2 / $f1;
#X floatatom 326 287 5 0 0 0 - - - 0;
#X floatatom 325 328 5 0 0 0 - - - 0;
#X obj 197 264 r tog;
#X obj 194 595 bng 15 250 50 0 \$0-clock1 empty empty 17 7 0 10 #fcfcfc
#000000 #000000;
#X obj 618 233 r dur;
#X obj 523 310 expr $f2 / $f1;
#X floatatom 523 288 5 0 0 0 - - - 0;
#X floatatom 523 332 5 0 0 0 - - - 0;
#X obj 419 347 r tog;
#X obj 421 593 bng 15 250 50 0 \$0-clock2 empty empty 17 7 0 10 #fcfcfc
#000000 #000000;
#X text 72 -39 OSC MESSAGES;
#X obj 307 388 f;
#X obj 307 364 r beat;
#X obj 194 569 metro 2000;
#X obj 421 566 metro 2000;
#X obj 59 5 inlet;
#X obj 107 119 bng 15 250 50 0 empty \$0-clock1 empty 17 7 0 10 #fcfcfc
#000000 #000000;
#X obj 174 119 bng 15 250 50 0 empty \$0-clock2 empty 17 7 0 10 #fcfcfc
#000000 #000000;
#X text 122 117 clock1;
#X text 189 117 clock2;
#X floatatom 421 285 5 0 0 0 - - - 0;
#X floatatom 307 412 5 0 0 0 - - - 0;
#X floatatom 618 271 5 0 0 0 - - - 0;
#X obj 326 238 r length0;
#X obj 523 233 r length1;
#X msg 194 619 /new_clock0 1;
#X msg 419 619 /new_clock1 1;
#X obj 605 644 packOSC;
#X obj 774 249 r dur;
#X obj 679 304 expr $f2 / $f1;
#X floatatom 680 284 5 0 0 0 - - - 0;
#X floatatom 679 325 5 0 0 0 - - - 0;
#X obj 602 348 r tog;
#X obj 662 385 f;
#X obj 662 362 r beat;
#X obj 605 570 metro 2000;
#X floatatom 774 276 5 0 0 0 - - - 0;
#X floatatom 661 550 5 0 0 0 - - - 0;
#X obj 680 234 r length2;
#X msg 605 620 /new_clock2 1;
#X obj 605 594 bng 15 250 50 0 \$0-clock3 empty empty 17 7 0 10 #fcfcfc
#000000 #000000;
#X obj 107 141 bng 15 250 50 0 empty \$0-clock3 empty 17 7 0 10 #fcfcfc
#000000 #000000;
#X obj 174 141 bng 15 250 50 0 empty \$0-clock4 empty 17 7 0 10 #fcfcfc
#000000 #000000;
#X text 122 139 clock3;
#X text 189 139 clock4;
#X obj 326 262 max 1;
#X obj 523 257 max 1;
#X obj 680 258 max 1;
#X msg 592 73 1;
#X obj 596 21 loadbang;
#X obj 596 46 t b b;
#X msg 628 73 4000;
#X obj 285 527 +;
#X floatatom 285 551 5 0 0 0 - - - 0;
#X obj 286 428 tgl 15 0 empty empty empty 17 7 0 10 #fcfcfc #000000
#000000 0 1;
#X obj 285 478 random 800;
#X obj 285 502 - 400;
#X obj 505 382 f;
#X obj 505 360 r beat;
#X floatatom 505 405 5 0 0 0 - - - 0;
#X obj 486 520 +;
#X floatatom 486 544 5 0 0 0 - - - 0;
#X obj 487 445 metro 100;
#X obj 487 421 tgl 15 0 empty empty empty 17 7 0 10 #fcfcfc #000000
#000000 0 1;
#X obj 486 471 random 800;
#X obj 486 495 - 400;
#X floatatom 670 413 5 0 0 0 - - - 0;
#X obj 651 528 +;
#X obj 652 453 metro 100;
#X obj 652 429 tgl 15 0 empty empty empty 17 7 0 10 #fcfcfc #000000
#000000 0 1;
#X obj 651 479 random 800;
#X obj 651 503 - 400;
#X obj 779 648 packOSC;
#X obj 948 253 r dur;
#X obj 853 308 expr $f2 / $f1;
#X floatatom 854 288 5 0 0 0 - - - 0;
#X floatatom 853 329 5 0 0 0 - - - 0;
#X obj 776 352 r tog;
#X obj 836 389 f;
#X obj 836 366 r beat;
#X obj 779 574 metro 2000;
#X floatatom 948 280 5 0 0 0 - - - 0;
#X floatatom 835 554 5 0 0 0 - - - 0;
#X obj 779 598 bng 15 250 50 0 \$0-clock3 empty empty 17 7 0 10 #fcfcfc
#000000 #000000;
#X obj 854 262 max 1;
#X floatatom 844 417 5 0 0 0 - - - 0;
#X obj 825 532 +;
#X obj 826 457 metro 100;
#X obj 826 433 tgl 15 0 empty empty empty 17 7 0 10 #fcfcfc #000000
#000000 0 1;
#X obj 825 483 random 800;
#X obj 825 507 - 400;
#X obj 854 238 r length3;
#X msg 779 624 /new_clock3 1;
#X floatatom 374 420 5 0 0 0 - - - 0;
#X obj 372 462 * 0.5;
#X floatatom 372 486 5 0 0 0 - - - 0;
#X obj 374 396 / 2;
#X floatatom 573 414 5 0 0 0 - - - 0;
#X obj 571 456 * 0.5;
#X floatatom 571 480 5 0 0 0 - - - 0;
#X obj 573 390 / 2;
#X floatatom 738 418 5 0 0 0 - - - 0;
#X obj 736 460 * 0.5;
#X floatatom 736 484 5 0 0 0 - - - 0;
#X obj 738 394 / 2;
#X obj 286 452 metro 100;
#X floatatom 914 419 5 0 0 0 - - - 0;
#X obj 912 461 * 0.5;
#X floatatom 912 485 5 0 0 0 - - - 0;
#X obj 914 395 / 2;
#X connect 1 0 0 0;
#X connect 2 0 0 0;
#X connect 3 0 25 0;
#X connect 4 0 6 0;
#X connect 5 0 4 0;
#X connect 6 0 16 1;
#X connect 6 0 101 0;
#X connect 7 0 18 0;
#X connect 8 0 30 0;
#X connect 9 0 27 0;
#X connect 10 0 12 0;
#X connect 11 0 10 0;
#X connect 12 0 62 1;
#X connect 12 0 105 0;
#X connect 13 0 19 0;
#X connect 14 0 31 0;
#X connect 16 0 26 0;
#X connect 17 0 16 0;
#X connect 18 0 8 0;
#X connect 19 0 14 0;
#X connect 20 0 0 0;
#X connect 25 0 4 1;
#X connect 26 0 57 1;
#X connect 27 0 10 1;
#X connect 28 0 50 0;
#X connect 29 0 51 0;
#X connect 30 0 1 0;
#X connect 31 0 2 0;
#X connect 32 0 0 0;
#X connect 33 0 41 0;
#X connect 34 0 36 0;
#X connect 35 0 34 0;
#X connect 36 0 38 1;
#X connect 36 0 109 0;
#X connect 37 0 40 0;
#X connect 38 0 71 0;
#X connect 39 0 38 0;
#X connect 40 0 45 0;
#X connect 41 0 34 1;
#X connect 42 0 40 1;
#X connect 43 0 52 0;
#X connect 44 0 32 0;
#X connect 45 0 44 0;
#X connect 50 0 5 0;
#X connect 51 0 11 0;
#X connect 52 0 35 0;
#X connect 53 0 52 0;
#X connect 53 0 50 0;
#X connect 53 0 51 0;
#X connect 54 0 55 0;
#X connect 54 0 59 0;
#X connect 54 0 68 0;
#X connect 54 0 74 0;
#X connect 54 0 93 0;
#X connect 55 0 53 0;
#X connect 55 1 56 0;
#X connect 56 0 41 0;
#X connect 56 0 27 0;
#X connect 56 0 25 0;
#X connect 57 0 58 0;
#X connect 58 0 18 1;
#X connect 59 0 110 0;
#X connect 60 0 61 0;
#X connect 61 0 57 0;
#X connect 62 0 64 0;
#X connect 63 0 62 0;
#X connect 64 0 65 1;
#X connect 65 0 66 0;
#X connect 66 0 19 1;
#X connect 67 0 69 0;
#X connect 68 0 67 0;
#X connect 69 0 70 0;
#X connect 70 0 65 0;
#X connect 71 0 72 1;
#X connect 72 0 42 0;
#X connect 73 0 75 0;
#X connect 74 0 73 0;
#X connect 75 0 76 0;
#X connect 76 0 72 0;
#X connect 77 0 0 0;
#X connect 78 0 86 0;
#X connect 79 0 81 0;
#X connect 80 0 79 0;
#X connect 81 0 83 1;
#X connect 81 0 114 0;
#X connect 82 0 85 0;
#X connect 83 0 90 0;
#X connect 84 0 83 0;
#X connect 85 0 88 0;
#X connect 86 0 79 1;
#X connect 87 0 85 1;
#X connect 88 0 97 0;
#X connect 89 0 80 0;
#X connect 90 0 91 1;
#X connect 91 0 87 0;
#X connect 92 0 94 0;
#X connect 93 0 92 0;
#X connect 94 0 95 0;
#X connect 95 0 91 0;
#X connect 96 0 89 0;
#X connect 97 0 77 0;
#X connect 98 0 60 1;
#X connect 99 0 100 0;
#X connect 100 0 61 1;
#X connect 101 0 98 0;
#X connect 101 0 99 0;
#X connect 102 0 69 1;
#X connect 103 0 104 0;
#X connect 104 0 70 1;
#X connect 105 0 102 0;
#X connect 105 0 103 0;
#X connect 106 0 75 1;
#X connect 107 0 108 0;
#X connect 108 0 76 1;
#X connect 109 0 106 0;
#X connect 109 0 107 0;
#X connect 110 0 60 0;
#X connect 111 0 94 1;
#X connect 112 0 113 0;
#X connect 113 0 95 1;
#X connect 114 0 111 0;
#X connect 114 0 112 0;
#X coords 0 -1 1 1 180 60 1 100 100;
