#N canvas 160 160 450 300 12;
#X obj 50 213 osc~;
#X obj 50 186 vline~;
#X obj 50 60 bng 15 250 50 0 empty empty empty 17 7 0 10 #fcfcfc #000000
#000000;
#X obj 50 275 *~;
#X obj 119 213 vline~;
#X text 54 11 kick;
#X obj 50 30 inlet;
#X obj 119 52 * 10;
#X obj 119 79 *;
#X obj 119 102 / 100;
#X obj 119 126 max 0.1;
#X obj 190 52 loadbang;
#X obj 190 101 f \$1;
#X obj 190 76 t b b;
#X obj 190 126 sel 0;
#X msg 237 121 1;
#X floatatom 222 153 5 0 0 0 - - - 0;
#X obj 75 99 f;
#X msg 50 156 150 1 \, 50 70 5;
#X obj 118 240 *~;
#X msg 119 187 \$1 1 \, 0 300 1;
#X obj 47 320 outlet~;
#X obj 95 29 inlet;
#X connect 0 0 3 0;
#X connect 1 0 0 0;
#X connect 2 0 18 0;
#X connect 2 0 17 0;
#X connect 3 0 21 0;
#X connect 4 0 19 1;
#X connect 4 0 19 0;
#X connect 6 0 2 0;
#X connect 7 0 8 1;
#X connect 7 0 8 0;
#X connect 8 0 9 0;
#X connect 9 0 10 0;
#X connect 10 0 20 0;
#X connect 11 0 13 0;
#X connect 12 0 14 0;
#X connect 13 0 12 0;
#X connect 13 1 15 0;
#X connect 14 1 16 0;
#X connect 15 0 16 0;
#X connect 16 0 17 1;
#X connect 17 0 7 0;
#X connect 18 0 1 0;
#X connect 19 0 3 1;
#X connect 20 0 4 0;
#X connect 22 0 17 1;
