#N canvas 0 25 1920 1029 12;
#X msg 233 74 connect 127.0.0.1 3000;
#X text 228 54 Once Processing is running click on this message.;
#X obj 480 114 Processing2Pure;
#X text 559 85 change the port;
#X msg 480 86 port 57120;
#X obj 233 98 clock2Processing, f 33;
#X obj 101 33 tgl 35 0 empty empty ON/OFF 40 7 0 10 #c7c6ff #e3c6ff
#e3c6ff 0 1;
#X floatatom 181 52 5 0 0 0 - - - 0;
#X obj 101 97 bng 15 250 50 0 empty empty empty 17 7 0 10 #fcfcfc #000000
#000000;
#X obj 181 80 s dur;
#X obj 47 74 s tog;
#X obj 181 8 loadbang;
#X text 13 41 GLOBAL METRO;
#X obj 101 117 s beat;
#X obj 101 74 metro 2000;
#X msg 181 30 4000;
#X floatatom 294 381 5 0 0 0 - - - 0;
#X obj 332 28 loadbang;
#X msg 684 98 \; pd dsp \$1;
#X obj 684 80 tgl 15 0 empty empty empty 17 7 0 10 #fcfcfc #000000
#000000 0 1;
#X obj 170 231 chords, f 15;
#X obj 150 369 f;
#X obj 170 209 bng 15 250 50 0 empty empty empty 17 7 0 10 #fcfcfc
#000000 #000000;
#X floatatom 169 303 5 0 0 0 - - - 0;
#X obj 169 257 note2midi;
#X obj 169 279 mtof;
#X obj 170 185 r beat;
#X obj 100 173 bng 15 250 50 0 empty empty empty 17 7 0 10 #fcfcfc
#000000 #000000;
#X obj 100 150 metro 2000;
#X obj 178 118 / 8;
#X msg 278 196 0;
#X floatatom 508 377 5 0 0 0 - - - 0;
#X obj 383 233 chords, f 15;
#X obj 364 376 f;
#X floatatom 382 354 5 0 0 0 - - - 0;
#X obj 382 259 note2midi;
#X obj 382 281 mtof;
#X obj 383 178 r beat;
#X msg 491 198 0;
#X obj 382 305 * 3;
#X obj 383 202 t b b;
#X msg 991 111 0;
#X msg 1026 113 1;
#X obj 896 121 bng 15 250 50 0 empty empty empty 17 7 0 10 #fcfcfc
#000000 #000000;
#X listbox 896 164 4 0 0 0 - - - 0;
#X listbox 919 185 4 0 0 0 - - - 0;
#X listbox 944 209 4 0 0 0 - - - 0;
#X listbox 967 230 4 0 0 0 - - - 0;
#X floatatom 896 297 5 0 0 0 - - - 0;
#X floatatom 920 347 5 0 0 0 - - - 0;
#X obj 949 371 note2midi;
#X floatatom 949 395 5 0 0 0 - - - 0;
#X floatatom 973 445 5 0 0 0 - - - 0;
#X obj 879 524 f;
#X obj 907 524 f;
#X obj 935 524 f;
#X obj 963 524 f;
#X msg 912 573 1 \$1;
#X msg 875 573 0 \$1;
#X msg 949 573 2 \$1;
#X floatatom 874 552 5 0 0 0 - - - 0;
#X floatatom 911 552 5 0 0 0 - - - 0;
#X floatatom 948 552 5 0 0 0 - - - 0;
#X msg 986 573 3 \$1;
#X floatatom 985 552 5 0 0 0 - - - 0;
#X obj 896 140 chords, f 14;
#X obj 896 273 note2midi;
#X obj 920 323 note2midi;
#X obj 973 421 note2midi;
#X obj 934 824 lop~ 1000;
#X obj 865 38 r plRel0;
#X obj 896 99 r beat;
#X floatatom 889 62 5 0 0 0 - - - 0;
#X floatatom 844 133 5 0 0 0 - - - 0;
#X obj 845 85 - 1;
#X listbox 1012 163 4 0 0 0 - - - 0;
#X listbox 1035 186 4 0 0 0 - - - 0;
#X listbox 1060 210 4 0 0 0 - - - 0;
#X listbox 1083 231 4 0 0 0 - - - 0;
#X floatatom 1012 298 5 0 0 0 - - - 0;
#X floatatom 1036 348 5 0 0 0 - - - 0;
#X obj 1065 372 note2midi;
#X floatatom 1065 396 5 0 0 0 - - - 0;
#X floatatom 1089 446 5 0 0 0 - - - 0;
#X obj 995 525 f;
#X obj 1023 525 f;
#X obj 1051 525 f;
#X obj 1079 525 f;
#X obj 1012 274 note2midi;
#X obj 1036 324 note2midi;
#X obj 1089 422 note2midi;
#X obj 878 473 sel 0 1 2 3 4 5 6 7;
#X obj 844 109 % 8;
#X floatatom 192 153 5 0 0 0 - - - 0;
#X obj 844 156 + 3;
#X obj 629 48 bng 15 250 50 0 empty empty empty 17 7 0 10 #fcfcfc #000000
#000000;
#X obj 337 242 bng 15 250 50 0 empty empty empty 17 7 0 10 #fcfcfc
#000000 #000000;
#X obj 878 497 bng 15 250 50 0 empty empty empty 17 7 0 10 #fcfcfc
#000000 #000000;
#X obj 899 496 bng 15 250 50 0 empty empty empty 17 7 0 10 #fcfcfc
#000000 #000000;
#X obj 917 496 bng 15 250 50 0 empty empty empty 17 7 0 10 #fcfcfc
#000000 #000000;
#X obj 935 497 bng 15 250 50 0 empty empty empty 17 7 0 10 #fcfcfc
#000000 #000000;
#X obj 958 499 bng 15 250 50 0 empty empty empty 17 7 0 10 #fcfcfc
#000000 #000000;
#X obj 979 498 bng 15 250 50 0 empty empty empty 17 7 0 10 #fcfcfc
#000000 #000000;
#X obj 997 498 bng 15 250 50 0 empty empty empty 17 7 0 10 #fcfcfc
#000000 #000000;
#X obj 1015 499 bng 15 250 50 0 empty empty empty 17 7 0 10 #fcfcfc
#000000 #000000;
#X obj 874 605 clone karplus~ 4;
#X msg 1363 93 0;
#X msg 1398 95 1;
#X obj 1268 103 bng 15 250 50 0 empty empty empty 17 7 0 10 #fcfcfc
#000000 #000000;
#X listbox 1268 146 4 0 0 0 - - - 0;
#X listbox 1291 167 4 0 0 0 - - - 0;
#X listbox 1316 191 4 0 0 0 - - - 0;
#X listbox 1339 212 4 0 0 0 - - - 0;
#X floatatom 1268 279 5 0 0 0 - - - 0;
#X floatatom 1292 329 5 0 0 0 - - - 0;
#X obj 1321 353 note2midi;
#X floatatom 1321 377 5 0 0 0 - - - 0;
#X floatatom 1345 427 5 0 0 0 - - - 0;
#X obj 1251 506 f;
#X obj 1279 506 f;
#X obj 1307 506 f;
#X obj 1335 506 f;
#X msg 1284 555 1 \$1;
#X msg 1247 555 0 \$1;
#X msg 1321 555 2 \$1;
#X floatatom 1246 534 5 0 0 0 - - - 0;
#X floatatom 1283 534 5 0 0 0 - - - 0;
#X floatatom 1320 534 5 0 0 0 - - - 0;
#X msg 1358 555 3 \$1;
#X floatatom 1357 534 5 0 0 0 - - - 0;
#X obj 1268 122 chords, f 14;
#X obj 1268 255 note2midi;
#X obj 1292 305 note2midi;
#X obj 1345 403 note2midi;
#X obj 1306 806 lop~ 1000;
#X obj 1268 81 r beat;
#X floatatom 1261 44 5 0 0 0 - - - 0;
#X floatatom 1216 115 5 0 0 0 - - - 0;
#X obj 1334 765 line~;
#X floatatom 1334 649 5 0 0 0 - - - 0;
#X obj 1334 627 r length0;
#X floatatom 1334 695 8 0 0 0 - - - 0;
#X obj 1217 67 - 1;
#X obj 1334 718 max 0.1;
#X listbox 1384 145 4 0 0 0 - - - 0;
#X listbox 1407 168 4 0 0 0 - - - 0;
#X listbox 1432 192 4 0 0 0 - - - 0;
#X listbox 1455 213 4 0 0 0 - - - 0;
#X floatatom 1384 280 5 0 0 0 - - - 0;
#X floatatom 1408 330 5 0 0 0 - - - 0;
#X obj 1437 354 note2midi;
#X floatatom 1437 378 5 0 0 0 - - - 0;
#X floatatom 1461 428 5 0 0 0 - - - 0;
#X obj 1367 507 f;
#X obj 1395 507 f;
#X obj 1423 507 f;
#X obj 1451 507 f;
#X obj 1384 256 note2midi;
#X obj 1408 306 note2midi;
#X obj 1461 404 note2midi;
#X obj 1250 455 sel 0 1 2 3 4 5 6 7;
#X obj 1216 91 % 8;
#X floatatom 1431 735 5 0 0 0 - - - 0;
#X obj 1334 740 pack f 2000;
#X obj 1216 138 + 3;
#X obj 1250 479 bng 15 250 50 0 empty empty empty 17 7 0 10 #fcfcfc
#000000 #000000;
#X obj 1271 478 bng 15 250 50 0 empty empty empty 17 7 0 10 #fcfcfc
#000000 #000000;
#X obj 1289 478 bng 15 250 50 0 empty empty empty 17 7 0 10 #fcfcfc
#000000 #000000;
#X obj 1307 479 bng 15 250 50 0 empty empty empty 17 7 0 10 #fcfcfc
#000000 #000000;
#X obj 1330 481 bng 15 250 50 0 empty empty empty 17 7 0 10 #fcfcfc
#000000 #000000;
#X obj 1351 480 bng 15 250 50 0 empty empty empty 17 7 0 10 #fcfcfc
#000000 #000000;
#X obj 1369 480 bng 15 250 50 0 empty empty empty 17 7 0 10 #fcfcfc
#000000 #000000;
#X obj 1387 481 bng 15 250 50 0 empty empty empty 17 7 0 10 #fcfcfc
#000000 #000000;
#X obj 1246 587 clone karplus~ 4;
#X obj 1334 671 expr exp((1 - $f1)/30);
#X obj 1237 20 r plRel1;
#X obj 140 626 voice~, f 38;
#X obj 173 595 dati, f 33;
#X floatatom 194 547 5 1 8 0 - - - 0;
#X obj 426 628 voice~, f 38;
#X obj 459 597 dati, f 33;
#X floatatom 480 549 5 1 8 0 - - - 0;
#X obj 662 429 + 1;
#X obj 141 793 lop~ 1000;
#X obj 427 795 lop~ 1000;
#X msg 1737 103 0;
#X msg 1772 105 1;
#X obj 1642 113 bng 15 250 50 0 empty empty empty 17 7 0 10 #fcfcfc
#000000 #000000;
#X listbox 1642 156 4 0 0 0 - - - 0;
#X listbox 1665 177 4 0 0 0 - - - 0;
#X listbox 1690 201 4 0 0 0 - - - 0;
#X listbox 1713 222 4 0 0 0 - - - 0;
#X floatatom 1642 289 5 0 0 0 - - - 0;
#X floatatom 1666 339 5 0 0 0 - - - 0;
#X obj 1695 363 note2midi;
#X floatatom 1695 387 5 0 0 0 - - - 0;
#X floatatom 1719 437 5 0 0 0 - - - 0;
#X obj 1625 516 f;
#X obj 1653 516 f;
#X obj 1681 516 f;
#X obj 1709 516 f;
#X msg 1658 565 1 \$1;
#X msg 1621 565 0 \$1;
#X msg 1695 565 2 \$1;
#X floatatom 1620 544 5 0 0 0 - - - 0;
#X floatatom 1657 544 5 0 0 0 - - - 0;
#X floatatom 1694 544 5 0 0 0 - - - 0;
#X msg 1732 565 3 \$1;
#X floatatom 1731 544 5 0 0 0 - - - 0;
#X obj 1642 132 chords, f 14;
#X obj 1642 265 note2midi;
#X obj 1666 315 note2midi;
#X obj 1719 413 note2midi;
#X obj 1680 816 lop~ 1000;
#X obj 1642 91 r beat;
#X floatatom 1635 54 5 0 0 0 - - - 0;
#X floatatom 1590 125 5 0 0 0 - - - 0;
#X obj 1724 771 line~;
#X floatatom 1724 655 5 0 0 0 - - - 0;
#X obj 1724 633 r length0;
#X floatatom 1724 701 8 0 0 0 - - - 0;
#X obj 1591 77 - 1;
#X obj 1724 724 max 0.1;
#X listbox 1758 155 4 0 0 0 - - - 0;
#X listbox 1781 178 4 0 0 0 - - - 0;
#X listbox 1806 202 4 0 0 0 - - - 0;
#X listbox 1829 223 4 0 0 0 - - - 0;
#X floatatom 1758 290 5 0 0 0 - - - 0;
#X floatatom 1782 340 5 0 0 0 - - - 0;
#X obj 1811 364 note2midi;
#X floatatom 1811 388 5 0 0 0 - - - 0;
#X floatatom 1835 438 5 0 0 0 - - - 0;
#X obj 1741 517 f;
#X obj 1769 517 f;
#X obj 1797 517 f;
#X obj 1825 517 f;
#X obj 1758 266 note2midi;
#X obj 1782 316 note2midi;
#X obj 1835 414 note2midi;
#X obj 1624 465 sel 0 1 2 3 4 5 6 7;
#X obj 1590 101 % 8;
#X floatatom 1821 741 5 0 0 0 - - - 0;
#X obj 1724 746 pack f 2000;
#X obj 1590 148 + 3;
#X obj 1624 489 bng 15 250 50 0 empty empty empty 17 7 0 10 #fcfcfc
#000000 #000000;
#X obj 1645 488 bng 15 250 50 0 empty empty empty 17 7 0 10 #fcfcfc
#000000 #000000;
#X obj 1663 488 bng 15 250 50 0 empty empty empty 17 7 0 10 #fcfcfc
#000000 #000000;
#X obj 1681 489 bng 15 250 50 0 empty empty empty 17 7 0 10 #fcfcfc
#000000 #000000;
#X obj 1704 491 bng 15 250 50 0 empty empty empty 17 7 0 10 #fcfcfc
#000000 #000000;
#X obj 1725 490 bng 15 250 50 0 empty empty empty 17 7 0 10 #fcfcfc
#000000 #000000;
#X obj 1743 490 bng 15 250 50 0 empty empty empty 17 7 0 10 #fcfcfc
#000000 #000000;
#X obj 1761 491 bng 15 250 50 0 empty empty empty 17 7 0 10 #fcfcfc
#000000 #000000;
#X obj 1620 597 clone karplus~ 4;
#X obj 1724 677 expr exp((1 - $f1)/30);
#X msg 2109 85 0;
#X msg 2144 87 1;
#X obj 2014 95 bng 15 250 50 0 empty empty empty 17 7 0 10 #fcfcfc
#000000 #000000;
#X listbox 2014 138 4 0 0 0 - - - 0;
#X listbox 2037 159 4 0 0 0 - - - 0;
#X listbox 2062 183 4 0 0 0 - - - 0;
#X listbox 2085 204 4 0 0 0 - - - 0;
#X floatatom 2014 271 5 0 0 0 - - - 0;
#X floatatom 2038 321 5 0 0 0 - - - 0;
#X obj 2067 345 note2midi;
#X floatatom 2067 369 5 0 0 0 - - - 0;
#X floatatom 2091 419 5 0 0 0 - - - 0;
#X obj 1997 498 f;
#X obj 2025 498 f;
#X obj 2053 498 f;
#X obj 2081 498 f;
#X msg 2030 547 1 \$1;
#X msg 1993 547 0 \$1;
#X msg 2067 547 2 \$1;
#X floatatom 1992 526 5 0 0 0 - - - 0;
#X floatatom 2029 526 5 0 0 0 - - - 0;
#X floatatom 2066 526 5 0 0 0 - - - 0;
#X msg 2104 547 3 \$1;
#X floatatom 2103 526 5 0 0 0 - - - 0;
#X obj 2014 114 chords, f 14;
#X obj 2014 247 note2midi;
#X obj 2038 297 note2midi;
#X obj 2091 395 note2midi;
#X obj 2052 798 lop~ 1000;
#X obj 2014 73 r beat;
#X floatatom 2007 36 5 0 0 0 - - - 0;
#X floatatom 1962 107 5 0 0 0 - - - 0;
#X obj 2099 745 line~;
#X floatatom 2099 629 5 0 0 0 - - - 0;
#X obj 2099 607 r length0;
#X floatatom 2099 675 8 0 0 0 - - - 0;
#X obj 1963 59 - 1;
#X obj 2099 698 max 0.1;
#X listbox 2130 137 4 0 0 0 - - - 0;
#X listbox 2153 160 4 0 0 0 - - - 0;
#X listbox 2178 184 4 0 0 0 - - - 0;
#X listbox 2201 205 4 0 0 0 - - - 0;
#X floatatom 2130 272 5 0 0 0 - - - 0;
#X floatatom 2154 322 5 0 0 0 - - - 0;
#X obj 2183 346 note2midi;
#X floatatom 2183 370 5 0 0 0 - - - 0;
#X floatatom 2207 420 5 0 0 0 - - - 0;
#X obj 2113 499 f;
#X obj 2141 499 f;
#X obj 2169 499 f;
#X obj 2197 499 f;
#X obj 2130 248 note2midi;
#X obj 2154 298 note2midi;
#X obj 2207 396 note2midi;
#X obj 1996 447 sel 0 1 2 3 4 5 6 7;
#X obj 1962 83 % 8;
#X floatatom 2177 727 5 0 0 0 - - - 0;
#X obj 2099 720 pack f 2000;
#X obj 1962 130 + 3;
#X obj 1996 471 bng 15 250 50 0 empty empty empty 17 7 0 10 #fcfcfc
#000000 #000000;
#X obj 2017 470 bng 15 250 50 0 empty empty empty 17 7 0 10 #fcfcfc
#000000 #000000;
#X obj 2035 470 bng 15 250 50 0 empty empty empty 17 7 0 10 #fcfcfc
#000000 #000000;
#X obj 2053 471 bng 15 250 50 0 empty empty empty 17 7 0 10 #fcfcfc
#000000 #000000;
#X obj 2076 473 bng 15 250 50 0 empty empty empty 17 7 0 10 #fcfcfc
#000000 #000000;
#X obj 2097 472 bng 15 250 50 0 empty empty empty 17 7 0 10 #fcfcfc
#000000 #000000;
#X obj 2115 472 bng 15 250 50 0 empty empty empty 17 7 0 10 #fcfcfc
#000000 #000000;
#X obj 2133 473 bng 15 250 50 0 empty empty empty 17 7 0 10 #fcfcfc
#000000 #000000;
#X obj 1992 579 clone karplus~ 4;
#X obj 2099 651 expr exp((1 - $f1)/30);
#X obj 1611 30 r plRel2;
#X obj 1983 12 r plRel3;
#X obj 420 584 * 1;
#X obj 134 582 * 1;
#X obj 169 326 * 0.5;
#X obj 382 329 * 0.5;
#X obj 701 466 + 1;
#X obj 204 753 vline~;
#X msg 204 724 1 10 \, 0 1000 10;
#X obj 141 732 *~;
#X obj 106 607 bng 15 250 50 0 empty empty empty 17 7 0 10 #fcfcfc
#000000 #000000;
#X obj 393 687 bng 15 250 50 0 empty empty empty 17 7 0 10 #fcfcfc
#000000 #000000;
#X obj 492 760 vline~;
#X obj 429 739 *~;
#X obj -7 513 *~;
#X obj 33 515 vline~;
#X msg 33 486 1 10 \, 0 1000 10;
#X obj 422 514 *~;
#X obj 462 516 vline~;
#X msg 492 731 1 10 \, 0 5000 10;
#X msg 462 487 1 10 \, 0 5000 10;
#X obj 316 527 *~ 0.2;
#X obj 714 558 mtof;
#X obj 783 561 mtof;
#X obj 141 708 *~ 0.1;
#X obj 427 710 *~ 0.1;
#X obj 155 499 *~ 0.4;
#X msg 298 346 0.1;
#X obj 966 772 line~;
#X floatatom 966 656 5 0 0 0 - - - 0;
#X obj 966 634 r length0;
#X floatatom 966 702 8 0 0 0 - - - 0;
#X obj 966 725 max 0.1;
#X floatatom 1059 753 5 0 0 0 - - - 0;
#X obj 966 747 pack f 2000;
#X obj 966 678 expr exp((1 - $f1)/30);
#X obj 1306 784 *~ 0.6;
#X obj 2052 776 *~ 0.6;
#X obj 934 802 *~ 0.6;
#X obj 1680 794 *~ 0.6;
#X obj 534 305 loadbang;
#X msg 534 327 10;
#X msg 601 328 100;
#X obj 106 10 loadbang;
#X obj 141 817 dac~;
#X obj 258 556 dac~;
#X obj 934 851 dac~;
#X obj 1306 833 dac~;
#X obj 1680 843 dac~;
#X obj 2052 825 dac~;
#X obj 151 403 paf~;
#X obj 365 399 paf~;
#X connect 0 0 5 0;
#X connect 4 0 2 0;
#X connect 6 0 10 0;
#X connect 6 0 14 0;
#X connect 6 0 28 0;
#X connect 7 0 9 0;
#X connect 7 0 14 1;
#X connect 7 0 29 0;
#X connect 8 0 13 0;
#X connect 11 0 15 0;
#X connect 14 0 8 0;
#X connect 15 0 7 0;
#X connect 16 0 373 3;
#X connect 17 0 4 0;
#X connect 17 0 0 0;
#X connect 17 0 19 0;
#X connect 17 0 95 0;
#X connect 19 0 18 0;
#X connect 20 0 24 0;
#X connect 21 0 373 0;
#X connect 22 0 20 0;
#X connect 23 0 327 0;
#X connect 24 0 25 0;
#X connect 25 0 23 0;
#X connect 26 0 22 0;
#X connect 27 0 21 0;
#X connect 27 0 339 0;
#X connect 28 0 27 0;
#X connect 29 0 28 1;
#X connect 29 0 93 0;
#X connect 30 0 20 1;
#X connect 31 0 374 3;
#X connect 32 0 35 0;
#X connect 33 0 374 0;
#X connect 34 0 33 1;
#X connect 35 0 36 0;
#X connect 36 0 39 0;
#X connect 37 0 40 0;
#X connect 38 0 32 1;
#X connect 39 0 328 0;
#X connect 40 0 96 0;
#X connect 40 1 32 0;
#X connect 41 0 65 1;
#X connect 42 0 65 1;
#X connect 43 0 65 0;
#X connect 44 0 66 0;
#X connect 45 0 67 0;
#X connect 46 0 50 0;
#X connect 47 0 68 0;
#X connect 48 0 53 1;
#X connect 49 0 54 1;
#X connect 50 0 51 0;
#X connect 51 0 55 1;
#X connect 52 0 56 1;
#X connect 53 0 60 0;
#X connect 53 0 345 0;
#X connect 54 0 61 0;
#X connect 54 0 345 0;
#X connect 55 0 62 0;
#X connect 55 0 345 0;
#X connect 56 0 64 0;
#X connect 56 0 345 0;
#X connect 57 0 105 0;
#X connect 58 0 105 0;
#X connect 59 0 105 0;
#X connect 60 0 58 0;
#X connect 61 0 57 0;
#X connect 62 0 59 0;
#X connect 63 0 105 0;
#X connect 64 0 63 0;
#X connect 65 0 44 0;
#X connect 65 1 45 0;
#X connect 65 2 46 0;
#X connect 65 3 47 0;
#X connect 65 4 75 0;
#X connect 65 5 76 0;
#X connect 65 6 77 0;
#X connect 65 7 78 0;
#X connect 66 0 48 0;
#X connect 67 0 49 0;
#X connect 68 0 52 0;
#X connect 69 0 369 0;
#X connect 70 0 72 0;
#X connect 70 0 74 0;
#X connect 71 0 43 0;
#X connect 73 0 94 0;
#X connect 73 0 91 0;
#X connect 74 0 92 0;
#X connect 75 0 88 0;
#X connect 76 0 89 0;
#X connect 77 0 81 0;
#X connect 78 0 90 0;
#X connect 79 0 84 1;
#X connect 80 0 85 1;
#X connect 81 0 82 0;
#X connect 82 0 86 1;
#X connect 83 0 87 1;
#X connect 84 0 60 0;
#X connect 84 0 345 0;
#X connect 85 0 61 0;
#X connect 85 0 345 0;
#X connect 86 0 62 0;
#X connect 86 0 345 0;
#X connect 87 0 64 0;
#X connect 87 0 345 0;
#X connect 88 0 79 0;
#X connect 89 0 80 0;
#X connect 90 0 83 0;
#X connect 91 0 97 0;
#X connect 91 1 98 0;
#X connect 91 2 99 0;
#X connect 91 3 100 0;
#X connect 91 4 101 0;
#X connect 91 5 102 0;
#X connect 91 6 103 0;
#X connect 91 7 104 0;
#X connect 92 0 73 0;
#X connect 95 0 30 0;
#X connect 95 0 38 0;
#X connect 95 0 350 0;
#X connect 95 0 41 0;
#X connect 95 0 106 0;
#X connect 95 0 185 0;
#X connect 95 0 254 0;
#X connect 96 0 33 0;
#X connect 96 0 343 0;
#X connect 97 0 53 0;
#X connect 98 0 54 0;
#X connect 99 0 55 0;
#X connect 100 0 56 0;
#X connect 101 0 84 0;
#X connect 102 0 85 0;
#X connect 103 0 86 0;
#X connect 104 0 87 0;
#X connect 105 0 361 0;
#X connect 106 0 130 1;
#X connect 107 0 130 1;
#X connect 108 0 130 0;
#X connect 109 0 131 0;
#X connect 110 0 132 0;
#X connect 111 0 115 0;
#X connect 112 0 133 0;
#X connect 113 0 118 1;
#X connect 114 0 119 1;
#X connect 115 0 116 0;
#X connect 116 0 120 1;
#X connect 117 0 121 1;
#X connect 118 0 125 0;
#X connect 118 0 346 0;
#X connect 119 0 126 0;
#X connect 119 0 346 0;
#X connect 120 0 127 0;
#X connect 120 0 346 0;
#X connect 121 0 129 0;
#X connect 121 0 346 0;
#X connect 122 0 173 0;
#X connect 123 0 173 0;
#X connect 124 0 173 0;
#X connect 125 0 123 0;
#X connect 126 0 122 0;
#X connect 127 0 124 0;
#X connect 128 0 173 0;
#X connect 129 0 128 0;
#X connect 130 0 109 0;
#X connect 130 1 110 0;
#X connect 130 2 111 0;
#X connect 130 3 112 0;
#X connect 130 4 144 0;
#X connect 130 5 145 0;
#X connect 130 6 146 0;
#X connect 130 7 147 0;
#X connect 131 0 113 0;
#X connect 132 0 114 0;
#X connect 133 0 117 0;
#X connect 134 0 370 0;
#X connect 134 0 370 1;
#X connect 135 0 108 0;
#X connect 137 0 164 0;
#X connect 137 0 160 0;
#X connect 139 0 174 0;
#X connect 140 0 139 0;
#X connect 141 0 143 0;
#X connect 142 0 161 0;
#X connect 143 0 162 0;
#X connect 143 0 163 0;
#X connect 144 0 157 0;
#X connect 145 0 158 0;
#X connect 146 0 150 0;
#X connect 147 0 159 0;
#X connect 148 0 153 1;
#X connect 149 0 154 1;
#X connect 150 0 151 0;
#X connect 151 0 155 1;
#X connect 152 0 156 1;
#X connect 153 0 125 0;
#X connect 153 0 346 0;
#X connect 154 0 126 0;
#X connect 154 0 346 0;
#X connect 155 0 127 0;
#X connect 155 0 346 0;
#X connect 156 0 129 0;
#X connect 156 0 346 0;
#X connect 157 0 148 0;
#X connect 158 0 149 0;
#X connect 159 0 152 0;
#X connect 160 0 165 0;
#X connect 160 1 166 0;
#X connect 160 2 167 0;
#X connect 160 3 168 0;
#X connect 160 4 169 0;
#X connect 160 5 170 0;
#X connect 160 6 171 0;
#X connect 160 7 172 0;
#X connect 161 0 137 0;
#X connect 163 0 138 0;
#X connect 165 0 118 0;
#X connect 166 0 119 0;
#X connect 167 0 120 0;
#X connect 168 0 121 0;
#X connect 169 0 153 0;
#X connect 170 0 154 0;
#X connect 171 0 155 0;
#X connect 172 0 156 0;
#X connect 173 0 359 0;
#X connect 174 0 141 0;
#X connect 175 0 136 0;
#X connect 175 0 142 0;
#X connect 176 0 347 0;
#X connect 176 1 347 0;
#X connect 176 2 347 0;
#X connect 177 0 176 1;
#X connect 177 1 176 2;
#X connect 177 2 176 3;
#X connect 177 3 176 4;
#X connect 177 4 176 5;
#X connect 177 5 176 6;
#X connect 177 6 176 7;
#X connect 177 7 176 8;
#X connect 177 8 176 9;
#X connect 178 0 177 0;
#X connect 179 0 348 0;
#X connect 179 1 348 0;
#X connect 179 2 348 0;
#X connect 180 0 179 1;
#X connect 180 1 179 2;
#X connect 180 2 179 3;
#X connect 180 3 179 4;
#X connect 180 4 179 5;
#X connect 180 5 179 6;
#X connect 180 6 179 7;
#X connect 180 7 179 8;
#X connect 180 8 179 9;
#X connect 181 0 180 0;
#X connect 182 0 178 0;
#X connect 183 0 367 0;
#X connect 184 0 367 1;
#X connect 185 0 209 1;
#X connect 186 0 209 1;
#X connect 187 0 209 0;
#X connect 188 0 210 0;
#X connect 189 0 211 0;
#X connect 190 0 194 0;
#X connect 191 0 212 0;
#X connect 192 0 197 1;
#X connect 193 0 198 1;
#X connect 194 0 195 0;
#X connect 195 0 199 1;
#X connect 196 0 200 1;
#X connect 197 0 204 0;
#X connect 198 0 205 0;
#X connect 199 0 206 0;
#X connect 200 0 208 0;
#X connect 201 0 252 0;
#X connect 202 0 252 0;
#X connect 203 0 252 0;
#X connect 204 0 202 0;
#X connect 205 0 201 0;
#X connect 206 0 203 0;
#X connect 207 0 252 0;
#X connect 208 0 207 0;
#X connect 209 0 188 0;
#X connect 209 1 189 0;
#X connect 209 2 190 0;
#X connect 209 3 191 0;
#X connect 209 4 223 0;
#X connect 209 5 224 0;
#X connect 209 6 225 0;
#X connect 209 7 226 0;
#X connect 210 0 192 0;
#X connect 211 0 193 0;
#X connect 212 0 196 0;
#X connect 213 0 371 0;
#X connect 213 0 371 1;
#X connect 214 0 187 0;
#X connect 216 0 243 0;
#X connect 216 0 239 0;
#X connect 216 0 329 0;
#X connect 218 0 253 0;
#X connect 219 0 218 0;
#X connect 220 0 222 0;
#X connect 221 0 240 0;
#X connect 222 0 241 0;
#X connect 222 0 242 0;
#X connect 223 0 236 0;
#X connect 224 0 237 0;
#X connect 225 0 229 0;
#X connect 226 0 238 0;
#X connect 227 0 232 1;
#X connect 228 0 233 1;
#X connect 229 0 230 0;
#X connect 230 0 234 1;
#X connect 231 0 235 1;
#X connect 232 0 204 0;
#X connect 233 0 205 0;
#X connect 234 0 206 0;
#X connect 235 0 208 0;
#X connect 236 0 227 0;
#X connect 237 0 228 0;
#X connect 238 0 231 0;
#X connect 239 0 244 0;
#X connect 239 1 245 0;
#X connect 239 2 246 0;
#X connect 239 3 247 0;
#X connect 239 4 248 0;
#X connect 239 5 249 0;
#X connect 239 6 250 0;
#X connect 239 7 251 0;
#X connect 240 0 216 0;
#X connect 242 0 217 0;
#X connect 244 0 197 0;
#X connect 245 0 198 0;
#X connect 246 0 199 0;
#X connect 247 0 200 0;
#X connect 248 0 232 0;
#X connect 249 0 233 0;
#X connect 250 0 234 0;
#X connect 251 0 235 0;
#X connect 252 0 362 0;
#X connect 253 0 220 0;
#X connect 254 0 278 1;
#X connect 255 0 278 1;
#X connect 256 0 278 0;
#X connect 257 0 279 0;
#X connect 258 0 280 0;
#X connect 259 0 263 0;
#X connect 260 0 281 0;
#X connect 261 0 266 1;
#X connect 262 0 267 1;
#X connect 263 0 264 0;
#X connect 264 0 268 1;
#X connect 265 0 269 1;
#X connect 266 0 273 0;
#X connect 267 0 274 0;
#X connect 268 0 275 0;
#X connect 269 0 277 0;
#X connect 270 0 321 0;
#X connect 271 0 321 0;
#X connect 272 0 321 0;
#X connect 273 0 271 0;
#X connect 274 0 270 0;
#X connect 275 0 272 0;
#X connect 276 0 321 0;
#X connect 277 0 276 0;
#X connect 278 0 257 0;
#X connect 278 1 258 0;
#X connect 278 2 259 0;
#X connect 278 3 260 0;
#X connect 278 4 292 0;
#X connect 278 5 293 0;
#X connect 278 6 294 0;
#X connect 278 7 295 0;
#X connect 279 0 261 0;
#X connect 280 0 262 0;
#X connect 281 0 265 0;
#X connect 282 0 372 0;
#X connect 283 0 256 0;
#X connect 285 0 312 0;
#X connect 285 0 308 0;
#X connect 285 0 182 0;
#X connect 287 0 322 0;
#X connect 288 0 287 0;
#X connect 289 0 291 0;
#X connect 290 0 309 0;
#X connect 291 0 310 0;
#X connect 291 0 311 0;
#X connect 292 0 305 0;
#X connect 293 0 306 0;
#X connect 294 0 298 0;
#X connect 295 0 307 0;
#X connect 296 0 301 1;
#X connect 297 0 302 1;
#X connect 298 0 299 0;
#X connect 299 0 303 1;
#X connect 300 0 304 1;
#X connect 301 0 273 0;
#X connect 302 0 274 0;
#X connect 303 0 275 0;
#X connect 304 0 277 0;
#X connect 305 0 296 0;
#X connect 306 0 297 0;
#X connect 307 0 300 0;
#X connect 308 0 313 0;
#X connect 308 1 314 0;
#X connect 308 2 315 0;
#X connect 308 3 316 0;
#X connect 308 4 317 0;
#X connect 308 5 318 0;
#X connect 308 6 319 0;
#X connect 308 7 320 0;
#X connect 309 0 285 0;
#X connect 311 0 286 0;
#X connect 313 0 266 0;
#X connect 314 0 267 0;
#X connect 315 0 268 0;
#X connect 316 0 269 0;
#X connect 317 0 301 0;
#X connect 318 0 302 0;
#X connect 319 0 303 0;
#X connect 320 0 304 0;
#X connect 321 0 360 0;
#X connect 322 0 289 0;
#X connect 323 0 215 0;
#X connect 323 0 221 0;
#X connect 324 0 284 0;
#X connect 324 0 290 0;
#X connect 325 0 179 0;
#X connect 325 0 334 0;
#X connect 326 0 176 0;
#X connect 326 0 333 0;
#X connect 327 0 21 1;
#X connect 328 0 34 0;
#X connect 329 0 181 0;
#X connect 330 0 332 1;
#X connect 331 0 330 0;
#X connect 332 0 183 0;
#X connect 333 0 331 0;
#X connect 334 0 342 0;
#X connect 335 0 336 1;
#X connect 336 0 184 0;
#X connect 337 0 349 0;
#X connect 338 0 337 1;
#X connect 339 0 338 0;
#X connect 340 0 344 0;
#X connect 341 0 340 1;
#X connect 342 0 335 0;
#X connect 343 0 341 0;
#X connect 344 0 368 1;
#X connect 345 0 326 0;
#X connect 346 0 325 0;
#X connect 347 0 332 0;
#X connect 348 0 336 0;
#X connect 349 0 368 0;
#X connect 350 0 16 0;
#X connect 350 0 31 0;
#X connect 353 0 352 0;
#X connect 354 0 355 0;
#X connect 355 0 356 0;
#X connect 355 0 357 0;
#X connect 357 0 351 0;
#X connect 359 0 134 0;
#X connect 360 0 282 0;
#X connect 361 0 69 0;
#X connect 362 0 213 0;
#X connect 363 0 364 0;
#X connect 363 0 365 0;
#X connect 364 0 373 1;
#X connect 364 0 374 1;
#X connect 365 0 373 2;
#X connect 365 0 374 2;
#X connect 366 0 6 0;
#X connect 373 0 337 0;
#X connect 374 0 340 0;
