#N canvas 192 192 450 300 12;
#X obj 73 281 *~;
#X obj 135 250 vline~;
#X obj 37 91 noise~;
#X obj 73 248 *~ 0.5;
#X obj 73 225 osc~ 180;
#X obj 37 188 hip~ 1000;
#X text 45 45 Snare;
#X obj 99 44 inlet;
#X obj 135 167 max 0;
#X obj 135 88 * 10;
#X obj 135 115 *;
#X obj 135 138 / 100;
#X obj 37 164 lop~ 3000;
#X obj 76 138 + 500;
#X obj 76 114 * 3000;
#X obj 99 69 bng 15 250 50 0 empty empty empty 17 7 0 10 #fcfcfc #000000
#000000;
#X obj 100 89 f;
#X obj 193 65 loadbang;
#X obj 193 89 t b b;
#X obj 193 139 sel 0;
#X floatatom 225 166 5 0 0 0 - - - 0;
#X obj 193 114 f \$2;
#X obj 135 278 *~;
#X msg 240 134 0.9;
#X msg 135 225 \$1 1 \, 0 280 1;
#X obj 148 43 inlet;
#X obj 73 305 outlet~;
#X connect 0 0 26 0;
#X connect 1 0 22 1;
#X connect 1 0 22 0;
#X connect 2 0 12 0;
#X connect 3 0 0 0;
#X connect 4 0 3 0;
#X connect 5 0 0 0;
#X connect 7 0 15 0;
#X connect 8 0 14 0;
#X connect 8 0 24 0;
#X connect 9 0 10 1;
#X connect 9 0 10 0;
#X connect 10 0 11 0;
#X connect 11 0 8 0;
#X connect 12 0 5 0;
#X connect 13 0 12 1;
#X connect 14 0 13 0;
#X connect 15 0 16 0;
#X connect 16 0 9 0;
#X connect 17 0 18 0;
#X connect 18 0 21 0;
#X connect 18 1 23 0;
#X connect 19 1 20 0;
#X connect 20 0 16 1;
#X connect 21 0 19 0;
#X connect 22 0 0 1;
#X connect 23 0 20 0;
#X connect 24 0 1 0;
#X connect 25 0 16 1;
