#N canvas 192 192 1920 976 12;
#N canvas 0 50 450 250 (subpatch) 0;
#X array \$0-steps 16 float 3;
#A 0 2.20714 2.91429 3.25714 3.6 4.65 4.99286 5.46429 5.07857 1.75714
1.69286 2.37857 2.925 3.47143 4.58572 5.33572 2.74286;
#X coords 0 6 16 0 200 140 1 0 0;
#X restore 37 39 graph;
#X text 16 235 0 = kick 1 = snare 2 = high-hat 3 = ks 4 = kh 5 = sh
6 = ksh;
#X msg 22 269 0 1 2 3 4 5 6 0 1 2 3 4 5 6 0 1;
#X obj 20 319 array set \$0-steps;
#N canvas -79 106 1920 976 counter 0;
#X obj 93 153 f;
#X obj 159 160 + 1;
#X msg 109 124 0;
#X text 147 122 Resetter to index 0;
#X obj 111 64 sel 0;
#X obj 82 21 inlet toggle;
#X obj 225 26 inlet speed;
#X obj 92 231 outlet cnt;
#X obj 93 91 metro 144;
#X obj 95 190 % 16;
#X connect 0 0 1 0;
#X connect 0 0 9 0;
#X connect 1 0 0 1;
#X connect 2 0 0 1;
#X connect 4 0 2 0;
#X connect 5 0 4 0;
#X connect 5 0 8 0;
#X connect 6 0 8 1;
#X connect 8 0 0 0;
#X connect 9 0 7 0;
#X restore 512 65 pd counter;
#X obj 508 26 tgl 15 0 empty empty empty 17 7 0 10 #fcfcfc #000000
#000000 0 1;
#X floatatom 569 27 5 0 0 0 - - - 0;
#X obj 504 165 array get \$0-steps;
#X obj 506 109 hradio 16 1 0 16 empty empty empty 0 -8 0 10 #fcfcfc
#000000 #000000 0;
#X floatatom 504 194 5 0 0 0 - - - 0;
#X msg 565 138 1;
#X obj 504 217 + 0.5;
#X obj 504 241 int;
#X floatatom 504 265 5 0 0 0 - - - 0;
#X obj 504 288 select 0 1 2 3 4 5 6;
#N canvas -84 77 1920 976 kick 0;
#X obj 50 213 osc~;
#X obj 50 186 vline~;
#X obj 50 60 bng 15 250 50 0 empty empty empty 17 7 0 10 #fcfcfc #000000
#000000;
#X obj 50 275 *~;
#X obj 119 213 vline~;
#X text 54 11 kick;
#X obj 50 30 inlet;
#X obj 119 52 * 10;
#X obj 119 79 *;
#X obj 119 102 / 100;
#X obj 119 126 max 0.1;
#X obj 190 52 loadbang;
#X obj 190 101 f \$1;
#X obj 190 76 t b b;
#X obj 190 126 sel 0;
#X msg 237 121 1;
#X floatatom 222 153 5 0 0 0 - - - 0;
#X obj 75 99 f;
#X msg 50 156 150 1 \, 50 70 5;
#X obj 118 240 *~;
#X msg 119 187 \$1 1 \, 0 300 1;
#X obj 47 320 outlet~;
#X obj 95 29 inlet;
#X connect 0 0 3 0;
#X connect 1 0 0 0;
#X connect 2 0 18 0;
#X connect 2 0 17 0;
#X connect 3 0 21 0;
#X connect 4 0 19 1;
#X connect 4 0 19 0;
#X connect 6 0 2 0;
#X connect 7 0 8 1;
#X connect 7 0 8 0;
#X connect 8 0 9 0;
#X connect 9 0 10 0;
#X connect 10 0 20 0;
#X connect 11 0 13 0;
#X connect 12 0 14 0;
#X connect 13 0 12 0;
#X connect 13 1 15 0;
#X connect 14 1 16 0;
#X connect 15 0 16 0;
#X connect 16 0 17 1;
#X connect 17 0 7 0;
#X connect 18 0 1 0;
#X connect 19 0 3 1;
#X connect 20 0 4 0;
#X connect 22 0 17 1;
#X restore 491 348 pd kick;
#N canvas -71 76 1920 976 snare 0;
#X obj 73 281 *~;
#X obj 135 250 vline~;
#X obj 37 91 noise~;
#X obj 73 248 *~ 0.5;
#X obj 73 225 osc~ 180;
#X obj 37 188 hip~ 1000;
#X text 45 45 Snare;
#X obj 99 44 inlet;
#X obj 135 167 max 0;
#X obj 135 88 * 10;
#X obj 135 115 *;
#X obj 135 138 / 100;
#X obj 37 164 lop~ 3000;
#X obj 76 138 + 500;
#X obj 76 114 * 3000;
#X obj 99 69 bng 15 250 50 0 empty empty empty 17 7 0 10 #fcfcfc #000000
#000000;
#X obj 100 89 f;
#X obj 193 65 loadbang;
#X obj 193 89 t b b;
#X obj 193 139 sel 0;
#X floatatom 225 166 5 0 0 0 - - - 0;
#X obj 193 114 f \$2;
#X obj 135 278 *~;
#X msg 240 134 0.9;
#X msg 135 225 \$1 1 \, 0 280 1;
#X obj 148 43 inlet;
#X obj 73 305 outlet~;
#X connect 0 0 26 0;
#X connect 1 0 22 1;
#X connect 1 0 22 0;
#X connect 2 0 12 0;
#X connect 3 0 0 0;
#X connect 4 0 3 0;
#X connect 5 0 0 0;
#X connect 7 0 15 0;
#X connect 8 0 14 0;
#X connect 8 0 24 0;
#X connect 9 0 10 1;
#X connect 9 0 10 0;
#X connect 10 0 11 0;
#X connect 11 0 8 0;
#X connect 12 0 5 0;
#X connect 13 0 12 1;
#X connect 14 0 13 0;
#X connect 15 0 16 0;
#X connect 16 0 9 0;
#X connect 17 0 18 0;
#X connect 18 0 21 0;
#X connect 18 1 23 0;
#X connect 19 1 20 0;
#X connect 20 0 16 1;
#X connect 21 0 19 0;
#X connect 22 0 0 1;
#X connect 23 0 20 0;
#X connect 24 0 1 0;
#X connect 25 0 16 1;
#X restore 552 352 pd snare;
#N canvas 9 47 1920 976 hats 0;
#X obj 47 275 *~;
#X obj 103 244 vline~;
#X obj 22 196 noise~;
#X obj 22 219 hip~ 20000;
#X obj 22 242 hip~ 10000;
#X obj 63 57 inlet;
#X obj 103 172 max 0;
#X obj 103 96 * 10;
#X obj 103 123 *;
#X obj 103 146 / 100;
#X obj 63 86 bng 15 250 50 0 empty empty empty 17 7 0 10 #fcfcfc #000000
#000000;
#X obj 63 138 f;
#X obj 168 79 loadbang;
#X obj 168 103 t b b;
#X obj 168 153 sel 0;
#X floatatom 200 180 5 0 0 0 - - - 0;
#X obj 168 128 f \$3;
#X msg 103 220 \$1 \, 0 100 1;
#X msg 215 148 0.9;
#X text 61 36 Hats closed;
#X obj 104 57 inlet;
#X obj 47 299 outlet~;
#X connect 0 0 21 0;
#X connect 1 0 0 1;
#X connect 2 0 3 0;
#X connect 3 0 4 0;
#X connect 4 0 0 0;
#X connect 5 0 10 0;
#X connect 6 0 17 0;
#X connect 7 0 8 1;
#X connect 7 0 8 0;
#X connect 8 0 9 0;
#X connect 9 0 6 0;
#X connect 10 0 11 0;
#X connect 11 0 7 0;
#X connect 12 0 13 0;
#X connect 13 0 16 0;
#X connect 13 1 18 0;
#X connect 14 1 15 0;
#X connect 15 0 11 1;
#X connect 16 0 14 0;
#X connect 17 0 1 0;
#X connect 18 0 15 0;
#X connect 20 0 11 1;
#X restore 620 350 pd hats;
#X floatatom 560 258 5 0 0 0 - - - 0;
#X floatatom 605 262 5 0 0 0 - - - 0;
#X floatatom 666 266 5 0 0 0 - - - 0;
#X obj 581 398 +~;
#X obj 585 432 dac~;
#X connect 2 0 3 0;
#X connect 4 0 8 0;
#X connect 5 0 4 0;
#X connect 6 0 4 1;
#X connect 7 0 9 0;
#X connect 8 0 7 0;
#X connect 9 0 11 0;
#X connect 10 0 7 1;
#X connect 11 0 12 0;
#X connect 12 0 13 0;
#X connect 13 0 14 0;
#X connect 14 0 15 0;
#X connect 14 1 16 0;
#X connect 14 2 17 0;
#X connect 14 3 15 0;
#X connect 14 3 16 0;
#X connect 14 4 15 0;
#X connect 14 4 17 0;
#X connect 14 5 16 0;
#X connect 14 5 17 0;
#X connect 14 6 15 0;
#X connect 14 6 16 0;
#X connect 14 6 17 0;
#X connect 15 0 21 0;
#X connect 16 0 21 0;
#X connect 17 0 21 0;
#X connect 18 0 15 1;
#X connect 19 0 16 1;
#X connect 20 0 17 1;
#X connect 21 0 22 0;
#X connect 21 0 22 1;
