#N canvas 348 159 553 421 12;
#X obj 113 146 textfile;
#X msg 216 146 rewind;
#X symbolatom 113 190 10 0 0 0 - - - 0;
#X symbolatom 144 211 10 0 0 0 - - - 0;
#X symbolatom 176 231 10 0 0 0 - - - 0;
#X symbolatom 208 251 10 0 0 0 - - - 0;
#X obj 114 45 bng 15 250 50 0 empty empty empty 17 7 0 10 #fcfcfc #000000
#000000;
#X obj 181 11 loadbang;
#X obj 81 209 outlet;
#X obj 119 231 outlet;
#X obj 150 252 outlet;
#X obj 208 273 outlet;
#X obj 114 16 inlet;
#X symbolatom 262 280 10 0 0 0 - - - 0;
#X obj 262 302 outlet;
#X obj 348 4 inlet;
#X msg 328 109 read arpeggio.txt;
#X obj 348 28 sel 0 1;
#X obj 113 168 unpack s s s s s s s s;
#X symbolatom 313 305 10 0 0 0 - - - 0;
#X symbolatom 344 326 10 0 0 0 - - - 0;
#X symbolatom 376 346 10 0 0 0 - - - 0;
#X obj 281 324 outlet;
#X obj 319 346 outlet;
#X obj 350 367 outlet;
#X msg 348 82 read chords3.txt;
#X obj 183 124 t b b;
#X obj 313 54 t b b;
#X connect 0 0 18 0;
#X connect 0 1 26 0;
#X connect 1 0 0 0;
#X connect 2 0 8 0;
#X connect 3 0 9 0;
#X connect 4 0 10 0;
#X connect 5 0 11 0;
#X connect 6 0 0 0;
#X connect 7 0 25 0;
#X connect 12 0 6 0;
#X connect 13 0 14 0;
#X connect 15 0 17 0;
#X connect 16 0 0 0;
#X connect 17 0 27 0;
#X connect 17 1 16 0;
#X connect 18 0 2 0;
#X connect 18 1 3 0;
#X connect 18 2 4 0;
#X connect 18 3 5 0;
#X connect 18 4 13 0;
#X connect 18 5 19 0;
#X connect 18 6 20 0;
#X connect 18 7 21 0;
#X connect 19 0 22 0;
#X connect 20 0 23 0;
#X connect 21 0 24 0;
#X connect 25 0 0 0;
#X connect 26 0 6 0;
#X connect 26 1 1 0;
#X connect 27 0 1 0;
#X connect 27 1 25 0;
