#N canvas 2 19 1920 976 12;
#X obj 99 123 inlet;
#X obj 97 297 *~;
#X obj 97 321 dac~;
#X msg 132 213 0.6 5 \, 0 200 10;
#X obj 132 237 vline~;
#X obj 132 261 pow~ 4;
#X obj 97 183 osc~ 1300;
#X obj 183 135 inlet;
#X connect 0 0 3 0;
#X connect 1 0 2 0;
#X connect 1 0 2 1;
#X connect 3 0 4 0;
#X connect 4 0 5 0;
#X connect 5 0 1 1;
#X connect 6 0 1 0;
#X connect 7 0 6 0;
