#N canvas 388 122 759 446 12;
#X obj 114 137 textfile;
#X msg 114 101 read data/formant\$1.txt \, rewind;
#X obj 87 70 t b f;
#X obj 87 42 int;
#X obj 114 162 unpack f f f f f f f f f;
#X obj 87 21 inlet;
#X obj 116 251 outlet;
#X obj 126 261 outlet;
#X obj 136 271 outlet;
#X obj 146 281 outlet;
#X obj 156 291 outlet;
#X obj 166 301 outlet;
#X obj 176 311 outlet;
#X obj 186 321 outlet;
#X obj 198 331 outlet;
#X connect 0 0 4 0;
#X connect 1 0 0 0;
#X connect 2 0 0 0;
#X connect 2 1 1 0;
#X connect 3 0 2 0;
#X connect 4 0 6 0;
#X connect 4 1 7 0;
#X connect 4 2 8 0;
#X connect 4 3 9 0;
#X connect 4 4 10 0;
#X connect 4 5 11 0;
#X connect 4 6 12 0;
#X connect 4 7 13 0;
#X connect 4 8 14 0;
#X connect 5 0 3 0;
