#N canvas 259 94 896 640 12;
#X obj 340 103 mtof;
#X floatatom 340 172 5 0 0 0 - - - 0;
#X obj 340 151 expr 1000/$f1;
#X text 427 151 periodo in millisecondi;
#X obj 340 192 t f f;
#X obj 367 214 sig~;
#X obj 367 256 z~;
#X obj 367 281 +~;
#X msg 743 244 0;
#X obj 581 159 noise~;
#X obj 603 249 *~;
#X msg 706 216 1;
#X obj 579 110 t b b;
#X obj 667 18 t b;
#X floatatom 474 89 5 0 0 0 - - - 0;
#X floatatom 474 130 5 0 0 0 - - - 0;
#X floatatom 457 195 12 0 0 0 - - - 0;
#X msg 340 66 54;
#X obj 310 -63 inlet;
#X obj 368 411 outlet~;
#X obj 584 52 random 3;
#X obj 584 73 + 2;
#X obj 367 234 delread4~ \$0-buff;
#X obj 601 276 delwrite~ \$0-buff 1000;
#X obj 393 255 z~ 1;
#X obj 380 360 *~ 0.1;
#X obj 474 47 random 100;
#X obj 474 68 / 100;
#X obj 457 174 min 0.999;
#X obj 743 215 del 4;
#X obj 582 181 lop~ 350;
#X obj 340 127 * 2;
#X obj 394 313 *~ 0.499;
#X connect 0 0 12 0;
#X connect 0 0 13 0;
#X connect 0 0 31 0;
#X connect 1 0 4 0;
#X connect 2 0 1 0;
#X connect 4 0 29 1;
#X connect 4 1 5 0;
#X connect 5 0 22 0;
#X connect 6 0 7 0;
#X connect 7 0 32 0;
#X connect 8 0 10 1;
#X connect 9 0 30 0;
#X connect 10 0 23 0;
#X connect 11 0 10 1;
#X connect 12 0 11 0;
#X connect 12 1 29 0;
#X connect 13 0 20 0;
#X connect 13 0 26 0;
#X connect 14 0 15 0;
#X connect 15 0 28 0;
#X connect 17 0 0 0;
#X connect 18 0 12 0;
#X connect 18 0 13 0;
#X connect 18 0 0 0;
#X connect 20 0 21 0;
#X connect 22 0 6 0;
#X connect 22 0 24 0;
#X connect 24 0 7 1;
#X connect 25 0 19 0;
#X connect 26 0 27 0;
#X connect 27 0 14 0;
#X connect 28 0 16 0;
#X connect 29 0 8 0;
#X connect 30 0 10 0;
#X connect 31 0 2 0;
#X connect 32 0 23 0;
#X connect 32 0 25 0;
