#N canvas -2 25 1920 976 12;
#N canvas -80 117 1920 976 counter 0;
#X obj 93 153 f;
#X obj 159 160 + 1;
#X msg 109 124 0;
#X text 147 122 Resetter to index 0;
#X obj 111 64 sel 0;
#X obj 82 21 inlet toggle;
#X obj 225 26 inlet speed;
#X obj 92 231 outlet cnt;
#X obj 93 91 metro 144;
#X obj 95 190 % 16;
#X connect 0 0 1 0;
#X connect 0 0 9 0;
#X connect 1 0 0 1;
#X connect 2 0 0 1;
#X connect 4 0 2 0;
#X connect 5 0 4 0;
#X connect 5 0 8 0;
#X connect 6 0 8 1;
#X connect 8 0 0 0;
#X connect 9 0 7 0;
#X restore 184 377 pd counter;
#X obj 324 314 r dur;
#X obj 184 350 tgl 15 0 empty empty empty 17 7 0 10 #fcfcfc #000000
#000000 0 1;
#X obj 309 132 r beat;
#X msg 316 275 0;
#X msg 218 150 1;
#X obj 184 205 f;
#X floatatom 205 179 5 0 0 0 - - - 0;
#X msg 217 205 0;
#X obj 325 345 / 8;
#X obj 309 157 f;
#X floatatom 309 181 5 0 0 0 - - - 0;
#X obj 346 156 + 1;
#X obj 309 204 sel 1;
#X obj 309 230 t b b;
#N canvas 0 50 450 250 (subpatch) 0;
#X array \$0-pitches 16 float 3;
#A 0 1 1 1 0 0 0 0 0 1 0 0 0 0 0 0 0;
#X coords 0 1 16 0 200 50 1 0 0;
#X restore 435 499 graph;
#X obj 436 257 inlet;
#X obj 182 429 hradio 15 1 0 16 empty empty empty 0 -8 0 10 #fcfcfc
#000000 #000000 0;
#X obj 182 468 trigger f f;
#X obj 182 508 spigot;
#X obj 256 489 > 0;
#X obj 182 542 outlet;
#X obj 182 446 array get \$0-pitches;
#X obj 218 80 inlet;
#X obj 436 462 array set \$0-pitches;
#X text 263 82 prepare;
#X text 477 257 pitches;
#X text 237 546 frequency output;
#X obj 248 251 r GlobalTog;
#X connect 0 0 17 0;
#X connect 1 0 9 0;
#X connect 2 0 0 0;
#X connect 3 0 10 0;
#X connect 4 0 2 0;
#X connect 4 0 10 1;
#X connect 5 0 7 0;
#X connect 6 0 8 0;
#X connect 6 0 2 0;
#X connect 7 0 6 1;
#X connect 8 0 7 0;
#X connect 9 0 0 1;
#X connect 10 0 12 0;
#X connect 10 0 11 0;
#X connect 11 0 13 0;
#X connect 12 0 10 1;
#X connect 13 0 14 0;
#X connect 14 0 6 0;
#X connect 14 1 4 0;
#X connect 16 0 24 0;
#X connect 17 0 22 0;
#X connect 18 0 19 0;
#X connect 18 1 20 0;
#X connect 19 0 21 0;
#X connect 20 0 19 1;
#X connect 22 0 18 0;
#X connect 23 0 5 0;
#X connect 28 0 4 0;
