#N canvas -8 44 1920 976 12;
#X obj 132 148 bng 15 250 50 0 empty empty empty 17 7 0 10 #fcfcfc
#000000 #000000;
#X obj 112 147 bng 15 250 50 0 empty empty empty 17 7 0 10 #fcfcfc
#000000 #000000;
#X obj 151 147 bng 15 250 50 0 empty empty empty 17 7 0 10 #fcfcfc
#000000 #000000;
#X obj 171 147 bng 15 250 50 0 empty empty empty 17 7 0 10 #fcfcfc
#000000 #000000;
#X obj 111 90 sel 0 1 2 3, f 21;
#X obj 108 220 mel_pattern, f 26;
#X obj 176 354 mel_pattern, f 26;
#X obj 109 190 waitAndBang;
#X obj 108 268 mtof;
#X obj 179 327 waitAndBang;
#X obj 176 411 mtof;
#X obj 261 488 mel_pattern, f 26;
#X obj 262 458 waitAndBang;
#X obj 260 539 mtof;
#X obj 359 585 mel_pattern, f 26;
#X obj 360 555 waitAndBang;
#X obj 359 634 mtof;
#X obj 196 695 outlet;
#X obj 111 39 inlet;
#X obj 280 39 inlet;
#X msg 714 114 0 0 64 65 69 0 0 0 0 0 0 0 0 0 0 0;
#X msg 714 138 0 0 0 0 0 0 0 0 0 0 67 65 62 0 0 0;
#X msg 714 162 0 0 0 0 0 0 81 0 0 0 0 0 0 0 0 0;
#X msg 712 184 0 0 0 0 0 0 0 0 0 0 0 0 0 57 0 0;
#X msg 711 279 0 0 0 0 0 0 0 72 64 62 0 0 0 0 0 0;
#X msg 710 307 77 0 0 0 79 0 76 0 0 0 0 0 0 0 0 0;
#X msg 709 332 0 0 77 0 0 79 0 0 0 0 0 0 0 0 0 0;
#X obj 1290 29 inlet;
#X text 108 11 activate;
#X text 282 13 delay;
#X text 1291 5 pattern pack selection;
#X obj 1290 53 sel 0 1 2 3;
#X msg 705 416 0 0 0 0 0 0 0 0 0 0 0 0 67 0 0 0;
#X msg 703 437 0 74 76 0 0 0 0 0 0 0 0 0 0 0 0 0;
#X msg 703 462 0 0 0 0 0 0 0 0 65 0 0 0 0 0 0 0;
#X msg 708 601 0 0 53 0 0 0 55 0 0 0 0 0 0 0 0 0;
#X msg 705 392 50 0 0 0 57 0 0 0 0 0 0 0 0 0 0 0;
#X msg 709 573 38 0 0 45 0 0 0 0 0 0 0 0 0 0 0 0;
#X msg 709 549 0 0 0 0 0 0 0 0 0 0 0 0 0 0 88 89;
#X msg 708 626 0 0 0 0 0 0 0 0 0 0 0 0 0 72 74 0;
#X msg 711 255 74 0 0 72 0 0 0 0 0 0 0 0 0 0 0 0;
#X connect 0 0 9 0;
#X connect 1 0 7 0;
#X connect 2 0 12 0;
#X connect 3 0 15 0;
#X connect 4 0 1 0;
#X connect 4 1 0 0;
#X connect 4 2 2 0;
#X connect 4 3 3 0;
#X connect 5 0 8 0;
#X connect 6 0 10 0;
#X connect 7 0 5 0;
#X connect 8 0 17 0;
#X connect 9 0 6 0;
#X connect 10 0 17 0;
#X connect 11 0 13 0;
#X connect 12 0 11 0;
#X connect 13 0 17 0;
#X connect 14 0 16 0;
#X connect 15 0 14 0;
#X connect 16 0 17 0;
#X connect 18 0 4 0;
#X connect 19 0 7 1;
#X connect 19 0 9 1;
#X connect 19 0 12 1;
#X connect 19 0 15 1;
#X connect 20 0 5 2;
#X connect 21 0 6 2;
#X connect 22 0 11 2;
#X connect 23 0 14 2;
#X connect 24 0 6 2;
#X connect 25 0 11 2;
#X connect 26 0 14 2;
#X connect 27 0 31 0;
#X connect 31 0 20 0;
#X connect 31 0 21 0;
#X connect 31 0 22 0;
#X connect 31 0 23 0;
#X connect 31 1 40 0;
#X connect 31 1 24 0;
#X connect 31 1 25 0;
#X connect 31 1 26 0;
#X connect 31 2 36 0;
#X connect 31 2 32 0;
#X connect 31 2 33 0;
#X connect 31 2 34 0;
#X connect 31 3 38 0;
#X connect 31 3 37 0;
#X connect 31 3 35 0;
#X connect 31 3 39 0;
#X connect 32 0 6 2;
#X connect 33 0 11 2;
#X connect 34 0 14 2;
#X connect 35 0 11 2;
#X connect 36 0 5 2;
#X connect 37 0 6 2;
#X connect 38 0 5 2;
#X connect 39 0 14 2;
#X connect 40 0 5 2;
