#N canvas 1067 347 557 437 12;
#N canvas 0 50 450 250 (subpatch) 0;
#X array \$0-pitches 16 float 3;
#A 0 62 0 0 0 57 0 0 0 0 0 0 0 0 0 0 0;
#X coords 0 90 16 0 200 50 1 0 0;
#X restore 284 305 graph;
#X obj 285 63 inlet;
#X obj 31 235 hradio 15 1 0 16 empty empty empty 0 -8 0 10 #fcfcfc
#000000 #000000 0;
#X obj 31 274 trigger f f;
#X obj 31 314 spigot;
#X obj 105 295 > 0;
#X obj 31 348 outlet;
#X obj 31 252 array get \$0-pitches;
#X obj 285 268 array set \$0-pitches;
#X text 326 63 pitches;
#X text 86 352 frequency output;
#N canvas 0 25 1440 776 counter 0;
#X obj 93 153 f;
#X obj 159 160 + 1;
#X msg 109 124 0;
#X text 147 122 Resetter to index 0;
#X obj 111 64 sel 0;
#X obj 82 21 inlet toggle;
#X obj 225 26 inlet speed;
#X obj 92 231 outlet cnt;
#X obj 93 91 metro 144;
#X obj 95 190 % 16;
#X connect 0 0 1 0;
#X connect 0 0 9 0;
#X connect 1 0 0 1;
#X connect 2 0 0 1;
#X connect 4 0 2 0;
#X connect 5 0 4 0;
#X connect 5 0 8 0;
#X connect 6 0 8 1;
#X connect 8 0 0 0;
#X connect 9 0 7 0;
#X restore 31 93 pd counter;
#X obj 31 75 tgl 15 0 empty empty empty 17 7 0 10 #fcfcfc #000000 #000000
0 1;
#X obj 31 35 inlet;
#X obj 109 157 sel 1;
#X obj 109 179 bng 15 250 50 0 empty empty empty 17 7 0 10 #fcfcfc
#000000 #000000;
#X obj 109 136 == 16;
#X obj 109 115 + 1;
#X obj 109 196 outlet;
#X obj 141 31 inlet;
#X obj 31 57 bng 15 250 50 0 empty empty empty 17 7 0 10 #fcfcfc #000000
#000000;
#X obj 121 69 r pulse;
#X text 158 196 jump;
#X text 182 31 length;
#X text 70 34 start;
#X connect 1 0 8 0;
#X connect 2 0 7 0;
#X connect 3 0 4 0;
#X connect 3 1 5 0;
#X connect 4 0 6 0;
#X connect 5 0 4 1;
#X connect 7 0 3 0;
#X connect 11 0 17 0;
#X connect 11 0 2 0;
#X connect 12 0 11 0;
#X connect 13 0 20 0;
#X connect 14 0 15 0;
#X connect 15 0 18 0;
#X connect 15 0 12 0;
#X connect 16 0 14 0;
#X connect 17 0 16 0;
#X connect 19 0 16 1;
#X connect 20 0 12 0;
#X connect 21 0 11 1;
