#N canvas 1 25 1377 719 12;
#X obj 27 49 sel do1 do#1 reb1 re1 re#1 mib1 mi1 fa1 fa#1 solb1 sol1
sol#1 lab1 la1 la#1 sib1 si1 do2 do#2 reb2 re2 re#2 mib2 mi2 fa2 fa#2
solb2 sol2 sol#2 lab2 la2 la#2 sib2 si2 do3 do#3 reb3 re3 re#3 mib3
mi3 fa3 fa#3 solb3 sol3 sol#3 lab3 la3 la#3 sib3 si3 do4 do#4 reb4
re4 re#4 mib4 mi4 fa4 fa#4 solb4 sol4 sol#4 lab4 la4 la#4 sib4 si4
, f 183;
#X msg -5 157 36, f 1;
#X msg 24 129 37, f 1;
#X msg 54 157 38, f 1;
#X msg 83 128 39, f 1;
#X msg 114 157 40, f 1;
#X msg 144 157 41, f 1;
#X msg 171 127 42, f 1;
#X msg 201 157 43, f 1;
#X msg 231 123 44, f 1;
#X msg 261 157 45, f 1;
#X msg 292 123 46, f 1;
#X msg 321 157 47, f 1;
#X msg 352 199 48, f 1;
#X msg 381 173 49, f 1;
#X msg 410 200 50, f 1;
#X msg 439 173 51, f 1;
#X msg 470 200 52, f 1;
#X msg 500 200 53, f 1;
#X msg 526 167 54, f 1;
#X msg 557 200 55, f 1;
#X msg 586 166 56, f 1;
#X msg 617 200 57, f 1;
#X msg 646 165 58, f 1;
#X msg 677 200 59, f 1;
#X msg 713 199 60, f 1;
#X msg 741 168 61, f 1;
#X msg 771 200 62, f 1;
#X msg 801 165 63, f 1;
#X msg 829 200 64, f 1;
#X msg 858 200 65, f 1;
#X msg 888 161 66, f 1;
#X msg 918 200 67, f 1;
#X msg 949 160 68, f 1;
#X msg 978 200 69, f 1;
#X msg 1013 160 70, f 1;
#X msg 1044 198 71, f 1;
#X msg 1092 194 72, f 1;
#X msg 1120 163 73, f 1;
#X msg 1150 195 74, f 1;
#X msg 1180 160 75, f 1;
#X msg 1208 195 76, f 1;
#X msg 1237 195 77, f 1;
#X msg 1267 156 78, f 1;
#X msg 1297 195 79, f 1;
#X msg 1328 155 80, f 1;
#X msg 1357 195 81, f 1;
#X msg 1392 155 82, f 1;
#X msg 1423 193 83, f 1;
#X obj 26 13 inlet;
#X text 75 14 note symbol;
#X obj 637 387 outlet;
#X connect 0 0 1 0;
#X connect 0 1 2 0;
#X connect 0 2 2 0;
#X connect 0 3 3 0;
#X connect 0 4 4 0;
#X connect 0 5 4 0;
#X connect 0 6 5 0;
#X connect 0 7 6 0;
#X connect 0 8 7 0;
#X connect 0 9 7 0;
#X connect 0 10 8 0;
#X connect 0 11 9 0;
#X connect 0 12 9 0;
#X connect 0 13 10 0;
#X connect 0 14 11 0;
#X connect 0 15 11 0;
#X connect 0 16 12 0;
#X connect 0 17 13 0;
#X connect 0 18 14 0;
#X connect 0 19 14 0;
#X connect 0 20 15 0;
#X connect 0 21 16 0;
#X connect 0 22 16 0;
#X connect 0 23 17 0;
#X connect 0 24 18 0;
#X connect 0 25 19 0;
#X connect 0 26 19 0;
#X connect 0 27 20 0;
#X connect 0 28 21 0;
#X connect 0 29 21 0;
#X connect 0 30 22 0;
#X connect 0 31 23 0;
#X connect 0 32 23 0;
#X connect 0 33 24 0;
#X connect 0 34 25 0;
#X connect 0 35 26 0;
#X connect 0 36 26 0;
#X connect 0 37 27 0;
#X connect 0 38 28 0;
#X connect 0 39 28 0;
#X connect 0 40 29 0;
#X connect 0 41 30 0;
#X connect 0 42 31 0;
#X connect 0 43 31 0;
#X connect 0 44 32 0;
#X connect 0 45 33 0;
#X connect 0 46 33 0;
#X connect 0 47 34 0;
#X connect 0 48 35 0;
#X connect 0 49 35 0;
#X connect 0 50 36 0;
#X connect 0 51 37 0;
#X connect 0 52 38 0;
#X connect 0 53 38 0;
#X connect 0 54 39 0;
#X connect 0 55 40 0;
#X connect 0 56 40 0;
#X connect 0 57 41 0;
#X connect 0 58 42 0;
#X connect 0 59 43 0;
#X connect 0 60 43 0;
#X connect 0 61 44 0;
#X connect 0 62 45 0;
#X connect 0 63 45 0;
#X connect 0 64 46 0;
#X connect 0 65 47 0;
#X connect 0 66 47 0;
#X connect 0 67 48 0;
#X connect 1 0 51 0;
#X connect 2 0 51 0;
#X connect 3 0 51 0;
#X connect 4 0 51 0;
#X connect 5 0 51 0;
#X connect 6 0 51 0;
#X connect 7 0 51 0;
#X connect 8 0 51 0;
#X connect 9 0 51 0;
#X connect 10 0 51 0;
#X connect 11 0 51 0;
#X connect 12 0 51 0;
#X connect 13 0 51 0;
#X connect 14 0 51 0;
#X connect 15 0 51 0;
#X connect 16 0 51 0;
#X connect 17 0 51 0;
#X connect 18 0 51 0;
#X connect 19 0 51 0;
#X connect 20 0 51 0;
#X connect 21 0 51 0;
#X connect 22 0 51 0;
#X connect 23 0 51 0;
#X connect 24 0 51 0;
#X connect 25 0 51 0;
#X connect 26 0 51 0;
#X connect 27 0 51 0;
#X connect 28 0 51 0;
#X connect 29 0 51 0;
#X connect 30 0 51 0;
#X connect 31 0 51 0;
#X connect 32 0 51 0;
#X connect 33 0 51 0;
#X connect 34 0 51 0;
#X connect 35 0 51 0;
#X connect 36 0 51 0;
#X connect 37 0 51 0;
#X connect 38 0 51 0;
#X connect 39 0 51 0;
#X connect 40 0 51 0;
#X connect 41 0 51 0;
#X connect 42 0 51 0;
#X connect 43 0 51 0;
#X connect 44 0 51 0;
#X connect 45 0 51 0;
#X connect 46 0 51 0;
#X connect 47 0 51 0;
#X connect 48 0 51 0;
#X connect 49 0 0 0;
