#N canvas 338 7 1920 976 12;
#X msg 10 46 connect 127.0.0.1 3000;
#X text 5 26 Once Processing is running click on this message.;
#X obj 506 252 print;
#X obj 415 153 udpreceive 57120;
#X obj 415 177 unpackOSC /probability;
#X obj 415 204 routeOSC /probability;
#X obj 593 174 unpackOSC /probability2;
#X obj 593 201 routeOSC /probability2;
#X obj 75 477 udpsend;
#X obj 89 440 packOSC;
#X msg 89 416 /new_clock 1;
#X obj 190 450 packOSC;
#X msg 190 426 /new_clock2 1;
#X obj 412 256 unpack f f;
#X obj 607 247 unpack f f;
#X obj 463 300 s cluster1;
#X obj 403 299 s boid1;
#X obj 598 287 s boid2;
#X obj 658 288 s cluster2;
#X obj 989 15 tgl 20 0 empty empty ON/OFF 17 7 0 10 #fcfcfc #000000
#000000 0 1;
#X floatatom 1072 57 5 0 0 0 - - - 0;
#X obj 991 117 bng 15 250 50 0 empty empty empty 17 7 0 10 #fcfcfc
#000000 #000000;
#X obj 1089 83 s dur;
#X obj 937 77 s tog;
#X obj 341 229 r dur;
#X obj 1071 8 loadbang;
#X text 76 103 OSC MESSAGES;
#X text 824 16 GLOBAL METRO;
#X obj 991 150 s beat;
#X obj 991 77 metro 4000;
#X text 333 367 Rhythms;
#X obj 200 228 r jump;
#X msg 1074 31 500;
#X obj 482 415 rh_pattern, f 26;
#X obj 480 457 clave;
#X msg 188 279 1;
#X obj 154 334 f;
#X floatatom 175 308 5 0 0 0 - - - 0;
#X msg 187 334 0;
#X obj 72 306 metro;
#X obj 72 330 t b b;
#X obj 105 364 spigot;
#X obj 481 369 tgl 15 0 empty empty empty 17 7 0 10 #fcfcfc #000000
#000000 0 1;
#X floatatom 569 371 5 0 0 0 - - - 0;
#X obj 508 369 r boid1;
#X floatatom 616 374 5 0 0 0 - - - 0;
#X msg 580 337 1 0 0 0 0 0 0 0 1 0 0 0 0 0 0 0;
#X obj 125 392 bng 15 250 50 0 empty empty empty 17 7 0 10 #fcfcfc
#000000 #000000;
#X obj 648 446 s jump;
#X obj 617 451 bng 15 250 50 0 empty empty empty 17 7 0 10 #fcfcfc
#000000 #000000;
#X obj 119 240 r pulse;
#X obj 1072 110 / 4;
#X obj 1086 141 s pulse;
#X obj 170 366 tgl 15 0 empty empty empty 17 7 0 10 #fcfcfc #000000
#000000 0 1;
#X obj 69 267 tgl 20 0 empty empty ON/OFF 17 7 0 10 #fcfcfc #000000
#000000 0 1;
#X obj 71 225 r tog;
#X obj 843 416 rh_pattern, f 26;
#X obj 841 458 clave;
#X obj 842 370 tgl 15 0 empty empty empty 17 7 0 10 #fcfcfc #000000
#000000 0 1;
#X floatatom 930 372 5 0 0 0 - - - 0;
#X obj 869 370 r boid1;
#X floatatom 977 375 5 0 0 0 - - - 0;
#X obj 1009 447 s jump;
#X obj 978 452 bng 15 250 50 0 empty empty empty 17 7 0 10 #fcfcfc
#000000 #000000;
#X floatatom 528 440 5 0 0 0 - - - 0;
#X obj 1204 416 rh_pattern, f 26;
#X obj 1202 458 clave;
#X obj 1203 370 tgl 15 0 empty empty empty 17 7 0 10 #fcfcfc #000000
#000000 0 1;
#X floatatom 1291 372 5 0 0 0 - - - 0;
#X obj 1230 370 r boid1;
#X floatatom 1338 375 5 0 0 0 - - - 0;
#X obj 1370 447 s jump;
#X obj 1339 452 bng 15 250 50 0 empty empty empty 17 7 0 10 #fcfcfc
#000000 #000000;
#X floatatom 893 442 5 0 0 0 - - - 0;
#X msg 941 338 1 0 1 0 0 0 1 0 1 0 0 1 0 0 0 0;
#X msg 1302 338 1 0 1 0 1 0 1 1 0 0 1 0 0 0 1;
#X floatatom 1262 440 5 0 0 0 - - - 0;
#X obj 1229 136 f;
#X obj 1262 136 + 1;
#X obj 1229 160 % 2;
#X obj 1228 191 sel 0 1;
#X obj 467 624 rh_pattern, f 26;
#X obj 465 666 clave;
#X obj 466 578 tgl 15 0 empty empty empty 17 7 0 10 #fcfcfc #000000
#000000 0 1;
#X floatatom 554 580 5 0 0 0 - - - 0;
#X obj 493 578 r boid1;
#X floatatom 601 583 5 0 0 0 - - - 0;
#X msg 565 546 1 0 0 0 0 0 0 0 1 0 0 0 0 0 0 0;
#X obj 633 655 s jump;
#X obj 602 660 bng 15 250 50 0 empty empty empty 17 7 0 10 #fcfcfc
#000000 #000000;
#X obj 828 625 rh_pattern, f 26;
#X obj 826 667 clave;
#X obj 827 579 tgl 15 0 empty empty empty 17 7 0 10 #fcfcfc #000000
#000000 0 1;
#X floatatom 915 581 5 0 0 0 - - - 0;
#X obj 854 579 r boid1;
#X floatatom 962 584 5 0 0 0 - - - 0;
#X obj 994 656 s jump;
#X obj 963 661 bng 15 250 50 0 empty empty empty 17 7 0 10 #fcfcfc
#000000 #000000;
#X floatatom 513 649 5 0 0 0 - - - 0;
#X obj 1189 625 rh_pattern, f 26;
#X obj 1187 667 clave;
#X obj 1188 579 tgl 15 0 empty empty empty 17 7 0 10 #fcfcfc #000000
#000000 0 1;
#X floatatom 1276 581 5 0 0 0 - - - 0;
#X obj 1215 579 r boid1;
#X floatatom 1323 584 5 0 0 0 - - - 0;
#X obj 1355 656 s jump;
#X obj 1324 661 bng 15 250 50 0 empty empty empty 17 7 0 10 #fcfcfc
#000000 #000000;
#X floatatom 878 651 5 0 0 0 - - - 0;
#X msg 926 547 1 0 1 0 0 0 1 0 1 0 0 1 0 0 0 0;
#X msg 1287 547 1 0 1 0 1 0 1 1 0 0 1 0 0 0 1;
#X floatatom 1247 649 5 0 0 0 - - - 0;
#X obj 1209 255 kick;
#X obj 1251 254 snare;
#X obj 1212 300 dac~;
#X floatatom 1301 208 5 0 0 0 - - - 0;
#X obj 1198 68 spigot;
#X obj 1268 19 tgl 20 0 empty empty ON/OFF 17 7 0 10 #fcfcfc #000000
#000000 0 1;
#X connect 0 0 8 0;
#X connect 3 0 4 0;
#X connect 3 0 6 0;
#X connect 4 0 5 0;
#X connect 5 0 2 0;
#X connect 5 0 13 0;
#X connect 6 0 7 0;
#X connect 7 0 2 0;
#X connect 7 0 14 0;
#X connect 9 0 8 0;
#X connect 10 0 9 0;
#X connect 11 0 8 0;
#X connect 12 0 11 0;
#X connect 13 0 16 0;
#X connect 13 1 15 0;
#X connect 14 0 17 0;
#X connect 14 1 18 0;
#X connect 19 0 23 0;
#X connect 19 0 29 0;
#X connect 20 0 29 1;
#X connect 20 0 22 0;
#X connect 20 0 51 0;
#X connect 21 0 28 0;
#X connect 21 0 115 0;
#X connect 25 0 32 0;
#X connect 29 0 21 0;
#X connect 31 0 35 0;
#X connect 32 0 20 0;
#X connect 33 0 34 0;
#X connect 33 1 48 0;
#X connect 33 1 49 0;
#X connect 35 0 37 0;
#X connect 36 0 38 0;
#X connect 36 0 41 1;
#X connect 36 0 53 0;
#X connect 37 0 36 1;
#X connect 38 0 37 0;
#X connect 39 0 40 0;
#X connect 40 0 41 0;
#X connect 40 1 36 0;
#X connect 41 0 10 0;
#X connect 41 0 47 0;
#X connect 42 0 33 0;
#X connect 43 0 33 2;
#X connect 44 0 33 1;
#X connect 45 0 33 3;
#X connect 46 0 33 4;
#X connect 50 0 39 1;
#X connect 51 0 52 0;
#X connect 54 0 39 0;
#X connect 54 0 10 0;
#X connect 55 0 54 0;
#X connect 56 0 57 0;
#X connect 56 1 62 0;
#X connect 56 1 63 0;
#X connect 58 0 56 0;
#X connect 59 0 56 2;
#X connect 60 0 56 1;
#X connect 61 0 56 3;
#X connect 64 0 34 1;
#X connect 65 0 66 0;
#X connect 65 1 71 0;
#X connect 65 1 72 0;
#X connect 67 0 65 0;
#X connect 68 0 65 2;
#X connect 69 0 65 1;
#X connect 70 0 65 3;
#X connect 73 0 57 1;
#X connect 74 0 56 4;
#X connect 75 0 65 4;
#X connect 76 0 66 1;
#X connect 77 0 78 0;
#X connect 77 0 79 0;
#X connect 78 0 77 1;
#X connect 79 0 80 0;
#X connect 80 0 111 0;
#X connect 80 1 112 0;
#X connect 81 0 82 0;
#X connect 81 1 88 0;
#X connect 81 1 89 0;
#X connect 83 0 81 0;
#X connect 84 0 81 2;
#X connect 85 0 81 1;
#X connect 86 0 81 3;
#X connect 87 0 81 4;
#X connect 90 0 91 0;
#X connect 90 1 96 0;
#X connect 90 1 97 0;
#X connect 92 0 90 0;
#X connect 93 0 90 2;
#X connect 94 0 90 1;
#X connect 95 0 90 3;
#X connect 98 0 82 1;
#X connect 99 0 100 0;
#X connect 99 1 105 0;
#X connect 99 1 106 0;
#X connect 101 0 99 0;
#X connect 102 0 99 2;
#X connect 103 0 99 1;
#X connect 104 0 99 3;
#X connect 107 0 91 1;
#X connect 108 0 90 4;
#X connect 109 0 99 4;
#X connect 110 0 100 1;
#X connect 111 0 113 0;
#X connect 111 0 113 1;
#X connect 112 0 113 1;
#X connect 112 0 113 0;
#X connect 114 0 111 1;
#X connect 114 0 112 1;
#X connect 115 0 77 0;
#X connect 116 0 115 1;
