#N canvas 40 69 1920 976 12;
#X msg 10 46 connect 127.0.0.1 3000;
#X text 5 26 Once Processing is running click on this message.;
#X obj 475 113 print;
#X obj 384 14 udpreceive 57120;
#X obj 384 38 unpackOSC /probability;
#X obj 384 65 routeOSC /probability;
#X obj 562 35 unpackOSC /probability2;
#X obj 562 62 routeOSC /probability2;
#X obj 655 236 t f;
#X floatatom 657 267 5 0 0 0 - - - 0;
#X floatatom 546 277 5 0 0 0 - - - 0;
#X obj 83 423 udpsend;
#X obj 97 386 packOSC;
#X msg 97 362 /new_clock 1;
#X obj 198 396 packOSC;
#X msg 198 372 /new_clock2 1;
#X obj 520 375 osc~;
#X obj 520 399 *~ 0.1;
#X obj 518 444 dac~;
#X obj 704 377 osc~;
#X obj 704 401 *~ 0.1;
#X msg 705 343 500;
#X msg 738 343 600;
#X msg 772 344 800;
#X msg 848 344 1100;
#X msg 883 344 1200;
#X msg 807 344 400;
#X floatatom 488 306 5 0 0 0 - - - 0;
#X floatatom 467 384 5 0 0 0 - - - 0;
#X obj 527 343 *;
#X obj 525 249 t b f;
#X obj 545 305 % 7;
#X obj 657 298 % 7;
#X floatatom 559 335 5 0 0 0 - - - 0;
#X floatatom 660 369 5 0 0 0 - - - 0;
#X obj 704 318 route 0 1 2 3 4 5;
#X obj 381 117 unpack f f;
#X obj 576 108 unpack f f;
#X obj 432 161 s cluster1;
#X obj 372 160 s boid1;
#X obj 567 148 s boid2;
#X obj 627 149 s cluster2;
#X obj 525 207 r boid1;
#X obj 657 203 r boid2;
#X obj 798 12 tgl 20 0 empty empty ON/OFF 17 7 0 10 #fcfcfc #000000
#000000 0 1;
#X floatatom 576 376 5 0 0 0 - - - 0;
#X floatatom 881 54 5 0 0 0 - - - 0;
#X obj 800 114 bng 15 250 50 0 empty empty empty 17 7 0 10 #fcfcfc
#000000 #000000;
#X obj 883 80 s dur;
#X obj 746 74 s tog;
#X obj 800 74 metro 1000;
#X obj 183 148 r dur;
#X obj 113 178 expr $f2 / $f1;
#X floatatom 124 153 5 0 0 0 - - - 0;
#X floatatom 115 205 5 0 0 0 - - - 0;
#X obj 80 228 metro;
#X obj 65 195 r tog;
#X obj 97 263 bng 15 250 50 0 empty empty empty 17 7 0 10 #fcfcfc #000000
#000000;
#X obj 296 172 r dur;
#X obj 232 201 expr $f2 / $f1;
#X floatatom 244 174 5 0 0 0 - - - 0;
#X floatatom 232 225 5 0 0 0 - - - 0;
#X obj 199 249 metro;
#X obj 184 217 r tog;
#X obj 203 284 bng 15 250 50 0 empty empty empty 17 7 0 10 #fcfcfc
#000000 #000000;
#X obj 119 100 r cluster1;
#X obj 243 116 r cluster2;
#X obj 880 5 loadbang;
#X msg 880 29 1000;
#X obj 800 147 s tog;
#X connect 0 0 11 0;
#X connect 3 0 4 0;
#X connect 3 0 6 0;
#X connect 4 0 5 0;
#X connect 5 0 2 0;
#X connect 5 0 36 0;
#X connect 6 0 7 0;
#X connect 7 0 2 0;
#X connect 7 0 37 0;
#X connect 8 0 9 0;
#X connect 9 0 32 0;
#X connect 10 0 31 0;
#X connect 12 0 11 0;
#X connect 13 0 12 0;
#X connect 14 0 11 0;
#X connect 15 0 14 0;
#X connect 16 0 17 0;
#X connect 17 0 18 0;
#X connect 17 0 18 1;
#X connect 19 0 20 0;
#X connect 21 0 19 0;
#X connect 22 0 19 0;
#X connect 23 0 19 0;
#X connect 24 0 19 0;
#X connect 25 0 19 0;
#X connect 26 0 19 0;
#X connect 27 0 29 0;
#X connect 29 0 16 0;
#X connect 29 0 28 0;
#X connect 30 0 29 0;
#X connect 30 1 10 0;
#X connect 31 0 29 1;
#X connect 31 0 33 0;
#X connect 32 0 34 0;
#X connect 32 0 35 0;
#X connect 35 0 21 0;
#X connect 35 1 22 0;
#X connect 35 2 23 0;
#X connect 35 3 26 0;
#X connect 35 4 24 0;
#X connect 35 5 25 0;
#X connect 36 0 39 0;
#X connect 36 1 38 0;
#X connect 37 0 40 0;
#X connect 37 1 41 0;
#X connect 42 0 30 0;
#X connect 43 0 8 0;
#X connect 44 0 49 0;
#X connect 44 0 50 0;
#X connect 45 0 17 1;
#X connect 46 0 48 0;
#X connect 46 0 50 1;
#X connect 47 0 69 0;
#X connect 50 0 47 0;
#X connect 51 0 52 1;
#X connect 52 0 54 0;
#X connect 53 0 52 0;
#X connect 54 0 55 1;
#X connect 55 0 57 0;
#X connect 56 0 55 0;
#X connect 57 0 13 0;
#X connect 58 0 59 1;
#X connect 59 0 61 0;
#X connect 60 0 59 0;
#X connect 61 0 62 1;
#X connect 62 0 64 0;
#X connect 63 0 62 0;
#X connect 64 0 15 0;
#X connect 65 0 53 0;
#X connect 66 0 60 0;
#X connect 67 0 68 0;
#X connect 68 0 46 0;
