#N canvas 0 25 1920 976 12;
#X obj 102 143 tgl 20 0 empty empty ON/OFF 17 7 0 10 #fcfcfc #000000
#000000 0 1;
#X floatatom 185 265 5 0 0 0 - - - 0;
#X obj 104 309 bng 15 250 50 0 empty empty empty 17 7 0 10 #fcfcfc
#000000 #000000;
#X obj 191 291 s dur;
#X obj 184 141 loadbang;
#X text 12 143 GLOBAL METRO;
#X obj 104 348 s beat;
#X obj 104 285 metro 4000;
#X text 715 -54 Rhythms;
#X obj 185 313 / 4;
#X obj 185 353 s pulse;
#X msg 759 -33 1 0 1 0 1 0 1 1 0 0 1 0 0 0 1;
#X obj 201 530 f;
#X obj 234 530 + 1;
#X obj 201 554 % 2;
#X obj 200 585 sel 0 1;
#X msg 759 -11 1 0 1 0 0 0 1 0 1 0 0 1 0 0 0 0;
#X obj 181 649 kick;
#X obj 184 694 dac~;
#X floatatom 273 602 5 0 0 0 - - - 0;
#X obj 170 462 spigot;
#X obj 240 413 tgl 20 0 empty empty ON/OFF 17 7 0 10 #fcfcfc #000000
#000000 0 1;
#X obj 496 680 dac~;
#X obj 19 28 Processing2Pure, f 40;
#X text 98 -1 change the port;
#X msg 19 0 port 57120;
#X msg 674 134 1 1 1 0 0 0 0 0 1 0 0 0 0 0 0 0;
#X obj 495 187 sample;
#X obj 231 227 * 60000;
#X floatatom 231 182 5 0 0 0 - - - 0;
#X obj 231 204 expr 1/$f1;
#X text 269 182 BPM;
#X text 224 264 ms;
#X msg 184 163 120;
#X obj 102 176 s GlobalTog;
#N canvas -75 171 1920 976 Clocks 0;
#X obj 53 119 r GlobalTog;
#X obj 137 119 r pulse;
#X obj 54 291 r GlobalTog;
#X obj 138 291 r pulse;
#X obj 51 451 r GlobalTog;
#X obj 135 451 r pulse;
#X obj 51 595 r GlobalTog;
#X obj 135 595 r pulse;
#X obj 441 129 clock2Processing, f 33;
#X obj 8 54 inlet;
#X obj 193 119 r jump0;
#X obj 194 291 r jump1;
#X obj 191 595 r jump3;
#X obj 12 157 cellClock0;
#X obj 13 329 cellClock1;
#X obj 10 489 cellClock2;
#X obj 10 633 cellClock3;
#X obj 191 451 r jump2;
#X connect 0 0 13 1;
#X connect 1 0 13 2;
#X connect 2 0 14 1;
#X connect 3 0 14 2;
#X connect 4 0 15 1;
#X connect 5 0 15 2;
#X connect 6 0 16 1;
#X connect 7 0 16 2;
#X connect 9 0 8 0;
#X connect 9 0 13 0;
#X connect 9 0 14 0;
#X connect 9 0 15 0;
#X connect 9 0 16 0;
#X connect 10 0 13 3;
#X connect 11 0 14 3;
#X connect 12 0 16 3;
#X connect 17 0 15 3;
#X restore 19 -39 pd Clocks;
#X msg 18 -60 connect 127.0.0.1 3000;
#X text 13 -80 Once Processing is running click on this message.;
#X floatatom 584 132 5 0 16 0 - - - 0;
#X obj 547 306 sample;
#X floatatom 636 251 5 0 16 0 - - - 0;
#X obj 636 425 sample;
#X floatatom 725 370 5 0 16 0 - - - 0;
#X obj 734 528 sample;
#X floatatom 823 473 5 0 16 0 - - - 0;
#X msg 726 253 1 0 1 0 1 0 1 1 0 0 1 0 0 0 1;
#X msg 815 372 1 0 1 0 1 0 1 0 1 0 0 1 0 0 0 0;
#X msg 913 475 1 0 0 0 0 0 0 0 1 0 0 0 0 0 0 0;
#X obj 515 105 bng 15 250 50 0 empty empty empty 17 7 0 10 #fcfcfc
#000000 #000000;
#X obj 495 104 bng 15 250 50 0 empty empty empty 17 7 0 10 #fcfcfc
#000000 #000000;
#X obj 534 104 bng 15 250 50 0 empty empty empty 17 7 0 10 #fcfcfc
#000000 #000000;
#X obj 554 104 bng 15 250 50 0 empty empty empty 17 7 0 10 #fcfcfc
#000000 #000000;
#X obj 1220 128 bng 15 250 50 0 empty empty empty 17 7 0 10 #fcfcfc
#000000 #000000;
#X obj 1200 127 bng 15 250 50 0 empty empty empty 17 7 0 10 #fcfcfc
#000000 #000000;
#X obj 1239 127 bng 15 250 50 0 empty empty empty 17 7 0 10 #fcfcfc
#000000 #000000;
#X obj 1259 127 bng 15 250 50 0 empty empty empty 17 7 0 10 #fcfcfc
#000000 #000000;
#X obj 1201 196 sample;
#X floatatom 1290 141 5 0 16 0 - - - 0;
#X obj 1218 664 dac~;
#X msg 1380 143 1 0 1 0 0 0 1 0 1 0 0 1 0 0 0 0;
#X obj 1270 307 sample;
#X floatatom 1359 252 5 0 16 0 - - - 0;
#X msg 1449 254 1 0 1 0 1 0 1 1 0 0 1 0 0 0 1 0;
#X obj 1313 439 sample;
#X floatatom 1402 384 5 0 16 0 - - - 0;
#X msg 1492 386 1 0 1 0 1 0 1 1 0 0 1 0 0 0 1 0;
#X obj 1350 549 sample;
#X floatatom 1439 494 5 0 16 0 - - - 0;
#X msg 1529 496 1 1 1 0 1 0 1 1 0 0 1 0 0 0 1 0;
#X obj 495 162 rh_pattern2, f 26;
#X obj 547 281 rh_pattern2, f 26;
#X obj 636 400 rh_pattern2, f 26;
#X obj 734 503 rh_pattern2, f 26;
#X obj 1201 171 rh_pattern2, f 26;
#X obj 1270 282 rh_pattern2, f 26;
#X obj 1313 414 rh_pattern2, f 26;
#X obj 1350 524 rh_pattern2, f 26;
#X obj 1201 74 % 4;
#X obj 1200 102 sel 0 1 2 3, f 21;
#X obj 493 -3 r plAbs0;
#X obj 1199 17 r plAbs1;
#X obj 674 185 s jump0;
#X obj 726 304 s jump0;
#X obj 815 423 s jump0;
#X obj 913 526 s jump0;
#X obj 1380 194 s jump1;
#X obj 1449 305 s jump1;
#X obj 1492 437 s jump1;
#X obj 1529 547 s jump1;
#X obj 505 1451 dac~;
#X msg 683 905 1 1 1 0 0 0 0 0 1 0 0 0 0 0 0 0;
#X obj 504 958 sample;
#X floatatom 593 903 5 0 16 0 - - - 0;
#X obj 556 1077 sample;
#X floatatom 645 1022 5 0 16 0 - - - 0;
#X obj 645 1196 sample;
#X floatatom 734 1141 5 0 16 0 - - - 0;
#X obj 743 1299 sample;
#X floatatom 832 1244 5 0 16 0 - - - 0;
#X msg 735 1024 1 0 1 0 1 0 1 1 0 0 1 0 0 0 1;
#X msg 824 1143 1 0 1 0 1 0 1 0 1 0 0 1 0 0 0 0;
#X msg 922 1246 1 0 0 0 0 0 0 0 1 0 0 0 0 0 0 0;
#X obj 524 876 bng 15 250 50 0 empty empty empty 17 7 0 10 #fcfcfc
#000000 #000000;
#X obj 504 875 bng 15 250 50 0 empty empty empty 17 7 0 10 #fcfcfc
#000000 #000000;
#X obj 543 875 bng 15 250 50 0 empty empty empty 17 7 0 10 #fcfcfc
#000000 #000000;
#X obj 563 875 bng 15 250 50 0 empty empty empty 17 7 0 10 #fcfcfc
#000000 #000000;
#X obj 1229 899 bng 15 250 50 0 empty empty empty 17 7 0 10 #fcfcfc
#000000 #000000;
#X obj 1209 898 bng 15 250 50 0 empty empty empty 17 7 0 10 #fcfcfc
#000000 #000000;
#X obj 1248 898 bng 15 250 50 0 empty empty empty 17 7 0 10 #fcfcfc
#000000 #000000;
#X obj 1268 898 bng 15 250 50 0 empty empty empty 17 7 0 10 #fcfcfc
#000000 #000000;
#X obj 1210 967 sample;
#X floatatom 1299 912 5 0 16 0 - - - 0;
#X obj 1227 1435 dac~;
#X msg 1389 914 1 0 1 0 0 0 1 0 1 0 0 1 0 0 0 0;
#X obj 1279 1078 sample;
#X floatatom 1368 1023 5 0 16 0 - - - 0;
#X msg 1458 1025 1 0 1 0 1 0 1 1 0 0 1 0 0 0 1 0;
#X obj 1322 1210 sample;
#X floatatom 1411 1155 5 0 16 0 - - - 0;
#X msg 1501 1157 1 0 1 0 1 0 1 1 0 0 1 0 0 0 1 0;
#X obj 1359 1320 sample;
#X floatatom 1448 1265 5 0 16 0 - - - 0;
#X msg 1538 1267 1 1 1 0 1 0 1 1 0 0 1 0 0 0 1 0;
#X obj 504 933 rh_pattern2, f 26;
#X obj 556 1052 rh_pattern2, f 26;
#X obj 645 1171 rh_pattern2, f 26;
#X obj 743 1274 rh_pattern2, f 26;
#X obj 1210 942 rh_pattern2, f 26;
#X obj 1279 1053 rh_pattern2, f 26;
#X obj 1322 1185 rh_pattern2, f 26;
#X obj 1359 1295 rh_pattern2, f 26;
#X obj 1209 873 sel 0 1 2 3, f 21;
#X obj 924 1318 s jump2;
#X obj 824 1194 s jump2;
#X obj 735 1075 s jump2;
#X obj 683 956 s jump2;
#X obj 1389 965 s jump3;
#X obj 1458 1076 s jump3;
#X obj 1501 1208 s jump3;
#X obj 1538 1318 s jump3;
#X obj 494 24 - 1;
#X obj 495 53 % 4;
#X obj 495 79 sel 0 1 2 3, f 21;
#X obj 1199 44 - 1;
#X obj 503 818 % 4;
#X obj 501 788 - 1;
#X obj 1208 840 % 4;
#X obj 1206 810 - 1;
#X obj 501 761 r plAbs2;
#X obj 504 850 sel 0 1 2 3, f 21;
#X obj 1206 783 r plAbs3;
#X msg 968 119 0 1 2 3;
#X obj 968 143 unpack f f f f;
#X obj 963 865 loadbang;
#X obj 964 917 unpack f f f f;
#X msg 963 889 4 5 6 7;
#X obj 223 648 kick;
#X floatatom 1243 819 5 0 0 0 - - - 0;
#X obj 950 46 loadbang;
#X obj 1052 -11 unpack f f f f;
#X msg 1053 -38 4 10 8 6;
#X obj 1360 -12 unpack f f f f;
#X msg 1360 -36 10 4 5 3;
#X obj 1015 803 unpack f f f f;
#X msg 1004 758 4 10 8 6;
#X obj 1316 809 unpack f f f f;
#X msg 1323 778 10 4 5 3;
#X connect 0 0 7 0;
#X connect 0 0 34 0;
#X connect 1 0 7 1;
#X connect 1 0 3 0;
#X connect 1 0 9 0;
#X connect 2 0 6 0;
#X connect 2 0 20 0;
#X connect 4 0 33 0;
#X connect 7 0 2 0;
#X connect 9 0 10 0;
#X connect 12 0 13 0;
#X connect 12 0 14 0;
#X connect 13 0 12 1;
#X connect 14 0 15 0;
#X connect 15 0 17 0;
#X connect 15 1 156 0;
#X connect 17 0 18 0;
#X connect 17 0 18 1;
#X connect 19 0 17 1;
#X connect 19 0 156 1;
#X connect 20 0 12 0;
#X connect 21 0 20 1;
#X connect 25 0 23 0;
#X connect 26 0 69 2;
#X connect 27 0 22 0;
#X connect 28 0 1 0;
#X connect 29 0 30 0;
#X connect 30 0 28 0;
#X connect 33 0 29 0;
#X connect 36 0 35 0;
#X connect 38 0 69 1;
#X connect 39 0 22 1;
#X connect 40 0 70 1;
#X connect 41 0 22 0;
#X connect 42 0 71 1;
#X connect 43 0 22 1;
#X connect 44 0 72 1;
#X connect 45 0 70 2;
#X connect 46 0 71 2;
#X connect 47 0 72 2;
#X connect 48 0 70 0;
#X connect 49 0 69 0;
#X connect 50 0 71 0;
#X connect 51 0 72 0;
#X connect 52 0 74 0;
#X connect 53 0 73 0;
#X connect 54 0 75 0;
#X connect 55 0 76 0;
#X connect 56 0 58 0;
#X connect 57 0 73 1;
#X connect 59 0 73 2;
#X connect 60 0 58 1;
#X connect 61 0 74 1;
#X connect 62 0 74 2;
#X connect 63 0 58 0;
#X connect 64 0 75 1;
#X connect 65 0 75 2;
#X connect 66 0 58 1;
#X connect 67 0 76 1;
#X connect 68 0 76 2;
#X connect 69 0 27 0;
#X connect 69 1 81 0;
#X connect 70 0 39 0;
#X connect 70 1 82 0;
#X connect 71 0 41 0;
#X connect 71 1 83 0;
#X connect 72 0 43 0;
#X connect 72 1 84 0;
#X connect 73 0 56 0;
#X connect 73 1 85 0;
#X connect 74 0 60 0;
#X connect 74 1 86 0;
#X connect 75 0 63 0;
#X connect 75 1 87 0;
#X connect 76 0 66 0;
#X connect 76 1 88 0;
#X connect 77 0 78 0;
#X connect 78 0 53 0;
#X connect 78 1 52 0;
#X connect 78 2 54 0;
#X connect 78 3 55 0;
#X connect 79 0 140 0;
#X connect 80 0 143 0;
#X connect 90 0 123 2;
#X connect 91 0 89 0;
#X connect 92 0 123 1;
#X connect 93 0 89 1;
#X connect 94 0 124 1;
#X connect 95 0 89 0;
#X connect 96 0 125 1;
#X connect 97 0 89 1;
#X connect 98 0 126 1;
#X connect 99 0 124 2;
#X connect 100 0 125 2;
#X connect 101 0 126 2;
#X connect 102 0 124 0;
#X connect 103 0 123 0;
#X connect 104 0 125 0;
#X connect 105 0 126 0;
#X connect 106 0 128 0;
#X connect 107 0 127 0;
#X connect 108 0 129 0;
#X connect 109 0 130 0;
#X connect 110 0 112 0;
#X connect 111 0 127 1;
#X connect 113 0 127 2;
#X connect 114 0 112 1;
#X connect 115 0 128 1;
#X connect 116 0 128 2;
#X connect 117 0 112 0;
#X connect 118 0 129 1;
#X connect 119 0 129 2;
#X connect 120 0 112 1;
#X connect 121 0 130 1;
#X connect 122 0 130 2;
#X connect 123 0 91 0;
#X connect 123 1 135 0;
#X connect 124 0 93 0;
#X connect 124 1 134 0;
#X connect 125 0 95 0;
#X connect 125 1 133 0;
#X connect 126 0 97 0;
#X connect 126 1 132 0;
#X connect 127 0 110 0;
#X connect 127 1 136 0;
#X connect 128 0 114 0;
#X connect 128 1 137 0;
#X connect 129 0 117 0;
#X connect 129 1 138 0;
#X connect 130 0 120 0;
#X connect 130 1 139 0;
#X connect 131 0 107 0;
#X connect 131 1 106 0;
#X connect 131 2 108 0;
#X connect 131 3 109 0;
#X connect 140 0 141 0;
#X connect 141 0 142 0;
#X connect 142 0 49 0;
#X connect 142 1 48 0;
#X connect 142 2 50 0;
#X connect 142 3 51 0;
#X connect 143 0 77 0;
#X connect 144 0 149 0;
#X connect 145 0 144 0;
#X connect 146 0 131 0;
#X connect 147 0 146 0;
#X connect 148 0 145 0;
#X connect 149 0 103 0;
#X connect 149 1 102 0;
#X connect 149 2 104 0;
#X connect 149 3 105 0;
#X connect 150 0 147 0;
#X connect 150 0 157 0;
#X connect 151 0 152 0;
#X connect 152 0 27 1;
#X connect 152 0 56 1;
#X connect 152 1 39 1;
#X connect 152 1 60 1;
#X connect 152 2 41 1;
#X connect 152 2 63 1;
#X connect 152 3 43 1;
#X connect 152 3 66 1;
#X connect 153 0 155 0;
#X connect 154 0 91 1;
#X connect 154 0 110 1;
#X connect 154 1 93 1;
#X connect 154 1 114 1;
#X connect 154 2 95 1;
#X connect 154 2 117 1;
#X connect 154 3 97 1;
#X connect 154 3 120 1;
#X connect 155 0 154 0;
#X connect 156 0 18 1;
#X connect 156 0 18 0;
#X connect 158 0 151 0;
#X connect 159 0 38 0;
#X connect 159 1 40 0;
#X connect 159 2 42 0;
#X connect 159 3 44 0;
#X connect 160 0 159 0;
#X connect 161 0 57 0;
#X connect 161 1 61 0;
#X connect 161 2 64 0;
#X connect 161 3 67 0;
#X connect 162 0 161 0;
#X connect 163 0 92 0;
#X connect 163 1 94 0;
#X connect 163 2 96 0;
#X connect 163 3 98 0;
#X connect 164 0 163 0;
#X connect 165 0 111 0;
#X connect 165 1 115 0;
#X connect 165 2 118 0;
#X connect 165 3 121 0;
#X connect 166 0 165 0;
