#N canvas -9 1 1920 976 12;
#X msg 10 46 connect 127.0.0.1 3000;
#X text 5 26 Once Processing is running click on this message.;
#X obj 506 252 print;
#X obj 415 153 udpreceive 57120;
#X obj 415 177 unpackOSC /probability;
#X obj 415 204 routeOSC /probability;
#X obj 593 174 unpackOSC /probability2;
#X obj 593 201 routeOSC /probability2;
#X obj 75 477 udpsend;
#X obj 89 440 packOSC;
#X msg 89 416 /new_clock 1;
#X obj 190 450 packOSC;
#X msg 190 426 /new_clock2 1;
#X obj 412 256 unpack f f;
#X obj 607 247 unpack f f;
#X obj 463 300 s cluster1;
#X obj 403 299 s boid1;
#X obj 598 287 s boid2;
#X obj 658 288 s cluster2;
#X obj 989 15 tgl 20 0 empty empty ON/OFF 17 7 0 10 #fcfcfc #000000
#000000 0 1;
#X floatatom 1072 57 5 0 0 0 - - - 0;
#X obj 991 117 bng 15 250 50 0 empty empty empty 17 7 0 10 #fcfcfc
#000000 #000000;
#X obj 1074 83 s dur;
#X obj 937 77 s tog;
#X obj 204 191 r dur;
#X obj 134 221 expr $f2 / $f1;
#X floatatom 145 196 5 0 0 0 - - - 0;
#X floatatom 136 248 5 0 0 0 - - - 0;
#X obj 57 249 r tog;
#X obj 89 392 bng 15 250 50 0 empty empty empty 17 7 0 10 #fcfcfc #000000
#000000;
#X obj 341 229 r dur;
#X obj 277 258 expr $f2 / $f1;
#X floatatom 289 231 5 0 0 0 - - - 0;
#X floatatom 277 282 5 0 0 0 - - - 0;
#X obj 164 281 r tog;
#X obj 192 400 bng 15 250 50 0 empty empty empty 17 7 0 10 #fcfcfc
#000000 #000000;
#X obj 140 143 r cluster1;
#X obj 288 173 r cluster2;
#X obj 1071 8 loadbang;
#X text 76 103 OSC MESSAGES;
#X text 824 16 GLOBAL METRO;
#X obj 991 150 s beat;
#X obj 113 317 f;
#X obj 84 284 r beat;
#X obj 238 337 f;
#X obj 209 304 r beat;
#X obj 135 685 osc~ 200;
#X obj 145 748 *~;
#X obj 197 717 vline~;
#X obj 139 789 dac~;
#X msg 219 665 1 5 \, 0 100 5;
#X obj 341 769 *~;
#X obj 393 738 vline~;
#X obj 335 810 dac~;
#X msg 415 686 1 5 \, 0 100 5;
#X obj 331 706 osc~ 500;
#X obj 205 605 r boid1;
#X obj 396 635 r boid2;
#X obj 201 633 bng 15 250 50 0 empty empty empty 17 7 0 10 #fcfcfc
#000000 #000000;
#X obj 395 673 bng 15 250 50 0 empty empty empty 17 7 0 10 #fcfcfc
#000000 #000000;
#X text 151 553 POLYRHYTHMS;
#X obj 88 363 metro 2000;
#X obj 194 373 metro 2000;
#N canvas 0 50 450 250 (subpatch) 0;
#X array \$0-pitches 16 float 3;
#A 0 69 0 0 69 0 0 0 72 64 62 0 0 65 0 67 0;
#X coords 0 127 16 0 200 127 1 0 0;
#X restore 717 661 graph;
#X obj 776 867 array set \$0-pitches;
#X msg 781 817 69 0 0 69 0 0 0 72 64 62 0 0 65 0 67 0;
#N canvas 0 50 450 250 (subpatch) 0;
#X array \$0-pitches2 16 float 3;
#A 0 62 0 57 60 0 0 60 0 0 0 0 0 62 0 0 0;
#X coords 0 127 16 0 200 127 1 0 0;
#X restore 1122 674 graph;
#X obj 1181 880 array set \$0-pitches2;
#X msg 1186 830 62 0 57 60 0 0 60 0 0 0 0 0 62 0 0 0;
#X floatatom 157 646 5 0 0 0 - - - 0;
#N canvas -158 41 1920 976 motif1 0;
#X obj 341 483 array get \$0-pitches;
#X obj 345 451 hradio 15 1 0 16 empty empty empty 0 -8 0 10 #fcfcfc
#000000 #000000 0;
#X obj 326 591 mtof;
#X floatatom 331 620 5 0 0 0 - - - 0;
#X obj 340 512 trigger f f;
#X obj 341 557 spigot;
#X obj 395 538 > 0;
#X obj 271 690 osc~ 200;
#X obj 323 745 *~;
#X obj 375 714 vline~;
#X obj 317 786 dac~;
#X obj 344 651 bng 15 250 50 0 empty empty empty 17 7 0 10 #fcfcfc
#000000 #000000;
#N canvas -80 117 1920 976 counter 0;
#X obj 93 153 f;
#X obj 159 160 + 1;
#X msg 109 124 0;
#X text 147 122 Resetter to index 0;
#X obj 111 64 sel 0;
#X obj 82 21 inlet toggle;
#X obj 225 26 inlet speed;
#X obj 92 231 outlet cnt;
#X obj 93 91 metro 144;
#X obj 95 190 % 16;
#X connect 0 0 1 0;
#X connect 0 0 9 0;
#X connect 1 0 0 1;
#X connect 2 0 0 1;
#X connect 4 0 2 0;
#X connect 5 0 4 0;
#X connect 5 0 8 0;
#X connect 6 0 8 1;
#X connect 8 0 0 0;
#X connect 9 0 7 0;
#X restore 331 415 pd counter;
#X obj 401 324 r dur;
#X msg 397 662 0.5 5 \, 0 100 5;
#X obj 293 394 tgl 15 0 empty empty empty 17 7 0 10 #fcfcfc #000000
#000000 0 1;
#X obj 225 169 r beat;
#X obj 343 106 r boid1;
#X obj 332 223 select 1 2 3 4;
#X msg 236 340 0;
#X msg 345 267 1;
#X obj 311 322 f;
#X floatatom 332 296 5 0 0 0 - - - 0;
#X msg 344 322 0;
#X obj 176 262 r tog;
#X obj 259 33 inlet;
#X obj 263 68 tgl 15 0 empty empty empty 17 7 0 10 #fcfcfc #000000
#000000 0 1;
#X obj 338 170 spigot;
#X obj 410 364 / 8;
#X obj 227 199 f;
#X floatatom 227 228 5 0 0 0 - - - 0;
#X obj 264 196 + 1;
#X obj 227 256 sel 1;
#X obj 230 284 t b b;
#X connect 0 0 4 0;
#X connect 1 0 0 0;
#X connect 2 0 3 0;
#X connect 3 0 7 0;
#X connect 3 0 11 0;
#X connect 4 0 5 0;
#X connect 4 1 6 0;
#X connect 5 0 2 0;
#X connect 6 0 5 1;
#X connect 7 0 8 0;
#X connect 8 0 10 0;
#X connect 8 0 10 1;
#X connect 9 0 8 1;
#X connect 11 0 14 0;
#X connect 12 0 1 0;
#X connect 13 0 28 0;
#X connect 14 0 9 0;
#X connect 15 0 12 0;
#X connect 16 0 29 0;
#X connect 17 0 27 0;
#X connect 18 0 20 0;
#X connect 19 0 15 0;
#X connect 19 0 29 1;
#X connect 20 0 22 0;
#X connect 21 0 23 0;
#X connect 21 0 15 0;
#X connect 22 0 21 1;
#X connect 23 0 22 0;
#X connect 24 0 19 0;
#X connect 25 0 26 0;
#X connect 26 0 27 1;
#X connect 27 0 18 0;
#X connect 28 0 12 1;
#X connect 29 0 31 0;
#X connect 29 0 30 0;
#X connect 30 0 32 0;
#X connect 31 0 29 1;
#X connect 32 0 33 0;
#X connect 33 0 21 0;
#X connect 33 1 19 0;
#X restore 727 612 pd motif1;
#X obj 991 77 metro 4000;
#X obj 735 559 tgl 15 0 empty empty empty 17 7 0 10 #fcfcfc #000000
#000000 0 1;
#N canvas -90 45 1920 976 motif2 0;
#X obj 345 451 hradio 15 1 0 16 empty empty empty 0 -8 0 10 #fcfcfc
#000000 #000000 0;
#X obj 326 591 mtof;
#X floatatom 331 620 5 0 0 0 - - - 0;
#X obj 340 512 trigger f f;
#X obj 341 557 spigot;
#X obj 395 538 > 0;
#X obj 271 690 osc~ 200;
#X obj 323 745 *~;
#X obj 375 714 vline~;
#X obj 317 786 dac~;
#X obj 344 651 bng 15 250 50 0 empty empty empty 17 7 0 10 #fcfcfc
#000000 #000000;
#N canvas -80 117 1920 976 counter 0;
#X obj 93 153 f;
#X obj 159 160 + 1;
#X msg 109 124 0;
#X text 147 122 Resetter to index 0;
#X obj 111 64 sel 0;
#X obj 82 21 inlet toggle;
#X obj 225 26 inlet speed;
#X obj 92 231 outlet cnt;
#X obj 93 91 metro 144;
#X obj 95 190 % 16;
#X connect 0 0 1 0;
#X connect 0 0 9 0;
#X connect 1 0 0 1;
#X connect 2 0 0 1;
#X connect 4 0 2 0;
#X connect 5 0 4 0;
#X connect 5 0 8 0;
#X connect 6 0 8 1;
#X connect 8 0 0 0;
#X connect 9 0 7 0;
#X restore 331 415 pd counter;
#X obj 401 324 r dur;
#X msg 397 662 0.5 5 \, 0 100 5;
#X obj 293 394 tgl 15 0 empty empty empty 17 7 0 10 #fcfcfc #000000
#000000 0 1;
#X obj 343 106 r boid1;
#X obj 332 223 select 1 2 3 4;
#X msg 345 267 1;
#X obj 311 322 f;
#X floatatom 332 296 5 0 0 0 - - - 0;
#X msg 344 322 0;
#X obj 259 33 inlet;
#X obj 263 68 tgl 15 0 empty empty empty 17 7 0 10 #fcfcfc #000000
#000000 0 1;
#X obj 338 170 spigot;
#X obj 341 483 array get \$0-pitches2;
#X obj 228 166 r beat;
#X msg 239 337 0;
#X obj 179 259 r tog;
#X obj 230 196 f;
#X floatatom 230 225 5 0 0 0 - - - 0;
#X obj 267 193 + 1;
#X obj 230 253 sel 1;
#X obj 233 281 t b b;
#X obj 410 364 / 8;
#X connect 0 0 24 0;
#X connect 1 0 2 0;
#X connect 2 0 10 0;
#X connect 2 0 6 0;
#X connect 3 0 4 0;
#X connect 3 1 5 0;
#X connect 4 0 1 0;
#X connect 5 0 4 1;
#X connect 6 0 7 0;
#X connect 7 0 9 0;
#X connect 7 0 9 1;
#X connect 8 0 7 1;
#X connect 10 0 13 0;
#X connect 11 0 0 0;
#X connect 12 0 33 0;
#X connect 13 0 8 0;
#X connect 14 0 11 0;
#X connect 15 0 23 0;
#X connect 16 1 17 0;
#X connect 17 0 19 0;
#X connect 18 0 20 0;
#X connect 18 0 14 0;
#X connect 19 0 18 1;
#X connect 20 0 19 0;
#X connect 21 0 22 0;
#X connect 22 0 23 1;
#X connect 23 0 16 0;
#X connect 24 0 3 0;
#X connect 25 0 28 0;
#X connect 26 0 28 1;
#X connect 26 0 14 0;
#X connect 27 0 26 0;
#X connect 28 0 30 0;
#X connect 28 0 29 0;
#X connect 29 0 31 0;
#X connect 30 0 28 1;
#X connect 31 0 32 0;
#X connect 32 0 18 0;
#X connect 32 1 26 0;
#X connect 33 0 11 1;
#X restore 1126 621 pd motif2;
#X f 11;
#X obj 1135 571 tgl 15 0 empty empty empty 17 7 0 10 #fcfcfc #000000
#000000 0 1;
#N canvas 0 50 450 250 (subpatch) 0;
#X array \$0-pitches3 16 float 3;
#A 0 77 0 79 76 0 0 0 0 0 0 81 79 74 0 0 0;
#X coords 0 127 16 0 200 127 1 0 0;
#X restore 1457 666 graph;
#X obj 1470 563 tgl 15 0 empty empty empty 17 7 0 10 #fcfcfc #000000
#000000 0 1;
#N canvas -90 45 1920 976 motif3 0;
#X obj 345 451 hradio 15 1 0 16 empty empty empty 0 -8 0 10 #fcfcfc
#000000 #000000 0;
#X obj 326 591 mtof;
#X floatatom 331 620 5 0 0 0 - - - 0;
#X obj 340 512 trigger f f;
#X obj 341 557 spigot;
#X obj 395 538 > 0;
#X obj 271 690 osc~ 200;
#X obj 323 745 *~;
#X obj 375 714 vline~;
#X obj 317 786 dac~;
#X obj 344 651 bng 15 250 50 0 empty empty empty 17 7 0 10 #fcfcfc
#000000 #000000;
#N canvas -80 117 1920 976 counter 0;
#X obj 93 153 f;
#X obj 159 160 + 1;
#X msg 109 124 0;
#X text 147 122 Resetter to index 0;
#X obj 111 64 sel 0;
#X obj 82 21 inlet toggle;
#X obj 225 26 inlet speed;
#X obj 92 231 outlet cnt;
#X obj 93 91 metro 144;
#X obj 95 190 % 16;
#X connect 0 0 1 0;
#X connect 0 0 9 0;
#X connect 1 0 0 1;
#X connect 2 0 0 1;
#X connect 4 0 2 0;
#X connect 5 0 4 0;
#X connect 5 0 8 0;
#X connect 6 0 8 1;
#X connect 8 0 0 0;
#X connect 9 0 7 0;
#X restore 331 415 pd counter;
#X obj 401 324 r dur;
#X msg 397 662 0.5 5 \, 0 100 5;
#X obj 293 394 tgl 15 0 empty empty empty 17 7 0 10 #fcfcfc #000000
#000000 0 1;
#X obj 343 106 r boid1;
#X obj 332 223 select 1 2 3 4;
#X msg 345 267 1;
#X obj 311 322 f;
#X floatatom 332 296 5 0 0 0 - - - 0;
#X msg 344 322 0;
#X obj 259 33 inlet;
#X obj 263 68 tgl 15 0 empty empty empty 17 7 0 10 #fcfcfc #000000
#000000 0 1;
#X obj 338 170 spigot;
#X obj 228 166 r beat;
#X msg 239 337 0;
#X obj 179 259 r tog;
#X obj 230 196 f;
#X floatatom 230 225 5 0 0 0 - - - 0;
#X obj 267 193 + 1;
#X obj 230 253 sel 1;
#X obj 233 281 t b b;
#X obj 341 483 array get \$0-pitches3;
#X obj 410 364 / 8;
#X connect 0 0 32 0;
#X connect 1 0 2 0;
#X connect 2 0 10 0;
#X connect 2 0 6 0;
#X connect 3 0 4 0;
#X connect 3 1 5 0;
#X connect 4 0 1 0;
#X connect 5 0 4 1;
#X connect 6 0 7 0;
#X connect 7 0 9 0;
#X connect 7 0 9 1;
#X connect 8 0 7 1;
#X connect 10 0 13 0;
#X connect 11 0 0 0;
#X connect 12 0 33 0;
#X connect 13 0 8 0;
#X connect 14 0 11 0;
#X connect 15 0 23 0;
#X connect 16 2 17 0;
#X connect 17 0 19 0;
#X connect 18 0 20 0;
#X connect 18 0 14 0;
#X connect 19 0 18 1;
#X connect 20 0 19 0;
#X connect 21 0 22 0;
#X connect 22 0 23 1;
#X connect 23 0 16 0;
#X connect 24 0 27 0;
#X connect 25 0 27 1;
#X connect 25 0 14 0;
#X connect 26 0 25 0;
#X connect 27 0 29 0;
#X connect 27 0 28 0;
#X connect 28 0 30 0;
#X connect 29 0 27 1;
#X connect 30 0 31 0;
#X connect 31 0 18 0;
#X connect 31 1 25 0;
#X connect 32 0 3 0;
#X connect 33 0 11 1;
#X restore 1461 613 pd motif3;
#X f 11;
#X obj 1516 872 array set \$0-pitches3;
#X msg 1521 822 77 0 79 76 0 0 0 0 0 0 81 79 74 0 0 0;
#X msg 1071 32 2000;
#N canvas 0 50 450 250 (subpatch) 0;
#X array \$0-perc1 16 float 3;
#A 0 0 10 10 0 10 10 10 0 0 0 10 0 0 10 0 0;
#X coords 0 10 16 0 200 50 1 0 0;
#X restore 733 1040 graph;
#X obj 751 938 tgl 15 0 empty empty empty 17 7 0 10 #fcfcfc #000000
#000000 0 1;
#N canvas -78 26 1920 976 rhythm1 0;
#X obj 345 451 hradio 15 1 0 16 empty empty empty 0 -8 0 10 #fcfcfc
#000000 #000000 0;
#X obj 340 512 trigger f f;
#X obj 341 557 spigot;
#X obj 395 538 > 0;
#N canvas -80 117 1920 976 counter 0;
#X obj 93 153 f;
#X obj 159 160 + 1;
#X msg 109 124 0;
#X text 147 122 Resetter to index 0;
#X obj 111 64 sel 0;
#X obj 82 21 inlet toggle;
#X obj 225 26 inlet speed;
#X obj 92 231 outlet cnt;
#X obj 93 91 metro 144;
#X obj 95 190 % 16;
#X connect 0 0 1 0;
#X connect 0 0 9 0;
#X connect 1 0 0 1;
#X connect 2 0 0 1;
#X connect 4 0 2 0;
#X connect 5 0 4 0;
#X connect 5 0 8 0;
#X connect 6 0 8 1;
#X connect 8 0 0 0;
#X connect 9 0 7 0;
#X restore 331 415 pd counter;
#X obj 401 324 r dur;
#X obj 293 394 tgl 15 0 empty empty empty 17 7 0 10 #fcfcfc #000000
#000000 0 1;
#X obj 225 169 r beat;
#X msg 236 340 0;
#X msg 345 267 1;
#X obj 311 322 f;
#X floatatom 332 296 5 0 0 0 - - - 0;
#X msg 344 322 0;
#X obj 176 262 r tog;
#X obj 259 33 inlet;
#X obj 263 68 tgl 15 0 empty empty empty 17 7 0 10 #fcfcfc #000000
#000000 0 1;
#X obj 338 170 spigot;
#X obj 410 364 / 8;
#X obj 227 199 f;
#X floatatom 227 228 5 0 0 0 - - - 0;
#X obj 264 196 + 1;
#X obj 227 256 sel 1;
#X obj 230 284 t b b;
#N canvas -17 374 1920 976 kick 0;
#X obj 50 213 osc~;
#X obj 50 186 vline~;
#X obj 50 60 bng 15 250 50 0 empty empty empty 17 7 0 10 #fcfcfc #000000
#000000;
#X obj 50 275 *~;
#X obj 119 213 vline~;
#X text 54 11 kick;
#X obj 50 30 inlet;
#X obj 119 52 * 10;
#X obj 119 79 *;
#X obj 119 102 / 100;
#X obj 119 126 max 0.1;
#X obj 190 52 loadbang;
#X obj 190 101 f \$1;
#X obj 190 76 t b b;
#X obj 190 126 sel 0;
#X msg 237 121 1;
#X floatatom 222 153 5 0 0 0 - - - 0;
#X obj 75 99 f;
#X msg 50 156 150 1 \, 50 70 5;
#X obj 118 240 *~;
#X msg 119 187 \$1 1 \, 0 300 1;
#X obj 47 320 outlet~;
#X obj 95 29 inlet;
#X connect 0 0 3 0;
#X connect 1 0 0 0;
#X connect 2 0 18 0;
#X connect 2 0 17 0;
#X connect 3 0 21 0;
#X connect 4 0 19 1;
#X connect 4 0 19 0;
#X connect 6 0 2 0;
#X connect 7 0 8 1;
#X connect 7 0 8 0;
#X connect 8 0 9 0;
#X connect 9 0 10 0;
#X connect 10 0 20 0;
#X connect 11 0 13 0;
#X connect 12 0 14 0;
#X connect 13 0 12 0;
#X connect 13 1 15 0;
#X connect 14 1 16 0;
#X connect 15 0 16 0;
#X connect 16 0 17 1;
#X connect 17 0 7 0;
#X connect 18 0 1 0;
#X connect 19 0 3 1;
#X connect 20 0 4 0;
#X connect 22 0 17 1;
#X restore 340 603 pd kick;
#X obj 340 640 dac~;
#X obj 343 106 r boid2;
#X obj 341 483 array get \$0-perc1;
#X obj 332 223 select 4 5 6;
#X connect 0 0 26 0;
#X connect 1 0 2 0;
#X connect 1 1 3 0;
#X connect 2 0 23 0;
#X connect 3 0 2 1;
#X connect 4 0 0 0;
#X connect 5 0 17 0;
#X connect 6 0 4 0;
#X connect 7 0 18 0;
#X connect 8 0 6 0;
#X connect 8 0 18 1;
#X connect 9 0 11 0;
#X connect 10 0 12 0;
#X connect 10 0 6 0;
#X connect 11 0 10 1;
#X connect 12 0 11 0;
#X connect 13 0 8 0;
#X connect 14 0 15 0;
#X connect 15 0 16 1;
#X connect 16 0 27 0;
#X connect 17 0 4 1;
#X connect 18 0 20 0;
#X connect 18 0 19 0;
#X connect 19 0 21 0;
#X connect 20 0 18 1;
#X connect 21 0 22 0;
#X connect 22 0 10 0;
#X connect 22 1 8 0;
#X connect 23 0 24 0;
#X connect 23 0 24 1;
#X connect 25 0 16 0;
#X connect 26 0 1 0;
#X connect 27 0 9 0;
#X restore 743 991 pd rhythm1;
#X obj 732 1165 array set \$0-perc1;
#X msg 735 1123 0 10 10 0 10 10 10 0 0 0 10 0 0 10 0 0;
#N canvas 0 50 450 250 (subpatch) 0;
#X array \$0-perc2 16 float 3;
#A 0 0 0 10 0 0 0 10 0 0 0 10 0 0 10 0 10;
#X coords 0 10 16 0 200 50 1 0 0;
#X restore 1094 1048 graph;
#X obj 1112 946 tgl 15 0 empty empty empty 17 7 0 10 #fcfcfc #000000
#000000 0 1;
#N canvas -78 26 1920 976 rhythm1 0;
#X obj 345 451 hradio 15 1 0 16 empty empty empty 0 -8 0 10 #fcfcfc
#000000 #000000 0;
#X obj 340 512 trigger f f;
#X obj 341 557 spigot;
#X obj 395 538 > 0;
#N canvas -80 117 1920 976 counter 0;
#X obj 93 153 f;
#X obj 159 160 + 1;
#X msg 109 124 0;
#X text 147 122 Resetter to index 0;
#X obj 111 64 sel 0;
#X obj 82 21 inlet toggle;
#X obj 225 26 inlet speed;
#X obj 92 231 outlet cnt;
#X obj 93 91 metro 144;
#X obj 95 190 % 16;
#X connect 0 0 1 0;
#X connect 0 0 9 0;
#X connect 1 0 0 1;
#X connect 2 0 0 1;
#X connect 4 0 2 0;
#X connect 5 0 4 0;
#X connect 5 0 8 0;
#X connect 6 0 8 1;
#X connect 8 0 0 0;
#X connect 9 0 7 0;
#X restore 331 415 pd counter;
#X obj 401 324 r dur;
#X obj 293 394 tgl 15 0 empty empty empty 17 7 0 10 #fcfcfc #000000
#000000 0 1;
#X obj 225 169 r beat;
#X msg 236 340 0;
#X msg 345 267 1;
#X obj 311 322 f;
#X floatatom 332 296 5 0 0 0 - - - 0;
#X msg 344 322 0;
#X obj 176 262 r tog;
#X obj 259 33 inlet;
#X obj 263 68 tgl 15 0 empty empty empty 17 7 0 10 #fcfcfc #000000
#000000 0 1;
#X obj 338 170 spigot;
#X obj 410 364 / 8;
#X obj 227 199 f;
#X floatatom 227 228 5 0 0 0 - - - 0;
#X obj 264 196 + 1;
#X obj 227 256 sel 1;
#X obj 230 284 t b b;
#X obj 340 640 dac~;
#X obj 343 106 r boid2;
#X obj 341 483 array get \$0-perc2;
#N canvas -71 76 1920 976 snare 0;
#X obj 73 281 *~;
#X obj 135 250 vline~;
#X obj 37 91 noise~;
#X obj 73 248 *~ 0.5;
#X obj 73 225 osc~ 180;
#X obj 37 188 hip~ 1000;
#X text 45 45 Snare;
#X obj 99 44 inlet;
#X obj 135 167 max 0;
#X obj 135 88 * 10;
#X obj 135 115 *;
#X obj 135 138 / 100;
#X obj 37 164 lop~ 3000;
#X obj 76 138 + 500;
#X obj 76 114 * 3000;
#X obj 99 69 bng 15 250 50 0 empty empty empty 17 7 0 10 #fcfcfc #000000
#000000;
#X obj 100 89 f;
#X obj 193 65 loadbang;
#X obj 193 89 t b b;
#X obj 193 139 sel 0;
#X floatatom 225 166 5 0 0 0 - - - 0;
#X obj 193 114 f \$2;
#X obj 135 278 *~;
#X msg 240 134 0.9;
#X msg 135 225 \$1 1 \, 0 280 1;
#X obj 148 43 inlet;
#X obj 73 305 outlet~;
#X connect 0 0 26 0;
#X connect 1 0 22 1;
#X connect 1 0 22 0;
#X connect 2 0 12 0;
#X connect 3 0 0 0;
#X connect 4 0 3 0;
#X connect 5 0 0 0;
#X connect 7 0 15 0;
#X connect 8 0 14 0;
#X connect 8 0 24 0;
#X connect 9 0 10 1;
#X connect 9 0 10 0;
#X connect 10 0 11 0;
#X connect 11 0 8 0;
#X connect 12 0 5 0;
#X connect 13 0 12 1;
#X connect 14 0 13 0;
#X connect 15 0 16 0;
#X connect 16 0 9 0;
#X connect 17 0 18 0;
#X connect 18 0 21 0;
#X connect 18 1 23 0;
#X connect 19 1 20 0;
#X connect 20 0 16 1;
#X connect 21 0 19 0;
#X connect 22 0 0 1;
#X connect 23 0 20 0;
#X connect 24 0 1 0;
#X connect 25 0 16 1;
#X restore 337 599 pd snare;
#X obj 332 223 select 4 5 6;
#X connect 0 0 25 0;
#X connect 1 0 2 0;
#X connect 1 1 3 0;
#X connect 2 0 26 0;
#X connect 3 0 2 1;
#X connect 4 0 0 0;
#X connect 5 0 17 0;
#X connect 6 0 4 0;
#X connect 7 0 18 0;
#X connect 8 0 6 0;
#X connect 8 0 18 1;
#X connect 9 0 11 0;
#X connect 10 0 12 0;
#X connect 10 0 6 0;
#X connect 11 0 10 1;
#X connect 12 0 11 0;
#X connect 13 0 8 0;
#X connect 14 0 15 0;
#X connect 15 0 16 1;
#X connect 16 0 27 0;
#X connect 17 0 4 1;
#X connect 18 0 20 0;
#X connect 18 0 19 0;
#X connect 19 0 21 0;
#X connect 20 0 18 1;
#X connect 21 0 22 0;
#X connect 22 0 10 0;
#X connect 22 1 8 0;
#X connect 24 0 16 0;
#X connect 25 0 1 0;
#X connect 26 0 23 0;
#X connect 26 0 23 1;
#X connect 27 1 9 0;
#X restore 1104 999 pd rhythm1;
#N canvas 0 50 450 250 (subpatch) 0;
#X array \$0-perc3 16 float 3;
#A 0 10 0 10 0 10 0 10 0 10 0 10 0 10 0 10 0;
#X coords 0 10 16 0 200 50 1 0 0;
#X restore 1471 1045 graph;
#X obj 1489 943 tgl 15 0 empty empty empty 17 7 0 10 #fcfcfc #000000
#000000 0 1;
#N canvas -78 26 1920 976 rhythm1 0;
#X obj 345 451 hradio 15 1 0 16 empty empty empty 0 -8 0 10 #fcfcfc
#000000 #000000 0;
#X obj 340 512 trigger f f;
#X obj 341 557 spigot;
#X obj 395 538 > 0;
#N canvas -80 117 1920 976 counter 0;
#X obj 93 153 f;
#X obj 159 160 + 1;
#X msg 109 124 0;
#X text 147 122 Resetter to index 0;
#X obj 111 64 sel 0;
#X obj 82 21 inlet toggle;
#X obj 225 26 inlet speed;
#X obj 92 231 outlet cnt;
#X obj 93 91 metro 144;
#X obj 95 190 % 16;
#X connect 0 0 1 0;
#X connect 0 0 9 0;
#X connect 1 0 0 1;
#X connect 2 0 0 1;
#X connect 4 0 2 0;
#X connect 5 0 4 0;
#X connect 5 0 8 0;
#X connect 6 0 8 1;
#X connect 8 0 0 0;
#X connect 9 0 7 0;
#X restore 331 415 pd counter;
#X obj 401 324 r dur;
#X obj 293 394 tgl 15 0 empty empty empty 17 7 0 10 #fcfcfc #000000
#000000 0 1;
#X obj 225 169 r beat;
#X msg 236 340 0;
#X msg 345 267 1;
#X obj 311 322 f;
#X floatatom 332 296 5 0 0 0 - - - 0;
#X msg 344 322 0;
#X obj 176 262 r tog;
#X obj 259 33 inlet;
#X obj 263 68 tgl 15 0 empty empty empty 17 7 0 10 #fcfcfc #000000
#000000 0 1;
#X obj 338 170 spigot;
#X obj 410 364 / 8;
#X obj 227 199 f;
#X floatatom 227 228 5 0 0 0 - - - 0;
#X obj 264 196 + 1;
#X obj 227 256 sel 1;
#X obj 230 284 t b b;
#X obj 340 640 dac~;
#X obj 343 106 r boid2;
#X obj 341 483 array get \$0-perc3;
#N canvas 9 47 1920 976 hats 0;
#X obj 47 275 *~;
#X obj 103 244 vline~;
#X obj 22 196 noise~;
#X obj 22 219 hip~ 20000;
#X obj 22 242 hip~ 10000;
#X obj 63 57 inlet;
#X obj 103 172 max 0;
#X obj 103 96 * 10;
#X obj 103 123 *;
#X obj 103 146 / 100;
#X obj 63 86 bng 15 250 50 0 empty empty empty 17 7 0 10 #fcfcfc #000000
#000000;
#X obj 63 138 f;
#X obj 168 79 loadbang;
#X obj 168 103 t b b;
#X obj 168 153 sel 0;
#X floatatom 200 180 5 0 0 0 - - - 0;
#X obj 168 128 f \$3;
#X msg 103 220 \$1 \, 0 100 1;
#X msg 215 148 0.9;
#X text 61 36 Hats closed;
#X obj 104 57 inlet;
#X obj 47 299 outlet~;
#X connect 0 0 21 0;
#X connect 1 0 0 1;
#X connect 2 0 3 0;
#X connect 3 0 4 0;
#X connect 4 0 0 0;
#X connect 5 0 10 0;
#X connect 6 0 17 0;
#X connect 7 0 8 1;
#X connect 7 0 8 0;
#X connect 8 0 9 0;
#X connect 9 0 6 0;
#X connect 10 0 11 0;
#X connect 11 0 7 0;
#X connect 12 0 13 0;
#X connect 13 0 16 0;
#X connect 13 1 18 0;
#X connect 14 1 15 0;
#X connect 15 0 11 1;
#X connect 16 0 14 0;
#X connect 17 0 1 0;
#X connect 18 0 15 0;
#X connect 20 0 11 1;
#X restore 336 601 pd hats;
#X obj 332 223 select 4 5 6;
#X connect 0 0 25 0;
#X connect 1 0 2 0;
#X connect 1 1 3 0;
#X connect 2 0 26 0;
#X connect 3 0 2 1;
#X connect 4 0 0 0;
#X connect 5 0 17 0;
#X connect 6 0 4 0;
#X connect 7 0 18 0;
#X connect 8 0 6 0;
#X connect 8 0 18 1;
#X connect 9 0 11 0;
#X connect 10 0 12 0;
#X connect 10 0 6 0;
#X connect 11 0 10 1;
#X connect 12 0 11 0;
#X connect 13 0 8 0;
#X connect 14 0 15 0;
#X connect 15 0 16 1;
#X connect 16 0 27 0;
#X connect 17 0 4 1;
#X connect 18 0 20 0;
#X connect 18 0 19 0;
#X connect 19 0 21 0;
#X connect 20 0 18 1;
#X connect 21 0 22 0;
#X connect 22 0 10 0;
#X connect 22 1 8 0;
#X connect 24 0 16 0;
#X connect 25 0 1 0;
#X connect 26 0 23 0;
#X connect 26 0 23 1;
#X connect 27 2 9 0;
#X restore 1481 996 pd rhythm1;
#X obj 1093 1173 array set \$0-perc2;
#X obj 1470 1170 array set \$0-perc3;
#X msg 1473 1128 10 0 10 0 10 0 10 0 10 0 10 0 10 0 10 0;
#X msg 1096 1131 0 0 10 0 0 0 10 0 0 0 10 0 0 10 0 10;
#X text 643 493 POLYPHONY;
#X text 647 536 Motifs;
#X text 649 932 Rhythms;
#X connect 0 0 8 0;
#X connect 3 0 4 0;
#X connect 3 0 6 0;
#X connect 4 0 5 0;
#X connect 5 0 2 0;
#X connect 5 0 13 0;
#X connect 6 0 7 0;
#X connect 7 0 2 0;
#X connect 7 0 14 0;
#X connect 9 0 8 0;
#X connect 10 0 9 0;
#X connect 11 0 8 0;
#X connect 12 0 11 0;
#X connect 13 0 16 0;
#X connect 13 1 15 0;
#X connect 14 0 17 0;
#X connect 14 1 18 0;
#X connect 19 0 23 0;
#X connect 19 0 71 0;
#X connect 20 0 22 0;
#X connect 20 0 71 1;
#X connect 21 0 41 0;
#X connect 24 0 25 1;
#X connect 25 0 27 0;
#X connect 26 0 25 0;
#X connect 27 0 42 1;
#X connect 28 0 61 0;
#X connect 29 0 10 0;
#X connect 30 0 31 1;
#X connect 31 0 33 0;
#X connect 32 0 31 0;
#X connect 33 0 44 1;
#X connect 34 0 62 0;
#X connect 35 0 12 0;
#X connect 36 0 26 0;
#X connect 37 0 32 0;
#X connect 38 0 80 0;
#X connect 42 0 61 1;
#X connect 43 0 42 0;
#X connect 44 0 62 1;
#X connect 45 0 44 0;
#X connect 46 0 47 0;
#X connect 47 0 49 0;
#X connect 47 0 49 1;
#X connect 48 0 47 1;
#X connect 50 0 48 0;
#X connect 51 0 53 0;
#X connect 51 0 53 1;
#X connect 52 0 51 1;
#X connect 54 0 52 0;
#X connect 55 0 51 0;
#X connect 56 0 69 0;
#X connect 58 0 50 0;
#X connect 59 0 54 0;
#X connect 61 0 29 0;
#X connect 62 0 35 0;
#X connect 65 0 64 0;
#X connect 68 0 67 0;
#X connect 71 0 21 0;
#X connect 72 0 70 0;
#X connect 74 0 73 0;
#X connect 76 0 77 0;
#X connect 79 0 78 0;
#X connect 80 0 20 0;
#X connect 82 0 83 0;
#X connect 85 0 84 0;
#X connect 87 0 88 0;
#X connect 90 0 91 0;
#X connect 94 0 93 0;
#X connect 95 0 92 0;
