#N canvas 0 25 1920 976 12;
#X obj 102 143 tgl 20 0 empty empty ON/OFF 17 7 0 10 #fcfcfc #000000
#000000 0 1;
#X floatatom 185 265 5 0 0 0 - - - 0;
#X obj 104 309 bng 15 250 50 0 empty empty empty 17 7 0 10 #fcfcfc
#000000 #000000;
#X obj 191 291 s dur;
#X obj 184 141 loadbang;
#X text 12 143 GLOBAL METRO;
#X obj 104 348 s beat;
#X obj 104 285 metro 4000;
#X obj 185 313 / 4;
#X obj 185 353 s pulse;
#X obj 201 530 f;
#X obj 234 530 + 1;
#X obj 201 554 % 2;
#X obj 200 585 sel 0 1;
#X obj 181 649 kick;
#X obj 184 694 dac~;
#X floatatom 273 602 5 0 0 0 - - - 0;
#X obj 170 462 spigot;
#X obj 240 413 tgl 20 0 empty empty ON/OFF 17 7 0 10 #fcfcfc #000000
#000000 0 1;
#X obj 503 459 dac~;
#X obj 19 73 Processing2Pure, f 40;
#X text 98 44 change the port;
#X msg 19 45 port 57120;
#X obj 231 227 * 60000;
#X floatatom 231 182 5 0 0 0 - - - 0;
#X obj 231 204 expr 1/$f1;
#X text 269 182 BPM;
#X text 224 264 ms;
#X msg 184 163 120;
#X obj 102 176 s GlobalTog;
#X msg 18 -60 connect 127.0.0.1 3000;
#X text 13 -80 Once Processing is running click on this message.;
#X obj 490 184 - 1;
#X obj 223 648 kick;
#X obj 19 -30 PolyrhClock2Processing;
#X obj 490 157 r plRel0;
#X obj 487 208 moses 4;
#X obj 489 305 mel_selector;
#X obj 489 329 clave;
#X obj 585 227 moses 8;
#X obj 588 305 mel_selector;
#X obj 588 331 clave;
#X obj 705 308 mel_selector;
#X obj 705 332 clave;
#X obj 827 315 mel_selector;
#X obj 827 339 clave;
#X obj 584 254 % 4;
#X obj 704 272 % 4;
#X obj 828 290 % 4;
#X msg 864 291 12;
#X msg 625 276 4;
#X msg 744 281 8;
#X obj 704 248 moses 12;
#X obj 827 267 moses 16;
#X obj 277 549 loadbang;
#X msg 277 573 0;
#X obj 1047 455 dac~;
#X obj 1034 180 - 1;
#X obj 1031 204 moses 4;
#X obj 1033 301 mel_selector;
#X obj 1033 325 clave;
#X obj 1129 223 moses 8;
#X obj 1132 301 mel_selector;
#X obj 1132 327 clave;
#X obj 1249 304 mel_selector;
#X obj 1249 328 clave;
#X obj 1371 311 mel_selector;
#X obj 1371 335 clave;
#X obj 1128 250 % 4;
#X obj 1248 268 % 4;
#X obj 1372 286 % 4;
#X msg 1408 287 12;
#X msg 1169 272 4;
#X msg 1288 277 8;
#X obj 1248 244 moses 12;
#X obj 1371 263 moses 16;
#X obj 1034 153 r plRel1;
#X obj 501 850 dac~;
#X obj 488 575 - 1;
#X obj 485 599 moses 4;
#X obj 487 696 mel_selector;
#X obj 487 720 clave;
#X obj 583 618 moses 8;
#X obj 586 696 mel_selector;
#X obj 586 722 clave;
#X obj 703 699 mel_selector;
#X obj 703 723 clave;
#X obj 825 706 mel_selector;
#X obj 825 730 clave;
#X obj 582 645 % 4;
#X obj 702 663 % 4;
#X obj 826 681 % 4;
#X msg 862 682 12;
#X msg 623 667 4;
#X msg 742 672 8;
#X obj 702 639 moses 12;
#X obj 825 658 moses 16;
#X obj 1045 846 dac~;
#X obj 1032 571 - 1;
#X obj 1029 595 moses 4;
#X obj 1031 692 mel_selector;
#X obj 1031 716 clave;
#X obj 1127 614 moses 8;
#X obj 1130 692 mel_selector;
#X obj 1130 718 clave;
#X obj 1247 695 mel_selector;
#X obj 1247 719 clave;
#X obj 1369 702 mel_selector;
#X obj 1369 726 clave;
#X obj 1126 641 % 4;
#X obj 1246 659 % 4;
#X obj 1370 677 % 4;
#X msg 1406 678 12;
#X msg 1167 663 4;
#X msg 1286 668 8;
#X obj 1246 635 moses 12;
#X obj 1369 654 moses 16;
#X obj 488 548 r plRel2;
#X obj 1032 544 r plRel3;
#X msg 776 532 2;
#X msg 1320 528 3;
#X msg 778 141 0;
#X msg 1322 137 1;
#X obj 905 9 loadbang;
#X connect 0 0 7 0;
#X connect 0 0 29 0;
#X connect 1 0 7 1;
#X connect 1 0 3 0;
#X connect 1 0 8 0;
#X connect 2 0 6 0;
#X connect 2 0 17 0;
#X connect 4 0 28 0;
#X connect 7 0 2 0;
#X connect 8 0 9 0;
#X connect 10 0 11 0;
#X connect 10 0 12 0;
#X connect 11 0 10 1;
#X connect 12 0 13 0;
#X connect 13 0 14 0;
#X connect 13 1 33 0;
#X connect 14 0 15 0;
#X connect 14 0 15 1;
#X connect 16 0 14 1;
#X connect 16 0 33 1;
#X connect 17 0 10 0;
#X connect 18 0 17 1;
#X connect 22 0 20 0;
#X connect 23 0 1 0;
#X connect 24 0 25 0;
#X connect 25 0 23 0;
#X connect 28 0 24 0;
#X connect 30 0 34 0;
#X connect 32 0 36 0;
#X connect 33 0 15 1;
#X connect 33 0 15 0;
#X connect 35 0 32 0;
#X connect 36 0 37 0;
#X connect 36 1 39 0;
#X connect 37 0 38 0;
#X connect 38 0 19 0;
#X connect 38 0 19 1;
#X connect 39 0 46 0;
#X connect 39 0 50 0;
#X connect 39 1 52 0;
#X connect 40 0 41 0;
#X connect 41 0 19 1;
#X connect 41 0 19 0;
#X connect 42 0 43 0;
#X connect 43 0 19 0;
#X connect 44 0 45 0;
#X connect 45 0 19 1;
#X connect 46 0 40 0;
#X connect 47 0 42 0;
#X connect 48 0 44 0;
#X connect 49 0 44 1;
#X connect 50 0 40 1;
#X connect 51 0 42 1;
#X connect 52 0 47 0;
#X connect 52 0 51 0;
#X connect 52 1 53 0;
#X connect 53 0 48 0;
#X connect 53 0 49 0;
#X connect 54 0 55 0;
#X connect 55 0 16 0;
#X connect 57 0 58 0;
#X connect 58 0 59 0;
#X connect 58 1 61 0;
#X connect 59 0 60 0;
#X connect 60 0 56 0;
#X connect 60 0 56 1;
#X connect 61 0 68 0;
#X connect 61 0 72 0;
#X connect 61 1 74 0;
#X connect 62 0 63 0;
#X connect 63 0 56 1;
#X connect 63 0 56 0;
#X connect 64 0 65 0;
#X connect 65 0 56 0;
#X connect 66 0 67 0;
#X connect 67 0 56 1;
#X connect 68 0 62 0;
#X connect 69 0 64 0;
#X connect 70 0 66 0;
#X connect 71 0 66 1;
#X connect 72 0 62 1;
#X connect 73 0 64 1;
#X connect 74 0 69 0;
#X connect 74 0 73 0;
#X connect 74 1 75 0;
#X connect 75 0 70 0;
#X connect 75 0 71 0;
#X connect 76 0 57 0;
#X connect 78 0 79 0;
#X connect 79 0 80 0;
#X connect 79 1 82 0;
#X connect 80 0 81 0;
#X connect 81 0 77 0;
#X connect 81 0 77 1;
#X connect 82 0 89 0;
#X connect 82 0 93 0;
#X connect 82 1 95 0;
#X connect 83 0 84 0;
#X connect 84 0 77 1;
#X connect 84 0 77 0;
#X connect 85 0 86 0;
#X connect 86 0 77 0;
#X connect 87 0 88 0;
#X connect 88 0 77 1;
#X connect 89 0 83 0;
#X connect 90 0 85 0;
#X connect 91 0 87 0;
#X connect 92 0 87 1;
#X connect 93 0 83 1;
#X connect 94 0 85 1;
#X connect 95 0 90 0;
#X connect 95 0 94 0;
#X connect 95 1 96 0;
#X connect 96 0 91 0;
#X connect 96 0 92 0;
#X connect 98 0 99 0;
#X connect 99 0 100 0;
#X connect 99 1 102 0;
#X connect 100 0 101 0;
#X connect 101 0 97 0;
#X connect 101 0 97 1;
#X connect 102 0 109 0;
#X connect 102 0 113 0;
#X connect 102 1 115 0;
#X connect 103 0 104 0;
#X connect 104 0 97 1;
#X connect 104 0 97 0;
#X connect 105 0 106 0;
#X connect 106 0 97 0;
#X connect 107 0 108 0;
#X connect 108 0 97 1;
#X connect 109 0 103 0;
#X connect 110 0 105 0;
#X connect 111 0 107 0;
#X connect 112 0 107 1;
#X connect 113 0 103 1;
#X connect 114 0 105 1;
#X connect 115 0 110 0;
#X connect 115 0 114 0;
#X connect 115 1 116 0;
#X connect 116 0 111 0;
#X connect 116 0 112 0;
#X connect 117 0 78 0;
#X connect 118 0 98 0;
#X connect 119 0 80 2;
#X connect 119 0 83 2;
#X connect 119 0 85 2;
#X connect 119 0 87 2;
#X connect 120 0 100 2;
#X connect 120 0 103 2;
#X connect 120 0 105 2;
#X connect 120 0 107 2;
#X connect 121 0 37 2;
#X connect 121 0 40 2;
#X connect 121 0 42 2;
#X connect 121 0 44 2;
#X connect 122 0 59 2;
#X connect 122 0 62 2;
#X connect 122 0 64 2;
#X connect 122 0 66 2;
#X connect 123 0 121 0;
#X connect 123 0 119 0;
#X connect 123 0 122 0;
#X connect 123 0 120 0;
