#N canvas 40 69 1920 976 12;
#X msg 10 46 connect 127.0.0.1 3000;
#X text 5 26 Once Processing is running click on this message.;
#X obj 506 252 print;
#X obj 415 153 udpreceive 57120;
#X obj 415 177 unpackOSC /probability;
#X obj 415 204 routeOSC /probability;
#X obj 593 174 unpackOSC /probability2;
#X obj 593 201 routeOSC /probability2;
#X obj 1566 600 t f;
#X floatatom 1568 631 5 0 0 0 - - - 0;
#X floatatom 1457 641 5 0 0 0 - - - 0;
#X obj 75 477 udpsend;
#X obj 89 440 packOSC;
#X msg 89 416 /new_clock 1;
#X obj 190 450 packOSC;
#X msg 190 426 /new_clock2 1;
#X obj 1431 739 osc~;
#X obj 1431 763 *~ 0.1;
#X obj 1429 808 dac~;
#X obj 1615 741 osc~;
#X obj 1615 765 *~ 0.1;
#X msg 1616 707 500;
#X msg 1649 707 600;
#X msg 1683 708 800;
#X msg 1759 708 1100;
#X msg 1794 708 1200;
#X msg 1718 708 400;
#X floatatom 1399 670 5 0 0 0 - - - 0;
#X floatatom 1378 748 5 0 0 0 - - - 0;
#X obj 1438 707 *;
#X obj 1436 613 t b f;
#X obj 1456 669 % 7;
#X obj 1568 662 % 7;
#X floatatom 1470 699 5 0 0 0 - - - 0;
#X floatatom 1571 733 5 0 0 0 - - - 0;
#X obj 1615 682 route 0 1 2 3 4 5;
#X obj 412 256 unpack f f;
#X obj 607 247 unpack f f;
#X obj 463 300 s cluster1;
#X obj 403 299 s boid1;
#X obj 598 287 s boid2;
#X obj 658 288 s cluster2;
#X obj 1436 571 r boid1;
#X obj 1568 567 r boid2;
#X obj 989 15 tgl 20 0 empty empty ON/OFF 17 7 0 10 #fcfcfc #000000
#000000 0 1;
#X floatatom 1487 740 5 0 0 0 - - - 0;
#X floatatom 1072 57 5 0 0 0 - - - 0;
#X obj 991 117 bng 15 250 50 0 empty empty empty 17 7 0 10 #fcfcfc
#000000 #000000;
#X obj 1074 83 s dur;
#X obj 937 77 s tog;
#X obj 204 191 r dur;
#X obj 134 221 expr $f2 / $f1;
#X floatatom 145 196 5 0 0 0 - - - 0;
#X floatatom 136 248 5 0 0 0 - - - 0;
#X obj 57 249 r tog;
#X obj 89 392 bng 15 250 50 0 empty empty empty 17 7 0 10 #fcfcfc #000000
#000000;
#X obj 341 229 r dur;
#X obj 277 258 expr $f2 / $f1;
#X floatatom 289 231 5 0 0 0 - - - 0;
#X floatatom 277 282 5 0 0 0 - - - 0;
#X obj 164 281 r tog;
#X obj 192 400 bng 15 250 50 0 empty empty empty 17 7 0 10 #fcfcfc
#000000 #000000;
#X obj 140 143 r cluster1;
#X obj 288 173 r cluster2;
#X obj 1071 8 loadbang;
#X obj 1614 802 dac~;
#X floatatom 1681 751 5 0 0 0 - - - 0;
#X text 76 103 OSC MESSAGES;
#X text 814 543 POLYPHONY;
#X text 824 16 GLOBAL METRO;
#X obj 818 628 random 25;
#X obj 818 670 + 48;
#X obj 813 792 mtof;
#X obj 806 815 osc~;
#X obj 806 842 *~;
#X obj 807 867 dac~;
#X obj 896 808 hsl 128 15 0 1 0 0 empty empty empty -2 -8 0 10 #fcfcfc
#000000 #000000 0 1;
#N canvas 12 46 1920 976 quant 0;
#X text 325 200 if present \, it goes out the first outlets if not
\, second outlet;
#X floatatom 279 200 5 0 0 0 - - - 0;
#X msg 135 240 0;
#X floatatom 99 313 5 0 0 0 - - - 0;
#X obj 142 172 % 12;
#X floatatom 94 134 5 0 0 0 - - - 0;
#X obj 140 198 select 0 2 4 7 9;
#X obj 285 250 select 0 2 4 7 9;
#X msg 284 285 -1;
#X obj 281 226 - 1;
#X obj 97 278 +;
#X msg 367 290 1;
#X obj 101 83 inlet;
#X obj 111 366 outlet;
#X connect 1 0 9 0;
#X connect 2 0 10 1;
#X connect 3 0 13 0;
#X connect 4 0 6 0;
#X connect 5 0 4 0;
#X connect 5 0 10 0;
#X connect 6 0 2 0;
#X connect 6 1 2 0;
#X connect 6 2 2 0;
#X connect 6 3 2 0;
#X connect 6 4 2 0;
#X connect 6 5 1 0;
#X connect 7 0 8 0;
#X connect 7 1 8 0;
#X connect 7 2 8 0;
#X connect 7 3 8 0;
#X connect 7 4 8 0;
#X connect 7 5 11 0;
#X connect 8 0 10 1;
#X connect 9 0 7 0;
#X connect 10 0 3 0;
#X connect 11 0 10 1;
#X connect 12 0 5 0;
#X restore 819 706 pd quant;
#X obj 1071 638 random 25;
#X obj 1066 802 mtof;
#X obj 1059 825 osc~;
#X obj 1059 852 *~;
#X obj 1060 877 dac~;
#X obj 1152 815 hsl 128 15 0 1 0 0 empty empty empty -2 -8 0 10 #fcfcfc
#000000 #000000 0 1;
#N canvas -204 68 1920 976 quant 0;
#X text 325 200 if present \, it goes out the first outlets if not
\, second outlet;
#X floatatom 279 200 5 0 0 0 - - - 0;
#X msg 135 240 0;
#X floatatom 99 313 5 0 0 0 - - - 0;
#X obj 142 172 % 12;
#X floatatom 94 134 5 0 0 0 - - - 0;
#X obj 140 198 select 0 2 4 7 9;
#X obj 285 250 select 0 2 4 7 9;
#X msg 284 285 -1;
#X obj 281 226 - 1;
#X obj 97 278 +;
#X msg 367 290 1;
#X obj 101 83 inlet;
#X obj 111 366 outlet;
#X connect 1 0 9 0;
#X connect 2 0 10 1;
#X connect 3 0 13 0;
#X connect 4 0 6 0;
#X connect 5 0 4 0;
#X connect 5 0 10 0;
#X connect 6 0 2 0;
#X connect 6 1 2 0;
#X connect 6 2 2 0;
#X connect 6 3 2 0;
#X connect 6 4 2 0;
#X connect 6 5 1 0;
#X connect 7 0 8 0;
#X connect 7 1 8 0;
#X connect 7 2 8 0;
#X connect 7 3 8 0;
#X connect 7 4 8 0;
#X connect 7 5 11 0;
#X connect 8 0 10 1;
#X connect 9 0 7 0;
#X connect 10 0 3 0;
#X connect 11 0 10 1;
#X connect 12 0 5 0;
#X restore 1072 716 pd quant;
#X obj 820 577 r boid1;
#X obj 1069 591 r boid2;
#X obj 817 604 bng 15 250 50 0 empty empty empty 17 7 0 10 #fcfcfc
#000000 #000000;
#X obj 1068 615 bng 15 250 50 0 empty empty empty 17 7 0 10 #fcfcfc
#000000 #000000;
#X obj 1071 679 + 60;
#X obj 991 150 s beat;
#X obj 991 77 metro 2000;
#X msg 1071 32 2000;
#X obj 113 317 f;
#X obj 84 284 r beat;
#X obj 238 337 f;
#X obj 209 304 r beat;
#X obj 135 685 osc~ 200;
#X obj 145 748 *~;
#X obj 197 717 vline~;
#X obj 139 789 dac~;
#X msg 219 665 1 5 \, 0 100 5;
#X obj 422 747 *~;
#X obj 474 716 vline~;
#X obj 416 788 dac~;
#X msg 496 664 1 5 \, 0 100 5;
#X obj 412 684 osc~ 500;
#X obj 205 605 r boid1;
#X obj 477 613 r boid2;
#X obj 201 633 bng 15 250 50 0 empty empty empty 17 7 0 10 #fcfcfc
#000000 #000000;
#X obj 476 637 bng 15 250 50 0 empty empty empty 17 7 0 10 #fcfcfc
#000000 #000000;
#X text 151 553 POLYRHYTHMS;
#X obj 88 363 metro 2000;
#X obj 194 373 metro 2000;
#X connect 0 0 11 0;
#X connect 3 0 4 0;
#X connect 3 0 6 0;
#X connect 4 0 5 0;
#X connect 5 0 2 0;
#X connect 5 0 36 0;
#X connect 6 0 7 0;
#X connect 7 0 2 0;
#X connect 7 0 37 0;
#X connect 8 0 9 0;
#X connect 9 0 32 0;
#X connect 10 0 31 0;
#X connect 12 0 11 0;
#X connect 13 0 12 0;
#X connect 14 0 11 0;
#X connect 15 0 14 0;
#X connect 16 0 17 0;
#X connect 17 0 18 0;
#X connect 17 0 18 1;
#X connect 19 0 20 0;
#X connect 20 0 65 0;
#X connect 20 0 65 1;
#X connect 21 0 19 0;
#X connect 22 0 19 0;
#X connect 23 0 19 0;
#X connect 24 0 19 0;
#X connect 25 0 19 0;
#X connect 26 0 19 0;
#X connect 27 0 29 0;
#X connect 29 0 16 0;
#X connect 29 0 28 0;
#X connect 30 0 29 0;
#X connect 30 1 10 0;
#X connect 31 0 29 1;
#X connect 31 0 33 0;
#X connect 32 0 34 0;
#X connect 32 0 35 0;
#X connect 35 0 21 0;
#X connect 35 1 22 0;
#X connect 35 2 23 0;
#X connect 35 3 26 0;
#X connect 35 4 24 0;
#X connect 35 4 23 0;
#X connect 35 5 25 0;
#X connect 36 0 39 0;
#X connect 36 1 38 0;
#X connect 37 0 40 0;
#X connect 37 1 41 0;
#X connect 44 0 49 0;
#X connect 44 0 91 0;
#X connect 45 0 17 1;
#X connect 46 0 48 0;
#X connect 46 0 91 1;
#X connect 47 0 90 0;
#X connect 50 0 51 1;
#X connect 51 0 53 0;
#X connect 52 0 51 0;
#X connect 53 0 93 1;
#X connect 54 0 112 0;
#X connect 55 0 13 0;
#X connect 56 0 57 1;
#X connect 57 0 59 0;
#X connect 58 0 57 0;
#X connect 59 0 95 1;
#X connect 60 0 113 0;
#X connect 61 0 15 0;
#X connect 62 0 52 0;
#X connect 63 0 58 0;
#X connect 64 0 92 0;
#X connect 66 0 20 1;
#X connect 70 0 71 0;
#X connect 71 0 77 0;
#X connect 72 0 73 0;
#X connect 73 0 74 0;
#X connect 74 0 75 0;
#X connect 74 0 75 1;
#X connect 76 0 74 1;
#X connect 77 0 72 0;
#X connect 78 0 89 0;
#X connect 79 0 80 0;
#X connect 80 0 81 0;
#X connect 81 0 82 0;
#X connect 81 0 82 1;
#X connect 83 0 81 1;
#X connect 84 0 79 0;
#X connect 85 0 87 0;
#X connect 86 0 88 0;
#X connect 87 0 70 0;
#X connect 88 0 78 0;
#X connect 89 0 84 0;
#X connect 91 0 47 0;
#X connect 92 0 46 0;
#X connect 93 0 112 1;
#X connect 94 0 93 0;
#X connect 95 0 113 1;
#X connect 96 0 95 0;
#X connect 97 0 98 0;
#X connect 98 0 100 0;
#X connect 98 0 100 1;
#X connect 99 0 98 1;
#X connect 101 0 99 0;
#X connect 102 0 104 0;
#X connect 102 0 104 1;
#X connect 103 0 102 1;
#X connect 105 0 103 0;
#X connect 106 0 102 0;
#X connect 107 0 109 0;
#X connect 108 0 110 0;
#X connect 109 0 101 0;
#X connect 110 0 105 0;
#X connect 112 0 55 0;
#X connect 113 0 61 0;
