#N canvas 0 25 1920 976 12;
#X obj 102 143 tgl 20 0 empty empty ON/OFF 17 7 0 10 #fcfcfc #000000
#000000 0 1;
#X floatatom 185 265 5 0 0 0 - - - 0;
#X obj 104 309 bng 15 250 50 0 empty empty empty 17 7 0 10 #fcfcfc
#000000 #000000;
#X obj 191 291 s dur;
#X obj 184 141 loadbang;
#X text 12 143 GLOBAL METRO;
#X obj 104 348 s beat;
#X obj 104 285 metro 4000;
#X text 715 -54 Rhythms;
#X obj 185 313 / 4;
#X obj 185 353 s pulse;
#X msg 759 -33 1 0 1 0 1 0 1 1 0 0 1 0 0 0 1;
#X obj 201 530 f;
#X obj 234 530 + 1;
#X obj 201 554 % 2;
#X obj 200 585 sel 0 1;
#X msg 759 -11 1 0 1 0 0 0 1 0 1 0 0 1 0 0 0 0;
#X obj 181 649 kick;
#X obj 184 694 dac~;
#X floatatom 273 602 5 0 0 0 - - - 0;
#X obj 170 462 spigot;
#X obj 240 413 tgl 20 0 empty empty ON/OFF 17 7 0 10 #fcfcfc #000000
#000000 0 1;
#X obj 496 680 dac~;
#X obj 19 73 Processing2Pure, f 40;
#X text 98 44 change the port;
#X msg 19 45 port 57120;
#X msg 674 134 1 1 1 0 0 0 0 0 1 0 0 0 0 0 0 0;
#X obj 495 187 sample;
#X obj 231 227 * 60000;
#X floatatom 231 182 5 0 0 0 - - - 0;
#X obj 231 204 expr 1/$f1;
#X text 269 182 BPM;
#X text 224 264 ms;
#X msg 184 163 120;
#X obj 102 176 s GlobalTog;
#X msg 18 -60 connect 127.0.0.1 3000;
#X text 13 -80 Once Processing is running click on this message.;
#X obj 547 306 sample;
#X obj 636 425 sample;
#X obj 734 528 sample;
#X msg 726 253 1 0 1 0 1 0 1 1 0 0 1 0 0 0 1;
#X msg 815 372 1 0 1 0 1 0 1 0 1 0 0 1 0 0 0 0;
#X msg 913 475 1 0 0 0 0 0 0 0 1 0 0 0 0 0 0 0;
#X obj 515 105 bng 15 250 50 0 empty empty empty 17 7 0 10 #fcfcfc
#000000 #000000;
#X obj 495 104 bng 15 250 50 0 empty empty empty 17 7 0 10 #fcfcfc
#000000 #000000;
#X obj 534 104 bng 15 250 50 0 empty empty empty 17 7 0 10 #fcfcfc
#000000 #000000;
#X obj 554 104 bng 15 250 50 0 empty empty empty 17 7 0 10 #fcfcfc
#000000 #000000;
#X obj 1220 128 bng 15 250 50 0 empty empty empty 17 7 0 10 #fcfcfc
#000000 #000000;
#X obj 1200 127 bng 15 250 50 0 empty empty empty 17 7 0 10 #fcfcfc
#000000 #000000;
#X obj 1239 127 bng 15 250 50 0 empty empty empty 17 7 0 10 #fcfcfc
#000000 #000000;
#X obj 1259 127 bng 15 250 50 0 empty empty empty 17 7 0 10 #fcfcfc
#000000 #000000;
#X obj 1201 196 sample;
#X obj 1218 664 dac~;
#X msg 1380 143 1 0 1 0 0 0 1 0 1 0 0 1 0 0 0 0;
#X obj 1270 307 sample;
#X msg 1449 254 1 0 1 0 1 0 1 1 0 0 1 0 0 0 1 0;
#X obj 1313 439 sample;
#X msg 1492 386 1 0 1 0 1 0 1 1 0 0 1 0 0 0 1 0;
#X obj 1350 549 sample;
#X msg 1529 496 1 1 1 0 1 0 1 1 0 0 1 0 0 0 1 0;
#X obj 1201 74 % 4;
#X obj 1200 102 sel 0 1 2 3, f 21;
#X obj 493 -3 r plAbs0;
#X obj 1199 17 r plAbs1;
#X obj 494 24 - 1;
#X obj 495 53 % 4;
#X obj 495 79 sel 0 1 2 3, f 21;
#X obj 1199 44 - 1;
#X msg 968 119 0 1 2 3;
#X obj 968 143 unpack f f f f;
#X obj 223 648 kick;
#X obj 950 46 loadbang;
#X obj 19 -30 PolyrhClock2Processing;
#X obj 495 162 mel_pattern, f 26;
#X obj 547 281 mel_pattern, f 26;
#X obj 636 400 mel_pattern, f 26;
#X obj 734 503 mel_pattern, f 26;
#X obj 1201 171 mel_pattern, f 26;
#X obj 1270 282 mel_pattern, f 26;
#X obj 1313 414 mel_pattern, f 26;
#X obj 1350 524 mel_pattern, f 26;
#X obj 507 1451 dac~;
#X msg 685 905 1 1 1 0 0 0 0 0 1 0 0 0 0 0 0 0;
#X obj 506 958 sample;
#X obj 558 1077 sample;
#X obj 647 1196 sample;
#X obj 745 1299 sample;
#X msg 737 1024 1 0 1 0 1 0 1 1 0 0 1 0 0 0 1;
#X msg 826 1143 1 0 1 0 1 0 1 0 1 0 0 1 0 0 0 0;
#X msg 924 1246 1 0 0 0 0 0 0 0 1 0 0 0 0 0 0 0;
#X obj 526 876 bng 15 250 50 0 empty empty empty 17 7 0 10 #fcfcfc
#000000 #000000;
#X obj 506 875 bng 15 250 50 0 empty empty empty 17 7 0 10 #fcfcfc
#000000 #000000;
#X obj 545 875 bng 15 250 50 0 empty empty empty 17 7 0 10 #fcfcfc
#000000 #000000;
#X obj 565 875 bng 15 250 50 0 empty empty empty 17 7 0 10 #fcfcfc
#000000 #000000;
#X obj 1231 899 bng 15 250 50 0 empty empty empty 17 7 0 10 #fcfcfc
#000000 #000000;
#X obj 1211 898 bng 15 250 50 0 empty empty empty 17 7 0 10 #fcfcfc
#000000 #000000;
#X obj 1250 898 bng 15 250 50 0 empty empty empty 17 7 0 10 #fcfcfc
#000000 #000000;
#X obj 1270 898 bng 15 250 50 0 empty empty empty 17 7 0 10 #fcfcfc
#000000 #000000;
#X obj 1212 967 sample;
#X obj 1229 1435 dac~;
#X msg 1391 914 1 0 1 0 0 0 1 0 1 0 0 1 0 0 0 0;
#X obj 1281 1078 sample;
#X msg 1460 1025 1 0 1 0 1 0 1 1 0 0 1 0 0 0 1 0;
#X obj 1324 1210 sample;
#X msg 1503 1157 1 0 1 0 1 0 1 1 0 0 1 0 0 0 1 0;
#X obj 1361 1320 sample;
#X msg 1540 1267 1 1 1 0 1 0 1 1 0 0 1 0 0 0 1 0;
#X obj 1212 845 % 4;
#X obj 1211 873 sel 0 1 2 3, f 21;
#X obj 505 795 - 1;
#X obj 506 824 % 4;
#X obj 506 850 sel 0 1 2 3, f 21;
#X obj 1210 815 - 1;
#X obj 979 914 unpack f f f f;
#X obj 961 817 loadbang;
#X obj 506 933 mel_pattern, f 26;
#X obj 558 1052 mel_pattern, f 26;
#X obj 647 1171 mel_pattern, f 26;
#X obj 745 1274 mel_pattern, f 26;
#X obj 1212 942 mel_pattern, f 26;
#X obj 1281 1053 mel_pattern, f 26;
#X obj 1324 1185 mel_pattern, f 26;
#X obj 1361 1295 mel_pattern, f 26;
#X msg 979 890 4 5 6 7;
#X obj 503 763 r plAbs2;
#X obj 1210 778 r plAbs3;
#X connect 0 0 7 0;
#X connect 0 0 34 0;
#X connect 1 0 7 1;
#X connect 1 0 3 0;
#X connect 1 0 9 0;
#X connect 2 0 6 0;
#X connect 2 0 20 0;
#X connect 4 0 33 0;
#X connect 7 0 2 0;
#X connect 9 0 10 0;
#X connect 12 0 13 0;
#X connect 12 0 14 0;
#X connect 13 0 12 1;
#X connect 14 0 15 0;
#X connect 15 0 17 0;
#X connect 15 1 70 0;
#X connect 17 0 18 0;
#X connect 17 0 18 1;
#X connect 19 0 17 1;
#X connect 19 0 70 1;
#X connect 20 0 12 0;
#X connect 21 0 20 1;
#X connect 25 0 23 0;
#X connect 26 0 73 1;
#X connect 27 0 22 0;
#X connect 28 0 1 0;
#X connect 29 0 30 0;
#X connect 30 0 28 0;
#X connect 33 0 29 0;
#X connect 35 0 72 0;
#X connect 37 0 22 1;
#X connect 38 0 22 0;
#X connect 39 0 22 1;
#X connect 40 0 74 1;
#X connect 41 0 75 1;
#X connect 42 0 76 1;
#X connect 43 0 74 0;
#X connect 44 0 73 0;
#X connect 45 0 75 0;
#X connect 46 0 76 0;
#X connect 47 0 78 0;
#X connect 48 0 77 0;
#X connect 49 0 79 0;
#X connect 50 0 80 0;
#X connect 51 0 52 0;
#X connect 53 0 77 1;
#X connect 54 0 52 1;
#X connect 55 0 78 1;
#X connect 56 0 52 0;
#X connect 57 0 79 1;
#X connect 58 0 52 1;
#X connect 59 0 80 1;
#X connect 60 0 61 0;
#X connect 61 0 48 0;
#X connect 61 1 47 0;
#X connect 61 2 49 0;
#X connect 61 3 50 0;
#X connect 62 0 64 0;
#X connect 63 0 67 0;
#X connect 64 0 65 0;
#X connect 65 0 66 0;
#X connect 66 0 44 0;
#X connect 66 1 43 0;
#X connect 66 2 45 0;
#X connect 66 3 46 0;
#X connect 67 0 60 0;
#X connect 68 0 69 0;
#X connect 69 0 27 1;
#X connect 69 0 51 1;
#X connect 69 1 37 1;
#X connect 69 1 54 1;
#X connect 69 2 38 1;
#X connect 69 2 56 1;
#X connect 69 3 39 1;
#X connect 69 3 58 1;
#X connect 70 0 18 1;
#X connect 70 0 18 0;
#X connect 71 0 68 0;
#X connect 73 0 27 0;
#X connect 74 0 37 0;
#X connect 75 0 38 0;
#X connect 76 0 39 0;
#X connect 77 0 51 0;
#X connect 78 0 54 0;
#X connect 79 0 56 0;
#X connect 80 0 58 0;
#X connect 82 0 115 1;
#X connect 83 0 81 0;
#X connect 84 0 81 1;
#X connect 85 0 81 0;
#X connect 86 0 81 1;
#X connect 87 0 116 1;
#X connect 88 0 117 1;
#X connect 89 0 118 1;
#X connect 90 0 116 0;
#X connect 91 0 115 0;
#X connect 92 0 117 0;
#X connect 93 0 118 0;
#X connect 94 0 120 0;
#X connect 95 0 119 0;
#X connect 96 0 121 0;
#X connect 97 0 122 0;
#X connect 98 0 99 0;
#X connect 100 0 119 1;
#X connect 101 0 99 1;
#X connect 102 0 120 1;
#X connect 103 0 99 0;
#X connect 104 0 121 1;
#X connect 105 0 99 1;
#X connect 106 0 122 1;
#X connect 107 0 108 0;
#X connect 108 0 95 0;
#X connect 108 1 94 0;
#X connect 108 2 96 0;
#X connect 108 3 97 0;
#X connect 109 0 110 0;
#X connect 110 0 111 0;
#X connect 111 0 91 0;
#X connect 111 1 90 0;
#X connect 111 2 92 0;
#X connect 111 3 93 0;
#X connect 112 0 107 0;
#X connect 113 0 83 1;
#X connect 113 0 98 1;
#X connect 113 1 84 1;
#X connect 113 1 101 1;
#X connect 113 2 85 1;
#X connect 113 2 103 1;
#X connect 113 3 86 1;
#X connect 113 3 105 1;
#X connect 114 0 123 0;
#X connect 115 0 83 0;
#X connect 116 0 84 0;
#X connect 117 0 85 0;
#X connect 118 0 86 0;
#X connect 119 0 98 0;
#X connect 120 0 101 0;
#X connect 121 0 103 0;
#X connect 122 0 105 0;
#X connect 123 0 113 0;
#X connect 124 0 109 0;
#X connect 125 0 112 0;
