#N canvas 0 25 1440 776 12;
#X obj 102 143 tgl 20 0 empty empty ON/OFF 17 7 0 10 #fcfcfc #000000
#000000 0 1;
#X floatatom 185 265 5 0 0 0 - - - 0;
#X obj 104 309 bng 15 250 50 0 empty empty empty 17 7 0 10 #fcfcfc
#000000 #000000;
#X obj 191 291 s dur;
#X obj 184 141 loadbang;
#X text 12 143 GLOBAL METRO;
#X obj 104 348 s beat;
#X obj 104 285 metro 4000;
#X text 715 -54 Rhythms;
#X obj 674 164 s jump;
#X obj 185 313 / 4;
#X obj 185 353 s pulse;
#X msg 759 -33 1 0 1 0 1 0 1 1 0 0 1 0 0 0 1;
#X obj 201 530 f;
#X obj 234 530 + 1;
#X obj 201 554 % 2;
#X obj 200 585 sel 0 1;
#X msg 759 -11 1 0 1 0 0 0 1 0 1 0 0 1 0 0 0 0;
#X obj 181 649 kick;
#X obj 223 648 snare;
#X obj 184 694 dac~;
#X floatatom 273 602 5 0 0 0 - - - 0;
#X obj 170 462 spigot;
#X obj 240 413 tgl 20 0 empty empty ON/OFF 17 7 0 10 #fcfcfc #000000
#000000 0 1;
#X obj 496 659 dac~;
#X obj 19 28 Processing2Pure, f 40;
#X text 98 -1 change the port;
#X msg 19 0 port 57120;
#X msg 674 113 1 1 1 0 0 0 0 0 1 0 0 0 0 0 0 0;
#X obj 495 166 sample;
#X obj 231 227 * 60000;
#X floatatom 231 182 5 0 0 0 - - - 0;
#X obj 231 204 expr 1/$f1;
#X text 269 182 BPM;
#X text 224 264 ms;
#X msg 184 163 120;
#X obj 102 176 s GlobalTog;
#N canvas 36 25 838 775 Clocks 0;
#X obj 12 157 cellClock;
#X obj 53 119 r GlobalTog;
#X obj 137 119 r pulse;
#X obj 193 119 r jump;
#X obj 13 329 cellClock;
#X obj 54 291 r GlobalTog;
#X obj 138 291 r pulse;
#X obj 194 291 r jump;
#X obj 10 489 cellClock;
#X obj 51 451 r GlobalTog;
#X obj 135 451 r pulse;
#X obj 191 451 r jump;
#X obj 10 633 cellClock;
#X obj 51 595 r GlobalTog;
#X obj 135 595 r pulse;
#X obj 191 595 r jump;
#X obj 441 129 clock2Processing, f 33;
#X obj 8 54 inlet;
#X connect 1 0 0 1;
#X connect 2 0 0 2;
#X connect 3 0 0 3;
#X connect 5 0 4 1;
#X connect 6 0 4 2;
#X connect 7 0 4 3;
#X connect 9 0 8 1;
#X connect 10 0 8 2;
#X connect 11 0 8 3;
#X connect 13 0 12 1;
#X connect 14 0 12 2;
#X connect 15 0 12 3;
#X connect 17 0 0 0;
#X connect 17 0 4 0;
#X connect 17 0 8 0;
#X connect 17 0 12 0;
#X connect 17 0 16 0;
#X restore 19 -39 pd Clocks;
#X msg 18 -60 connect 127.0.0.1 3000;
#X text 13 -80 Once Processing is running click on this message.;
#X floatatom 584 111 5 0 16 0 - - - 0;
#X obj 726 283 s jump;
#X obj 547 285 sample;
#X floatatom 636 230 5 0 16 0 - - - 0;
#X obj 815 402 s jump;
#X obj 636 404 sample;
#X floatatom 725 349 5 0 16 0 - - - 0;
#X obj 913 505 s jump;
#X obj 734 507 sample;
#X floatatom 823 452 5 0 16 0 - - - 0;
#X msg 726 232 1 0 1 0 1 0 1 1 0 0 1 0 0 0 1;
#X msg 815 351 1 0 1 0 1 0 1 0 1 0 0 1 0 0 0 0;
#X msg 913 454 1 0 0 0 0 0 0 0 1 0 0 0 0 0 0 0;
#X obj 515 84 bng 15 250 50 0 empty empty empty 17 7 0 10 #fcfcfc #000000
#000000;
#X floatatom 1211 8 5 0 0 0 - - - 0;
#X obj 495 83 bng 15 250 50 0 empty empty empty 17 7 0 10 #fcfcfc #000000
#000000;
#X obj 534 83 bng 15 250 50 0 empty empty empty 17 7 0 10 #fcfcfc #000000
#000000;
#X obj 554 83 bng 15 250 50 0 empty empty empty 17 7 0 10 #fcfcfc #000000
#000000;
#X obj 1232 84 bng 15 250 50 0 empty empty empty 17 7 0 10 #fcfcfc
#000000 #000000;
#X obj 1212 34 % 5;
#X obj 1212 83 bng 15 250 50 0 empty empty empty 17 7 0 10 #fcfcfc
#000000 #000000;
#X obj 1251 83 bng 15 250 50 0 empty empty empty 17 7 0 10 #fcfcfc
#000000 #000000;
#X obj 1271 83 bng 15 250 50 0 empty empty empty 17 7 0 10 #fcfcfc
#000000 #000000;
#X obj 1392 150 s jump;
#X obj 1213 152 sample;
#X floatatom 1302 97 5 0 16 0 - - - 0;
#X obj 1230 620 dac~;
#X msg 1392 99 1 0 1 0 0 0 1 0 1 0 0 1 0 0 0 0;
#X obj 1461 261 s jump;
#X obj 1282 263 sample;
#X floatatom 1371 208 5 0 16 0 - - - 0;
#X msg 1461 210 1 0 1 0 1 0 1 1 0 0 1 0 0 0 1 0;
#X obj 1504 393 s jump;
#X obj 1325 395 sample;
#X floatatom 1414 340 5 0 16 0 - - - 0;
#X msg 1504 342 1 0 1 0 1 0 1 1 0 0 1 0 0 0 1 0;
#X obj 1541 503 s jump;
#X obj 1362 505 sample;
#X floatatom 1451 450 5 0 16 0 - - - 0;
#X msg 1541 452 1 1 1 0 1 0 1 1 0 0 1 0 0 0 1 0;
#X obj 495 32 % 5;
#X obj 495 58 sel 1 2 3 4 0, f 21;
#X obj 495 6 r plAbs1;
#X obj 1211 -16 r plAbs2;
#X obj 1212 58 sel 1 2 3 4 0, f 21;
#X floatatom 436 29 5 0 0 0 - - - 0;
#X floatatom 438 59 5 0 0 0 - - - 0;
#X floatatom 1153 53 5 0 0 0 - - - 0;
#X obj 495 141 rh_pattern2, f 26;
#X obj 547 260 rh_pattern2, f 26;
#X obj 636 379 rh_pattern2, f 26;
#X obj 734 482 rh_pattern2, f 26;
#X obj 1213 127 rh_pattern2, f 26;
#X obj 1282 238 rh_pattern2, f 26;
#X obj 1325 370 rh_pattern2, f 26;
#X obj 1362 480 rh_pattern2, f 26;
#X connect 0 0 7 0;
#X connect 0 0 36 0;
#X connect 1 0 7 1;
#X connect 1 0 3 0;
#X connect 1 0 10 0;
#X connect 2 0 6 0;
#X connect 2 0 22 0;
#X connect 4 0 35 0;
#X connect 7 0 2 0;
#X connect 10 0 11 0;
#X connect 13 0 14 0;
#X connect 13 0 15 0;
#X connect 14 0 13 1;
#X connect 15 0 16 0;
#X connect 16 0 18 0;
#X connect 16 1 19 0;
#X connect 18 0 20 0;
#X connect 18 0 20 1;
#X connect 19 0 20 1;
#X connect 19 0 20 0;
#X connect 21 0 18 1;
#X connect 21 0 19 1;
#X connect 22 0 13 0;
#X connect 23 0 22 1;
#X connect 27 0 25 0;
#X connect 28 0 88 2;
#X connect 29 0 24 0;
#X connect 30 0 1 0;
#X connect 31 0 32 0;
#X connect 32 0 30 0;
#X connect 35 0 31 0;
#X connect 38 0 37 0;
#X connect 40 0 88 1;
#X connect 42 0 24 1;
#X connect 43 0 89 1;
#X connect 45 0 24 0;
#X connect 46 0 90 1;
#X connect 48 0 24 1;
#X connect 49 0 91 1;
#X connect 50 0 89 2;
#X connect 51 0 90 2;
#X connect 52 0 91 2;
#X connect 53 0 89 0;
#X connect 54 0 59 0;
#X connect 55 0 88 0;
#X connect 56 0 90 0;
#X connect 57 0 91 0;
#X connect 58 0 93 0;
#X connect 59 0 84 0;
#X connect 59 0 87 0;
#X connect 60 0 92 0;
#X connect 61 0 94 0;
#X connect 62 0 95 0;
#X connect 64 0 66 0;
#X connect 65 0 92 1;
#X connect 67 0 92 2;
#X connect 69 0 66 1;
#X connect 70 0 93 1;
#X connect 71 0 93 2;
#X connect 73 0 66 0;
#X connect 74 0 94 1;
#X connect 75 0 94 2;
#X connect 77 0 66 1;
#X connect 78 0 95 1;
#X connect 79 0 95 2;
#X connect 80 0 81 0;
#X connect 80 0 86 0;
#X connect 81 0 55 0;
#X connect 81 1 53 0;
#X connect 81 2 56 0;
#X connect 81 3 57 0;
#X connect 82 0 80 0;
#X connect 82 0 85 0;
#X connect 83 0 54 0;
#X connect 84 0 60 0;
#X connect 84 1 58 0;
#X connect 84 2 61 0;
#X connect 84 3 62 0;
#X connect 85 0 80 0;
#X connect 88 0 29 0;
#X connect 88 1 9 0;
#X connect 89 0 42 0;
#X connect 89 1 41 0;
#X connect 90 0 45 0;
#X connect 90 1 44 0;
#X connect 91 0 48 0;
#X connect 91 1 47 0;
#X connect 92 0 64 0;
#X connect 92 1 63 0;
#X connect 93 0 69 0;
#X connect 93 1 68 0;
#X connect 94 0 73 0;
#X connect 94 1 72 0;
#X connect 95 0 77 0;
#X connect 95 1 76 0;
