#N canvas 0 25 1440 776 12;
#X msg 233 74 connect 127.0.0.1 3000;
#X text 228 54 Once Processing is running click on this message.;
#X obj 480 114 Processing2Pure;
#X text 559 85 change the port;
#X msg 480 86 port 57120;
#X obj 233 98 clock2Processing, f 33;
#X msg 195 266 0;
#X msg 230 268 1;
#X obj 100 276 bng 15 250 50 0 empty empty empty 17 7 0 10 #fcfcfc
#000000 #000000;
#X obj 101 33 tgl 35 0 empty empty ON/OFF 40 7 0 10 #c7c6ff #e3c6ff
#e3c6ff 0 1;
#X floatatom 181 52 5 0 0 0 - - - 0;
#X obj 101 97 bng 15 250 50 0 empty empty empty 17 7 0 10 #fcfcfc #000000
#000000;
#X obj 181 80 s dur;
#X obj 47 74 s tog;
#X obj 181 8 loadbang;
#X text 13 41 GLOBAL METRO;
#X obj 101 117 s beat;
#X obj 101 74 metro 2000;
#X listbox 100 319 4 0 0 0 - - - 0;
#X listbox 123 340 4 0 0 0 - - - 0;
#X listbox 148 364 4 0 0 0 - - - 0;
#X listbox 171 385 4 0 0 0 - - - 0;
#X floatatom 100 452 5 0 0 0 - - - 0;
#X floatatom 124 502 5 0 0 0 - - - 0;
#X obj 153 526 note2midi;
#X floatatom 153 550 5 0 0 0 - - - 0;
#X floatatom 177 600 5 0 0 0 - - - 0;
#X msg 532 275 0;
#X msg 567 275 1;
#X obj 437 285 bng 15 250 50 0 empty empty empty 17 7 0 10 #fcfcfc
#000000 #000000;
#X obj 437 437 note2midi;
#X listbox 437 328 4 0 0 0 - - - 0;
#X listbox 460 349 4 0 0 0 - - - 0;
#X listbox 485 373 4 0 0 0 - - - 0;
#X listbox 508 394 4 0 0 0 - - - 0;
#X floatatom 437 461 5 0 0 0 - - - 0;
#X floatatom 461 511 5 0 0 0 - - - 0;
#X floatatom 490 559 5 0 0 0 - - - 0;
#X floatatom 514 609 5 0 0 0 - - - 0;
#X obj 437 260 r beat;
#X obj 83 659 f;
#X obj 111 659 f;
#X obj 139 659 f;
#X obj 167 659 f;
#X obj 428 663 f;
#X obj 456 663 f;
#X obj 484 663 f;
#X obj 512 663 f;
#X msg 116 708 1 \$1;
#X msg 79 708 0 \$1;
#X msg 153 708 2 \$1;
#X floatatom 78 687 5 0 0 0 - - - 0;
#X floatatom 115 687 5 0 0 0 - - - 0;
#X floatatom 152 687 5 0 0 0 - - - 0;
#X msg 190 708 3 \$1;
#X floatatom 189 687 5 0 0 0 - - - 0;
#X obj 78 740 clone karplus~ 4;
#X msg 463 716 1 \$1;
#X msg 425 717 0 \$1;
#X msg 500 716 2 \$1;
#X floatatom 425 695 5 0 0 0 - - - 0;
#X floatatom 462 695 5 0 0 0 - - - 0;
#X floatatom 499 695 5 0 0 0 - - - 0;
#X msg 537 716 3 \$1;
#X floatatom 536 695 5 0 0 0 - - - 0;
#X obj 425 748 clone karplus~ 4;
#X obj 437 304 chords, f 14;
#X obj 100 295 chords, f 14;
#X obj 100 428 note2midi;
#X obj 124 478 note2midi;
#X obj 177 576 note2midi;
#X obj 461 487 note2midi;
#X obj 490 535 note2midi;
#X obj 514 585 note2midi;
#X obj 138 979 lop~ 1000;
#X obj 511 1058 dac~;
#X obj 427 978 lop~ 1000;
#X obj 69 193 r plRel0;
#X obj 404 212 r plRel1;
#X msg 774 311 0;
#X msg 809 311 1;
#X obj 679 321 bng 15 250 50 0 empty empty empty 17 7 0 10 #fcfcfc
#000000 #000000;
#X obj 679 473 note2midi;
#X listbox 679 364 4 0 0 0 - - - 0;
#X listbox 702 385 4 0 0 0 - - - 0;
#X listbox 727 409 4 0 0 0 - - - 0;
#X listbox 750 430 4 0 0 0 - - - 0;
#X floatatom 679 497 5 0 0 0 - - - 0;
#X floatatom 703 547 5 0 0 0 - - - 0;
#X floatatom 732 595 5 0 0 0 - - - 0;
#X floatatom 756 645 5 0 0 0 - - - 0;
#X obj 679 296 r beat;
#X obj 670 699 f;
#X obj 698 699 f;
#X obj 726 699 f;
#X obj 754 699 f;
#X msg 705 752 1 \$1;
#X msg 668 752 0 \$1;
#X msg 742 752 2 \$1;
#X floatatom 667 731 5 0 0 0 - - - 0;
#X floatatom 704 731 5 0 0 0 - - - 0;
#X floatatom 741 731 5 0 0 0 - - - 0;
#X msg 779 752 3 \$1;
#X floatatom 778 731 5 0 0 0 - - - 0;
#X obj 667 784 clone karplus~ 4;
#X obj 679 340 chords, f 14;
#X obj 703 523 note2midi;
#X obj 732 571 note2midi;
#X obj 756 621 note2midi;
#X obj 666 977 lop~ 1000;
#X obj 641 249 r plRel2;
#X msg 1040 302 0;
#X msg 1075 302 1;
#X obj 945 312 bng 15 250 50 0 empty empty empty 17 7 0 10 #fcfcfc
#000000 #000000;
#X obj 945 464 note2midi;
#X listbox 945 355 4 0 0 0 - - - 0;
#X listbox 968 376 4 0 0 0 - - - 0;
#X listbox 993 400 4 0 0 0 - - - 0;
#X listbox 1016 421 4 0 0 0 - - - 0;
#X floatatom 945 488 5 0 0 0 - - - 0;
#X floatatom 969 538 5 0 0 0 - - - 0;
#X floatatom 998 586 5 0 0 0 - - - 0;
#X floatatom 1022 636 5 0 0 0 - - - 0;
#X obj 945 287 r beat;
#X obj 936 690 f;
#X obj 964 690 f;
#X obj 992 690 f;
#X obj 1020 690 f;
#X msg 971 743 1 \$1;
#X msg 934 743 0 \$1;
#X msg 1008 743 2 \$1;
#X floatatom 933 722 5 0 0 0 - - - 0;
#X floatatom 970 722 5 0 0 0 - - - 0;
#X floatatom 1007 722 5 0 0 0 - - - 0;
#X msg 1045 743 3 \$1;
#X floatatom 1044 722 5 0 0 0 - - - 0;
#X obj 933 775 clone karplus~ 4;
#X obj 945 331 chords, f 14;
#X obj 969 514 note2midi;
#X obj 998 562 note2midi;
#X obj 1022 612 note2midi;
#X obj 935 976 lop~ 1000;
#X obj 889 262 r plRel3;
#X msg 181 30 4000;
#X obj 1170 490 paf~;
#X obj 1222 417 r centerfreq1;
#X obj 1266 438 r bandwidth1;
#X obj 1313 459 r ampiezza1;
#X floatatom 1377 421 5 0 0 0 - - - 0;
#X obj 1090 418 mtof;
#X obj 1175 397 * 10;
#X obj 137 251 r beat;
#X obj 32 660 bng 15 250 50 0 empty empty empty 17 7 0 10 #fcfcfc #000000
#000000;
#X floatatom 93 217 5 0 0 0 - - - 0;
#X obj 404 258 % 4;
#X floatatom 396 353 5 0 0 0 - - - 0;
#X obj 427 632 sel 0 1 2 3 4 5 6 7 8;
#X obj 641 296 % 4;
#X floatatom 641 320 5 0 0 0 - - - 0;
#X floatatom 48 288 5 0 0 0 - - - 0;
#X obj 889 314 % 4;
#X floatatom 889 338 5 0 0 0 - - - 0;
#X obj 332 28 loadbang;
#X msg 684 98 \; pd dsp \$1;
#X obj 684 80 tgl 15 0 empty empty empty 17 7 0 10 #fcfcfc #000000
#000000 0 1;
#X obj 570 198 loadbang;
#X obj 138 957 *~;
#X obj 166 938 line~;
#X obj 528 936 line~;
#X floatatom 528 822 5 0 0 0 - - - 0;
#X obj 425 950 *~;
#X obj 528 800 r length1;
#X obj 667 955 *~;
#X obj 787 936 line~;
#X floatatom 787 820 5 0 0 0 - - - 0;
#X obj 787 798 r length2;
#X floatatom 166 822 5 0 0 0 - - - 0;
#X obj 166 800 r length0;
#X floatatom 166 868 8 0 0 0 - - - 0;
#X floatatom 528 868 5 0 0 0 - - - 0;
#X floatatom 787 863 5 0 0 0 - - - 0;
#X floatatom 1072 805 5 0 0 0 - - - 0;
#X floatatom 1072 849 5 0 0 0 - - - 0;
#X obj 935 954 *~;
#X obj 1072 923 line~;
#X obj 1072 783 r length3;
#X obj 166 844 expr exp((1 - $f1)/10);
#X obj 528 844 expr exp((1 - $f1)/10);
#X obj 787 841 expr exp((1 - $f1)/10);
#X obj 1072 825 expr exp((1 - $f1)/10);
#X obj 669 668 sel 0 1 2 3 4 5 6 7 8;
#X obj 935 659 sel 0 1 2 3 4 5 6 7 8;
#X obj 49 240 - 1;
#X obj 404 236 - 1;
#X obj 641 273 - 1;
#X obj 889 286 - 1;
#X obj 166 891 max 0.1;
#X obj 528 889 max 0.1;
#X obj 787 886 max 0.1;
#X obj 1072 872 max 0.1;
#X listbox 216 318 4 0 0 0 - - - 0;
#X listbox 239 341 4 0 0 0 - - - 0;
#X listbox 264 365 4 0 0 0 - - - 0;
#X listbox 287 386 4 0 0 0 - - - 0;
#X floatatom 216 453 5 0 0 0 - - - 0;
#X floatatom 240 503 5 0 0 0 - - - 0;
#X obj 269 527 note2midi;
#X floatatom 269 551 5 0 0 0 - - - 0;
#X floatatom 293 601 5 0 0 0 - - - 0;
#X obj 199 660 f;
#X obj 227 660 f;
#X obj 255 660 f;
#X obj 283 660 f;
#X obj 216 429 note2midi;
#X obj 240 479 note2midi;
#X obj 293 577 note2midi;
#X obj 82 628 sel 0 1 2 3 4 5 6 7;
#X obj 48 264 % 8;
#X floatatom 263 908 5 0 0 0 - - - 0;
#X obj 166 913 pack f 2000;
#X obj 528 911 pack f 2000;
#X obj 787 911 pack f 2000;
#X obj 1072 899 pack f 2000;
#X obj 774 145 bng 15 250 50 0 empty empty empty 17 7 0 10 #fcfcfc
#000000 #000000;
#X obj 1170 609 dac~;
#X obj 1291 694 paf~;
#X obj 1343 621 r centerfreq1;
#X obj 1387 642 r bandwidth1;
#X obj 1434 663 r ampiezza1;
#X floatatom 1497 625 5 0 0 0 - - - 0;
#X obj 1211 622 mtof;
#X obj 1296 601 * 10;
#X obj 1211 646 * 0.25;
#X obj 1291 813 dac~;
#X msg 943 126 147 168 192 196 224 256 288 294;
#X obj 943 150 unpack f f f f f f f f;
#X obj 948 180 ftom;
#X obj 979 201 ftom;
#X obj 1007 222 ftom;
#X obj 1016 194 ftom;
#X obj 1046 213 ftom;
#X obj 1087 228 ftom;
#X obj 1067 185 ftom;
#X obj 1108 200 ftom;
#X text 1101 82 13/12 * 8/7 * 4/3;
#X msg 907 88 273 312 336 364 416 448 504 546;
#X msg 907 65 26 28 32 36 39 42 48 52;
#X text 1056 63 13/12 * 14/13 * 8/7;
#X msg 907 42 231 252 288 308 336 384 432 462;
#X text 1103 39 77/72 * 12/11 * 8/7;
#X msg 907 20 147 168 192 196 224 256 288 294;
#X text 1102 20 al-farabi;
#X msg 907 -3 693 756 792 924 1008 1056 1232 1386;
#X msg 907 -27 5394 5568 5952 7192 8091 8352 8928 10788;
#X obj 1226 193 8stepsequencer;
#X floatatom 1316 159 5 0 0 0 - - - 0;
#X obj 1215 233 f;
#X obj 1236 263 f;
#X obj 1262 289 f;
#X obj 1293 320 f;
#X obj 1266 229 f;
#X obj 1293 260 f;
#X obj 1317 289 f;
#X obj 1341 314 f;
#X obj 1209 448 * 1;
#X msg 793 -28 648 729 768 864 972 1024 1152 1296;
#X obj 1090 442 * 0.125;
#X obj 1227 155 r beat;
#X connect 0 0 5 0;
#X connect 4 0 2 0;
#X connect 6 0 67 1;
#X connect 7 0 67 1;
#X connect 8 0 67 0;
#X connect 9 0 13 0;
#X connect 9 0 17 0;
#X connect 10 0 12 0;
#X connect 10 0 17 1;
#X connect 11 0 16 0;
#X connect 14 0 143 0;
#X connect 17 0 11 0;
#X connect 18 0 68 0;
#X connect 19 0 69 0;
#X connect 20 0 24 0;
#X connect 21 0 70 0;
#X connect 22 0 40 1;
#X connect 23 0 41 1;
#X connect 24 0 25 0;
#X connect 25 0 42 1;
#X connect 26 0 43 1;
#X connect 27 0 66 1;
#X connect 28 0 66 1;
#X connect 29 0 66 0;
#X connect 30 0 35 0;
#X connect 31 0 30 0;
#X connect 32 0 71 0;
#X connect 33 0 72 0;
#X connect 34 0 73 0;
#X connect 35 0 44 1;
#X connect 36 0 45 1;
#X connect 37 0 46 1;
#X connect 38 0 47 1;
#X connect 39 0 29 0;
#X connect 40 0 51 0;
#X connect 41 0 52 0;
#X connect 42 0 53 0;
#X connect 43 0 55 0;
#X connect 44 0 60 0;
#X connect 45 0 61 0;
#X connect 46 0 62 0;
#X connect 47 0 64 0;
#X connect 48 0 56 0;
#X connect 49 0 56 0;
#X connect 50 0 56 0;
#X connect 51 0 49 0;
#X connect 52 0 48 0;
#X connect 53 0 50 0;
#X connect 54 0 56 0;
#X connect 55 0 54 0;
#X connect 55 0 230 0;
#X connect 56 0 166 0;
#X connect 57 0 65 0;
#X connect 58 0 65 0;
#X connect 59 0 65 0;
#X connect 60 0 58 0;
#X connect 61 0 57 0;
#X connect 62 0 59 0;
#X connect 63 0 65 0;
#X connect 64 0 63 0;
#X connect 65 0 170 0;
#X connect 66 0 31 0;
#X connect 66 1 32 0;
#X connect 66 2 33 0;
#X connect 66 3 34 0;
#X connect 67 0 18 0;
#X connect 67 1 19 0;
#X connect 67 2 20 0;
#X connect 67 3 21 0;
#X connect 67 4 200 0;
#X connect 67 5 201 0;
#X connect 67 6 202 0;
#X connect 67 7 203 0;
#X connect 68 0 22 0;
#X connect 69 0 23 0;
#X connect 70 0 26 0;
#X connect 71 0 36 0;
#X connect 72 0 37 0;
#X connect 73 0 38 0;
#X connect 74 0 75 0;
#X connect 74 0 75 1;
#X connect 76 0 75 1;
#X connect 76 0 75 0;
#X connect 77 0 153 0;
#X connect 77 0 192 0;
#X connect 78 0 193 0;
#X connect 78 0 231 0;
#X connect 79 0 105 1;
#X connect 80 0 105 1;
#X connect 81 0 105 0;
#X connect 82 0 87 0;
#X connect 83 0 82 0;
#X connect 84 0 106 0;
#X connect 85 0 107 0;
#X connect 86 0 108 0;
#X connect 87 0 92 1;
#X connect 88 0 93 1;
#X connect 89 0 94 1;
#X connect 90 0 95 1;
#X connect 91 0 81 0;
#X connect 92 0 99 0;
#X connect 93 0 100 0;
#X connect 94 0 101 0;
#X connect 95 0 103 0;
#X connect 96 0 104 0;
#X connect 97 0 104 0;
#X connect 98 0 104 0;
#X connect 99 0 97 0;
#X connect 100 0 96 0;
#X connect 101 0 98 0;
#X connect 102 0 104 0;
#X connect 103 0 102 0;
#X connect 104 0 172 0;
#X connect 105 0 83 0;
#X connect 105 1 84 0;
#X connect 105 2 85 0;
#X connect 105 3 86 0;
#X connect 106 0 88 0;
#X connect 107 0 89 0;
#X connect 108 0 90 0;
#X connect 109 0 75 0;
#X connect 109 0 75 1;
#X connect 110 0 194 0;
#X connect 111 0 137 1;
#X connect 112 0 137 1;
#X connect 113 0 137 0;
#X connect 114 0 119 0;
#X connect 115 0 114 0;
#X connect 116 0 138 0;
#X connect 117 0 139 0;
#X connect 118 0 140 0;
#X connect 119 0 124 1;
#X connect 120 0 125 1;
#X connect 121 0 126 1;
#X connect 122 0 127 1;
#X connect 123 0 113 0;
#X connect 124 0 131 0;
#X connect 125 0 132 0;
#X connect 126 0 133 0;
#X connect 127 0 135 0;
#X connect 128 0 136 0;
#X connect 129 0 136 0;
#X connect 130 0 136 0;
#X connect 131 0 129 0;
#X connect 132 0 128 0;
#X connect 133 0 130 0;
#X connect 134 0 136 0;
#X connect 135 0 134 0;
#X connect 136 0 183 0;
#X connect 137 0 115 0;
#X connect 137 1 116 0;
#X connect 137 2 117 0;
#X connect 137 3 118 0;
#X connect 138 0 120 0;
#X connect 139 0 121 0;
#X connect 140 0 122 0;
#X connect 141 0 75 0;
#X connect 141 0 75 1;
#X connect 142 0 195 0;
#X connect 143 0 10 0;
#X connect 144 0 224 0;
#X connect 144 0 224 1;
#X connect 145 0 144 1;
#X connect 146 0 144 2;
#X connect 147 0 144 3;
#X connect 148 0 144 3;
#X connect 149 0 266 0;
#X connect 150 0 144 1;
#X connect 150 0 264 0;
#X connect 153 0 150 0;
#X connect 154 0 155 0;
#X connect 155 0 156 0;
#X connect 156 0 44 0;
#X connect 156 1 45 0;
#X connect 156 2 46 0;
#X connect 156 3 47 0;
#X connect 157 0 158 0;
#X connect 158 0 190 0;
#X connect 159 0 216 0;
#X connect 160 0 161 0;
#X connect 161 0 191 0;
#X connect 162 0 4 0;
#X connect 162 0 0 0;
#X connect 162 0 164 0;
#X connect 164 0 163 0;
#X connect 165 0 6 0;
#X connect 165 0 27 0;
#X connect 165 0 79 0;
#X connect 165 0 111 0;
#X connect 166 0 74 0;
#X connect 167 0 166 1;
#X connect 168 0 170 1;
#X connect 169 0 187 0;
#X connect 170 0 76 0;
#X connect 171 0 169 0;
#X connect 172 0 109 0;
#X connect 173 0 172 1;
#X connect 174 0 188 0;
#X connect 175 0 174 0;
#X connect 176 0 186 0;
#X connect 177 0 176 0;
#X connect 178 0 196 0;
#X connect 179 0 197 0;
#X connect 180 0 198 0;
#X connect 182 0 199 0;
#X connect 183 0 141 0;
#X connect 184 0 183 1;
#X connect 185 0 181 0;
#X connect 186 0 178 0;
#X connect 187 0 179 0;
#X connect 188 0 180 0;
#X connect 189 0 182 0;
#X connect 190 0 92 0;
#X connect 190 1 93 0;
#X connect 190 2 94 0;
#X connect 190 3 95 0;
#X connect 191 0 124 0;
#X connect 191 1 125 0;
#X connect 191 2 126 0;
#X connect 191 3 127 0;
#X connect 192 0 217 0;
#X connect 193 0 154 0;
#X connect 194 0 157 0;
#X connect 195 0 160 0;
#X connect 196 0 218 0;
#X connect 196 0 219 0;
#X connect 197 0 220 0;
#X connect 198 0 221 0;
#X connect 199 0 222 0;
#X connect 200 0 213 0;
#X connect 201 0 214 0;
#X connect 202 0 206 0;
#X connect 203 0 215 0;
#X connect 204 0 209 1;
#X connect 205 0 210 1;
#X connect 206 0 207 0;
#X connect 207 0 211 1;
#X connect 208 0 212 1;
#X connect 209 0 51 0;
#X connect 210 0 52 0;
#X connect 211 0 53 0;
#X connect 212 0 55 0;
#X connect 213 0 204 0;
#X connect 214 0 205 0;
#X connect 215 0 208 0;
#X connect 216 0 40 0;
#X connect 216 0 152 0;
#X connect 216 1 41 0;
#X connect 216 2 42 0;
#X connect 216 3 43 0;
#X connect 216 4 209 0;
#X connect 216 5 210 0;
#X connect 216 6 211 0;
#X connect 216 7 212 0;
#X connect 217 0 159 0;
#X connect 219 0 167 0;
#X connect 220 0 168 0;
#X connect 221 0 173 0;
#X connect 222 0 184 0;
#X connect 223 0 112 0;
#X connect 223 0 80 0;
#X connect 223 0 28 0;
#X connect 223 0 7 0;
#X connect 225 0 233 1;
#X connect 226 0 225 1;
#X connect 227 0 225 2;
#X connect 228 0 225 3;
#X connect 229 0 225 3;
#X connect 230 0 232 0;
#X connect 231 0 225 1;
#X connect 232 0 225 0;
#X connect 234 0 235 0;
#X connect 235 0 236 0;
#X connect 235 1 237 0;
#X connect 235 2 238 0;
#X connect 235 3 239 0;
#X connect 235 4 240 0;
#X connect 235 5 241 0;
#X connect 235 6 242 0;
#X connect 235 7 243 0;
#X connect 236 0 40 1;
#X connect 236 0 256 1;
#X connect 237 0 41 1;
#X connect 237 0 257 1;
#X connect 238 0 42 1;
#X connect 238 0 258 1;
#X connect 239 0 43 1;
#X connect 239 0 259 1;
#X connect 240 0 209 1;
#X connect 240 0 260 1;
#X connect 241 0 211 1;
#X connect 241 0 262 1;
#X connect 242 0 210 1;
#X connect 242 0 261 1;
#X connect 243 0 212 1;
#X connect 243 0 263 1;
#X connect 245 0 235 0;
#X connect 246 0 235 0;
#X connect 248 0 235 0;
#X connect 250 0 235 0;
#X connect 252 0 235 0;
#X connect 253 0 235 0;
#X connect 254 0 256 0;
#X connect 254 1 257 0;
#X connect 254 2 258 0;
#X connect 254 3 260 0;
#X connect 254 4 261 0;
#X connect 254 5 259 0;
#X connect 254 6 262 0;
#X connect 254 7 263 0;
#X connect 256 0 149 0;
#X connect 257 0 149 0;
#X connect 258 0 149 0;
#X connect 259 0 149 0;
#X connect 260 0 149 0;
#X connect 261 0 149 0;
#X connect 262 0 149 0;
#X connect 263 0 149 0;
#X connect 264 0 144 2;
#X connect 265 0 235 0;
#X connect 266 0 144 0;
#X connect 267 0 254 0;
