#N canvas 616 25 824 628 12;
#X msg 10 46 connect 127.0.0.1 3000;
#X obj 179 272 udpsend;
#X obj 179 231 packOSC;
#X obj 179 131 tgl 15 0 empty empty empty 17 7 0 10 #fcfcfc #000000
#000000 0 1;
#X text 5 26 Once Processing is running click on this message.;
#X obj 179 109 loadbang;
#X obj 384 174 list length;
#X floatatom 384 198 5 0 0 0 - - - 0;
#X obj 307 114 s MarkovMatrix;
#X obj 260 125 bng 15 250 50 0 empty empty empty 17 7 0 10 #fcfcfc
#000000 #000000;
#X obj 434 104 print;
#X obj 384 14 udpreceive 57120;
#X msg 179 207 /new_clock 1;
#X obj 293 253 packOSC;
#X msg 293 229 /new_clock2 1;
#X obj 384 38 unpackOSC /probability;
#X obj 384 65 routeOSC /probability;
#X obj 562 35 unpackOSC /probability2;
#X obj 562 62 routeOSC /probability2;
#X obj 573 119 t f;
#X floatatom 573 143 5 0 0 0 - - - 0;
#X obj 495 117 t f;
#X floatatom 495 141 5 0 0 0 - - - 0;
#X obj 179 155 metro 300;
#X obj 286 145 tgl 15 0 empty empty empty 17 7 0 10 #fcfcfc #000000
#000000 0 1;
#X obj 286 169 metro 600;
#X obj 177 400 tgl 15 0 empty empty empty 17 7 0 10 #fcfcfc #000000
#000000 0 1;
#X obj 177 444 bng 15 250 50 0 empty empty empty 17 7 0 10 #fcfcfc
#000000 #000000;
#X obj 177 420 metro 200;
#X obj 177 464 f;
#X obj 223 465 + 1;
#X obj 228 488 % 3;
#X obj 177 538 bng 15 250 50 0 empty empty empty 17 7 0 10 #fcfcfc
#000000 #000000;
#X obj 177 514 moses 1;
#X floatatom 177 490 5 0 0 0 - - - 0;
#X obj 63 615 udpsend;
#X obj 63 498 packOSC;
#X msg 63 474 /new_clock 1;
#X obj 178 588 packOSC;
#X msg 178 564 /new_clock2 1;
#X obj 473 327 osc~;
#X obj 473 268 route 0 1;
#X msg 474 293 100;
#X msg 507 293 200;
#X obj 473 351 *~ 0.1;
#X obj 473 375 dac~;
#X obj 652 242 osc~;
#X obj 652 266 *~ 0.1;
#X obj 652 290 dac~;
#X msg 653 208 500;
#X msg 686 208 600;
#X obj 652 183 route 2 3 4 5 6 7;
#X msg 720 209 800;
#X msg 796 209 1100;
#X msg 831 209 1200;
#X msg 755 209 400;
#X connect 0 0 35 0;
#X connect 2 0 1 0;
#X connect 3 0 23 0;
#X connect 5 0 3 0;
#X connect 6 0 7 0;
#X connect 9 0 12 0;
#X connect 11 0 15 0;
#X connect 11 0 17 0;
#X connect 12 0 2 0;
#X connect 13 0 1 0;
#X connect 14 0 13 0;
#X connect 15 0 16 0;
#X connect 16 0 6 0;
#X connect 16 0 8 0;
#X connect 16 0 10 0;
#X connect 16 0 21 0;
#X connect 17 0 18 0;
#X connect 18 0 10 0;
#X connect 18 0 19 0;
#X connect 19 0 20 0;
#X connect 20 0 51 0;
#X connect 21 0 22 0;
#X connect 22 0 41 0;
#X connect 23 0 12 0;
#X connect 24 0 25 0;
#X connect 25 0 14 0;
#X connect 26 0 28 0;
#X connect 27 0 29 0;
#X connect 27 0 37 0;
#X connect 28 0 27 0;
#X connect 29 0 30 0;
#X connect 29 0 34 0;
#X connect 30 0 31 0;
#X connect 31 0 29 1;
#X connect 32 0 39 0;
#X connect 33 0 32 0;
#X connect 34 0 33 0;
#X connect 36 0 35 0;
#X connect 37 0 36 0;
#X connect 38 0 35 0;
#X connect 39 0 38 0;
#X connect 40 0 44 0;
#X connect 41 0 42 0;
#X connect 41 1 43 0;
#X connect 42 0 40 0;
#X connect 43 0 40 0;
#X connect 44 0 45 0;
#X connect 44 0 45 1;
#X connect 46 0 47 0;
#X connect 47 0 48 0;
#X connect 47 0 48 1;
#X connect 49 0 46 0;
#X connect 50 0 46 0;
#X connect 51 0 49 0;
#X connect 51 1 50 0;
#X connect 51 2 52 0;
#X connect 51 3 55 0;
#X connect 51 4 53 0;
#X connect 51 5 54 0;
#X connect 52 0 46 0;
#X connect 53 0 46 0;
#X connect 54 0 46 0;
#X connect 55 0 46 0;
