#N canvas -8 25 1440 776 12;
#X msg 10 46 connect 127.0.0.1 3000;
#X text 5 26 Once Processing is running click on this message.;
#X obj 75 477 udpsend;
#X obj 89 440 packOSC;
#X obj 989 15 tgl 20 0 empty empty ON/OFF 17 7 0 10 #fcfcfc #000000
#000000 0 1;
#X floatatom 1072 57 5 0 0 0 - - - 0;
#X obj 991 117 bng 15 250 50 0 empty empty empty 17 7 0 10 #fcfcfc
#000000 #000000;
#X obj 1089 83 s dur;
#X obj 937 77 s tog;
#X obj 341 229 r dur;
#X obj 1071 8 loadbang;
#X text 76 103 OSC MESSAGES;
#X text 824 16 GLOBAL METRO;
#X obj 991 150 s beat;
#X obj 991 77 metro 4000;
#X text 333 367 Rhythms;
#X obj 200 228 r jump;
#X msg 1074 31 500;
#X obj 482 415 rh_pattern, f 26;
#X msg 240 284 1;
#X obj 241 350 f;
#X floatatom 240 311 5 0 0 0 - - - 0;
#X msg 204 310 0;
#X obj 72 306 metro;
#X obj 72 330 t b b;
#X obj 105 364 spigot;
#X obj 481 328 tgl 15 0 empty empty empty 17 7 0 10 #fcfcfc #000000
#000000 0 1;
#X floatatom 569 371 5 0 0 0 - - - 0;
#X floatatom 616 374 5 0 0 0 - - - 0;
#X obj 125 392 bng 15 250 50 0 empty empty empty 17 7 0 10 #fcfcfc
#000000 #000000;
#X obj 648 446 s jump;
#X obj 617 451 bng 15 250 50 0 empty empty empty 17 7 0 10 #fcfcfc
#000000 #000000;
#X obj 119 240 r pulse;
#X obj 1072 110 / 4;
#X obj 1086 141 s pulse;
#X obj 269 376 tgl 15 0 empty empty empty 17 7 0 10 #fcfcfc #000000
#000000 0 1;
#X obj 69 267 tgl 20 0 empty empty ON/OFF 17 7 0 10 #fcfcfc #000000
#000000 0 1;
#X obj 71 225 r tog;
#X obj 843 416 rh_pattern, f 26;
#X floatatom 935 371 5 0 0 0 - - - 0;
#X floatatom 977 375 5 0 0 0 - - - 0;
#X obj 1009 447 s jump;
#X obj 978 452 bng 15 250 50 0 empty empty empty 17 7 0 10 #fcfcfc
#000000 #000000;
#X obj 1204 416 rh_pattern, f 26;
#X floatatom 1291 372 5 0 0 0 - - - 0;
#X floatatom 1338 375 5 0 0 0 - - - 0;
#X obj 1370 447 s jump;
#X obj 1339 452 bng 15 250 50 0 empty empty empty 17 7 0 10 #fcfcfc
#000000 #000000;
#X msg 1302 338 1 0 1 0 1 0 1 1 0 0 1 0 0 0 1;
#X obj 1229 136 f;
#X obj 1262 136 + 1;
#X obj 1229 160 % 2;
#X obj 1228 191 sel 0 1;
#X obj 467 624 rh_pattern, f 26;
#X floatatom 554 580 5 0 0 0 - - - 0;
#X floatatom 601 583 5 0 0 0 - - - 0;
#X msg 565 546 1 0 0 0 0 0 0 0 1 0 0 0 0 0 0 0;
#X obj 633 655 s jump;
#X obj 602 660 bng 15 250 50 0 empty empty empty 17 7 0 10 #fcfcfc
#000000 #000000;
#X obj 828 625 rh_pattern, f 26;
#X obj 827 579 tgl 15 0 empty empty empty 17 7 0 10 #fcfcfc #000000
#000000 0 1;
#X floatatom 915 581 5 0 0 0 - - - 0;
#X obj 854 579 r boid1;
#X floatatom 962 584 5 0 0 0 - - - 0;
#X obj 994 656 s jump;
#X obj 963 661 bng 15 250 50 0 empty empty empty 17 7 0 10 #fcfcfc
#000000 #000000;
#X floatatom 513 649 5 0 0 0 - - - 0;
#X obj 1189 625 rh_pattern, f 26;
#X obj 1188 579 tgl 15 0 empty empty empty 17 7 0 10 #fcfcfc #000000
#000000 0 1;
#X floatatom 1276 581 5 0 0 0 - - - 0;
#X obj 1215 579 r boid1;
#X floatatom 1323 584 5 0 0 0 - - - 0;
#X obj 1355 656 s jump;
#X obj 1324 661 bng 15 250 50 0 empty empty empty 17 7 0 10 #fcfcfc
#000000 #000000;
#X floatatom 878 651 5 0 0 0 - - - 0;
#X msg 926 547 1 0 1 0 0 0 1 0 1 0 0 1 0 0 0 0;
#X msg 1287 547 1 0 1 0 1 0 1 1 0 0 1 0 0 0 1;
#X floatatom 1247 649 5 0 0 0 - - - 0;
#X obj 1209 255 kick;
#X obj 1251 254 snare;
#X obj 1212 300 dac~;
#X floatatom 1301 208 5 0 0 0 - - - 0;
#X obj 1198 68 spigot;
#X obj 1268 19 tgl 20 0 empty empty ON/OFF 17 7 0 10 #fcfcfc #000000
#000000 0 1;
#X obj 481 469 dac~;
#X floatatom 530 390 5 0 0 0 - - - 0;
#X obj 745 741 dac~;
#X obj 1202 482 dac~;
#X obj 1202 458 sample;
#X obj 465 666 sample;
#X obj 826 667 sample;
#X obj 1187 667 sample;
#X obj 377 56 Processing2Pure, f 40;
#X text 456 27 change the port;
#X msg 377 28 port 57120;
#X obj 136 310 bng 15 250 50 0 empty empty empty 17 7 0 10 #fcfcfc
#000000 #000000;
#X msg 89 416 /new_clock0 1;
#X obj 516 196 r plAbs1;
#X msg 661 340 1 1 1 0 0 0 0 0 1 0 0 0 0 0 0 0;
#X msg 941 338 1 0 1 0 1 0 1 0 1 0 0 1 0 0 0 0;
#X obj 841 458 sample;
#X obj 481 445 sample;
#X msg 516 297 1;
#X obj 516 220 % 4;
#X obj 516 244 + 1;
#X msg 533 323 2;
#X msg 551 296 3;
#X msg 575 324 4, f 2;
#X floatatom 464 269 5 0 0 0 - - - 0;
#X obj 756 168 r plAbs1;
#X msg 756 269 1;
#X obj 756 240 sel 1 2 3 4;
#X obj 756 192 % 4;
#X obj 756 216 + 1;
#X msg 773 295 2;
#X msg 791 268 3;
#X msg 815 296 4, f 2;
#X floatatom 704 241 5 0 0 0 - - - 0;
#X floatatom 462 200 5 0 0 0 - - - 0;
#X obj 516 268 sel 1 2 3 4 5 6 7;
#X connect 0 0 2 0;
#X connect 3 0 2 0;
#X connect 4 0 8 0;
#X connect 4 0 14 0;
#X connect 5 0 14 1;
#X connect 5 0 7 0;
#X connect 5 0 33 0;
#X connect 6 0 13 0;
#X connect 6 0 82 0;
#X connect 10 0 17 0;
#X connect 14 0 6 0;
#X connect 16 0 19 0;
#X connect 17 0 5 0;
#X connect 18 0 101 0;
#X connect 18 1 30 0;
#X connect 18 1 31 0;
#X connect 19 0 21 0;
#X connect 20 0 22 0;
#X connect 20 0 25 1;
#X connect 20 0 35 0;
#X connect 21 0 20 1;
#X connect 22 0 21 0;
#X connect 23 0 24 0;
#X connect 24 0 25 0;
#X connect 24 1 20 0;
#X connect 25 0 96 0;
#X connect 25 0 29 0;
#X connect 26 0 18 0;
#X connect 26 0 38 0;
#X connect 26 0 43 0;
#X connect 26 0 53 0;
#X connect 27 0 18 2;
#X connect 28 0 18 3;
#X connect 32 0 23 1;
#X connect 33 0 34 0;
#X connect 36 0 23 0;
#X connect 36 0 96 0;
#X connect 37 0 36 0;
#X connect 38 0 100 0;
#X connect 38 1 41 0;
#X connect 38 1 42 0;
#X connect 39 0 38 2;
#X connect 40 0 38 3;
#X connect 43 0 88 0;
#X connect 43 1 46 0;
#X connect 43 1 47 0;
#X connect 44 0 43 2;
#X connect 45 0 43 3;
#X connect 48 0 43 4;
#X connect 49 0 50 0;
#X connect 49 0 51 0;
#X connect 50 0 49 1;
#X connect 51 0 52 0;
#X connect 52 0 78 0;
#X connect 52 1 79 0;
#X connect 53 0 89 0;
#X connect 53 1 57 0;
#X connect 53 1 58 0;
#X connect 54 0 53 2;
#X connect 55 0 53 3;
#X connect 56 0 53 4;
#X connect 59 0 90 0;
#X connect 59 1 64 0;
#X connect 59 1 65 0;
#X connect 60 0 59 0;
#X connect 61 0 59 2;
#X connect 62 0 59 1;
#X connect 63 0 59 3;
#X connect 67 0 91 0;
#X connect 67 1 72 0;
#X connect 67 1 73 0;
#X connect 68 0 67 0;
#X connect 69 0 67 2;
#X connect 70 0 67 1;
#X connect 71 0 67 3;
#X connect 75 0 59 4;
#X connect 76 0 67 4;
#X connect 78 0 80 0;
#X connect 78 0 80 1;
#X connect 79 0 80 1;
#X connect 79 0 80 0;
#X connect 81 0 78 1;
#X connect 81 0 79 1;
#X connect 82 0 49 0;
#X connect 83 0 82 1;
#X connect 88 0 87 0;
#X connect 89 0 86 0;
#X connect 90 0 86 1;
#X connect 90 0 86 0;
#X connect 91 0 86 1;
#X connect 94 0 92 0;
#X connect 95 0 20 0;
#X connect 96 0 3 0;
#X connect 97 0 103 0;
#X connect 98 0 18 4;
#X connect 99 0 38 4;
#X connect 100 0 86 0;
#X connect 100 0 86 1;
#X connect 101 0 84 0;
#X connect 101 0 84 1;
#X connect 102 0 18 1;
#X connect 103 0 104 0;
#X connect 104 0 108 0;
#X connect 104 0 119 0;
#X connect 105 0 38 1;
#X connect 106 0 43 1;
#X connect 107 0 53 1;
#X connect 109 0 112 0;
#X connect 111 0 110 0;
#X connect 111 1 114 0;
#X connect 111 2 115 0;
#X connect 111 3 116 0;
#X connect 112 0 113 0;
#X connect 113 0 111 0;
#X connect 113 0 117 0;
#X connect 118 0 103 0;
#X connect 119 0 102 0;
#X connect 119 1 105 0;
#X connect 119 2 106 0;
#X connect 119 3 107 0;
