#N canvas 0 25 1440 776 12;
#X msg 251 41 connect 127.0.0.1 3000;
#X text 247 20 Once Processing is running click on this message.;
#X obj 1566 600 t f;
#X floatatom 1568 631 5 0 0 0 - - - 0;
#X floatatom 1457 641 5 0 0 0 - - - 0;
#X obj 1431 739 osc~;
#X obj 1431 763 *~ 0.1;
#X obj 1429 808 dac~;
#X obj 1615 741 osc~;
#X obj 1615 765 *~ 0.1;
#X msg 1616 707 500;
#X msg 1649 707 600;
#X msg 1683 708 800;
#X msg 1759 708 1100;
#X msg 1794 708 1200;
#X msg 1718 708 400;
#X floatatom 1399 670 5 0 0 0 - - - 0;
#X floatatom 1378 748 5 0 0 0 - - - 0;
#X obj 1438 707 *;
#X obj 1436 613 t b f;
#X obj 1456 669 % 7;
#X obj 1568 662 % 7;
#X floatatom 1470 699 5 0 0 0 - - - 0;
#X floatatom 1571 733 5 0 0 0 - - - 0;
#X obj 1615 682 route 0 1 2 3 4 5;
#X obj 1436 571 r boid1;
#X obj 1568 567 r boid2;
#X obj 103 29 tgl 30 0 empty empty ON/OFF 35 7 0 10 #e3c6ff #c6feff
#9c00ff 0 1;
#X floatatom 1487 740 5 0 0 0 - - - 0;
#X floatatom 183 67 5 0 0 0 - - - 0;
#X obj 103 113 bng 15 250 50 0 empty empty empty 17 7 0 10 #fcfcfc
#000000 #000000;
#X obj 183 91 s dur;
#X obj 60 91 s tog;
#X obj 183 25 loadbang;
#X obj 1614 802 dac~;
#X floatatom 1681 751 5 0 0 0 - - - 0;
#X text 805 657 POLYPHONY;
#X text 15 31 GLOBAL METRO;
#X obj 806 724 random 25;
#X obj 806 747 + 48;
#X obj 806 792 mtof;
#X obj 806 815 osc~;
#X obj 806 842 *~;
#X obj 806 869 dac~;
#N canvas 0 25 1440 776 quant 0;
#X text 325 200 if present \, it goes out the first outlets if not
\, second outlet;
#X floatatom 279 200 5 0 0 0 - - - 0;
#X msg 135 240 0;
#X floatatom 99 313 5 0 0 0 - - - 0;
#X obj 142 172 % 12;
#X floatatom 94 134 5 0 0 0 - - - 0;
#X obj 140 198 select 0 2 4 7 9;
#X obj 285 250 select 0 2 4 7 9;
#X msg 284 285 -1;
#X obj 281 226 - 1;
#X obj 97 278 +;
#X msg 367 290 1;
#X obj 101 83 inlet;
#X obj 111 366 outlet;
#X connect 1 0 9 0;
#X connect 2 0 10 1;
#X connect 3 0 13 0;
#X connect 4 0 6 0;
#X connect 5 0 4 0;
#X connect 5 0 10 0;
#X connect 6 0 2 0;
#X connect 6 1 2 0;
#X connect 6 2 2 0;
#X connect 6 3 2 0;
#X connect 6 4 2 0;
#X connect 6 5 1 0;
#X connect 7 0 8 0;
#X connect 7 1 8 0;
#X connect 7 2 8 0;
#X connect 7 3 8 0;
#X connect 7 4 8 0;
#X connect 7 5 11 0;
#X connect 8 0 10 1;
#X connect 9 0 7 0;
#X connect 10 0 3 0;
#X connect 11 0 10 1;
#X connect 12 0 5 0;
#X restore 806 770 pd quant;
#X obj 1059 723 random 25;
#X obj 1059 802 mtof;
#X obj 1059 825 osc~;
#X obj 1059 852 *~;
#X obj 1060 877 dac~;
#N canvas -204 68 1920 976 quant 0;
#X text 325 200 if present \, it goes out the first outlets if not
\, second outlet;
#X floatatom 279 200 5 0 0 0 - - - 0;
#X msg 135 240 0;
#X floatatom 99 313 5 0 0 0 - - - 0;
#X obj 142 172 % 12;
#X floatatom 94 134 5 0 0 0 - - - 0;
#X obj 140 198 select 0 2 4 7 9;
#X obj 285 250 select 0 2 4 7 9;
#X msg 284 285 -1;
#X obj 281 226 - 1;
#X obj 97 278 +;
#X msg 367 290 1;
#X obj 101 83 inlet;
#X obj 111 366 outlet;
#X connect 1 0 9 0;
#X connect 2 0 10 1;
#X connect 3 0 13 0;
#X connect 4 0 6 0;
#X connect 5 0 4 0;
#X connect 5 0 10 0;
#X connect 6 0 2 0;
#X connect 6 1 2 0;
#X connect 6 2 2 0;
#X connect 6 3 2 0;
#X connect 6 4 2 0;
#X connect 6 5 1 0;
#X connect 7 0 8 0;
#X connect 7 1 8 0;
#X connect 7 2 8 0;
#X connect 7 3 8 0;
#X connect 7 4 8 0;
#X connect 7 5 11 0;
#X connect 8 0 10 1;
#X connect 9 0 7 0;
#X connect 10 0 3 0;
#X connect 11 0 10 1;
#X connect 12 0 5 0;
#X restore 1059 766 pd quant;
#X obj 806 683 r boid1;
#X obj 1059 683 r boid2;
#X obj 806 706 bng 15 250 50 0 empty empty empty 17 7 0 10 #fcfcfc
#000000 #000000;
#X obj 1059 705 bng 15 250 50 0 empty empty empty 17 7 0 10 #fcfcfc
#000000 #000000;
#X obj 1059 744 + 60;
#X obj 103 131 s beat;
#X obj 103 91 metro 2000;
#X msg 183 46 2000;
#X obj 135 685 osc~ 200;
#X obj 145 748 *~;
#X obj 197 717 vline~;
#X obj 139 789 dac~;
#X msg 219 665 1 5 \, 0 100 5;
#X obj 422 747 *~;
#X obj 474 716 vline~;
#X obj 416 788 dac~;
#X msg 496 664 1 5 \, 0 100 5;
#X obj 412 684 osc~ 500;
#X obj 205 605 r boid1;
#X obj 477 613 r boid2;
#X obj 201 633 bng 15 250 50 0 empty empty empty 17 7 0 10 #fcfcfc
#000000 #000000;
#X obj 476 637 bng 15 250 50 0 empty empty empty 17 7 0 10 #fcfcfc
#000000 #000000;
#X text 151 553 POLYRHYTHMS;
#X obj 856 845 line~;
#X obj 859 802 hsl 128 15 0 1 0 0 empty empty empty -2 -8 0 10 #fcfcfc
#000000 #000000 0 1;
#X obj 856 822 pack f 50;
#X obj 1099 839 line~;
#X obj 1102 796 hsl 128 15 0 1 0 0 empty empty empty -2 -8 0 10 #fcfcfc
#000000 #000000 0 1;
#X obj 1099 816 pack f 50;
#X obj 493 94 Processing2Pure;
#X obj 527 145 s cluster1;
#X obj 493 119 s boid1;
#X obj 561 170 s boid2;
#X obj 595 195 s cluster2;
#X text 572 65 change the port;
#X msg 493 66 port 57120;
#X obj 251 66 clock2Processing, f 33;
#X connect 0 0 87 0;
#X connect 2 0 3 0;
#X connect 3 0 21 0;
#X connect 4 0 20 0;
#X connect 5 0 6 0;
#X connect 6 0 7 0;
#X connect 6 0 7 1;
#X connect 8 0 9 0;
#X connect 9 0 34 0;
#X connect 9 0 34 1;
#X connect 10 0 8 0;
#X connect 11 0 8 0;
#X connect 12 0 8 0;
#X connect 13 0 8 0;
#X connect 14 0 8 0;
#X connect 15 0 8 0;
#X connect 16 0 18 0;
#X connect 18 0 5 0;
#X connect 18 0 17 0;
#X connect 19 0 18 0;
#X connect 19 1 4 0;
#X connect 20 0 18 1;
#X connect 20 0 22 0;
#X connect 21 0 23 0;
#X connect 21 0 24 0;
#X connect 24 0 10 0;
#X connect 24 1 11 0;
#X connect 24 2 12 0;
#X connect 24 3 15 0;
#X connect 24 4 13 0;
#X connect 24 4 12 0;
#X connect 24 5 14 0;
#X connect 25 0 19 0;
#X connect 26 0 2 0;
#X connect 27 0 32 0;
#X connect 27 0 57 0;
#X connect 28 0 6 1;
#X connect 29 0 31 0;
#X connect 29 0 57 1;
#X connect 30 0 56 0;
#X connect 33 0 58 0;
#X connect 35 0 9 1;
#X connect 38 0 39 0;
#X connect 39 0 44 0;
#X connect 40 0 41 0;
#X connect 41 0 42 0;
#X connect 42 0 43 0;
#X connect 42 0 43 1;
#X connect 44 0 40 0;
#X connect 45 0 55 0;
#X connect 46 0 47 0;
#X connect 47 0 48 0;
#X connect 48 0 49 0;
#X connect 48 0 49 1;
#X connect 50 0 46 0;
#X connect 51 0 53 0;
#X connect 52 0 54 0;
#X connect 53 0 38 0;
#X connect 54 0 45 0;
#X connect 55 0 50 0;
#X connect 57 0 30 0;
#X connect 58 0 29 0;
#X connect 59 0 60 0;
#X connect 60 0 62 0;
#X connect 60 0 62 1;
#X connect 61 0 60 1;
#X connect 63 0 61 0;
#X connect 64 0 66 0;
#X connect 64 0 66 1;
#X connect 65 0 64 1;
#X connect 67 0 65 0;
#X connect 68 0 64 0;
#X connect 69 0 71 0;
#X connect 70 0 72 0;
#X connect 71 0 63 0;
#X connect 72 0 67 0;
#X connect 74 0 42 1;
#X connect 75 0 76 0;
#X connect 76 0 74 0;
#X connect 77 0 48 1;
#X connect 78 0 79 0;
#X connect 79 0 77 0;
#X connect 80 0 82 0;
#X connect 80 1 81 0;
#X connect 80 2 83 0;
#X connect 80 3 84 0;
#X connect 86 0 80 0;
