#N canvas -109 137 1920 976 12;
#X obj 531 429 udpsend;
#X obj 271 301 packOSC;
#X obj 431 302 packOSC;
#X obj 357 127 expr $f2 / $f1;
#X floatatom 357 74 5 0 0 0 - - - 0;
#X floatatom 357 150 5 0 0 0 - - - 0;
#X obj 271 253 bng 15 250 50 0 \$0-clock1 empty empty 17 7 0 10 #fcfcfc
#000000 #000000;
#X obj 516 125 expr $f2 / $f1;
#X floatatom 515 73 5 0 0 0 - - - 0;
#X floatatom 516 147 5 0 0 0 - - - 0;
#X obj 431 256 bng 15 250 50 0 \$0-clock2 empty empty 17 7 0 10 #fcfcfc
#000000 #000000;
#X text 72 -39 OSC MESSAGES;
#X obj 338 178 f;
#X obj 338 -27 r beat;
#X obj 497 180 f;
#X obj 271 227 metro 2000;
#X obj 431 229 metro 2000;
#X obj 102 296 inlet;
#X obj 107 136 bng 15 250 50 0 empty \$0-clock1 empty 17 7 0 10 #fcfcfc
#000000 #000000;
#X obj 174 136 bng 15 250 50 0 empty \$0-clock2 empty 17 7 0 10 #fcfcfc
#000000 #000000;
#X text 122 134 clock1;
#X text 189 134 clock2;
#X floatatom 451 72 5 0 0 0 - - - 0;
#X floatatom 338 203 5 0 0 0 - - - 0;
#X floatatom 610 73 5 0 0 0 - - - 0;
#X floatatom 497 205 5 0 0 0 - - - 0;
#X obj 581 303 packOSC;
#X obj 742 304 packOSC;
#X obj 667 129 expr $f2 / $f1;
#X floatatom 667 76 5 0 0 0 - - - 0;
#X floatatom 667 152 5 0 0 0 - - - 0;
#X obj 581 255 bng 15 250 50 0 \$0-clock1 empty empty 17 7 0 10 #fcfcfc
#000000 #000000;
#X obj 920 -29 r dur;
#X obj 826 127 expr $f2 / $f1;
#X floatatom 825 75 5 0 0 0 - - - 0;
#X floatatom 826 149 5 0 0 0 - - - 0;
#X obj 741 258 bng 15 250 50 0 \$0-clock2 empty empty 17 7 0 10 #fcfcfc
#000000 #000000;
#X obj 648 180 f;
#X obj 807 182 f;
#X obj 581 229 metro 2000;
#X obj 741 231 metro 2000;
#X floatatom 761 74 5 0 0 0 - - - 0;
#X floatatom 648 205 5 0 0 0 - - - 0;
#X floatatom 920 75 5 0 0 0 - - - 0;
#X floatatom 807 207 5 0 0 0 - - - 0;
#X obj 357 46 r length0;
#X obj 515 44 r length1;
#X obj 667 48 r length2;
#X obj 825 46 r length3;
#X msg 271 277 /new_clock0 1;
#X msg 431 278 /new_clock1 1;
#X msg 581 279 /new_clock2 1;
#X msg 742 280 /new_clock3 1;
#X obj 526 -21 loadbang;
#X msg 526 3 1;
#X obj 271 41 r GlobalTog;
#X obj 357 97 min 10;
#X obj 515 96 min 10;
#X obj 667 99 min 10;
#X obj 825 98 min 10;
#X connect 1 0 0 0;
#X connect 2 0 0 0;
#X connect 3 0 5 0;
#X connect 4 0 56 0;
#X connect 5 0 12 1;
#X connect 6 0 49 0;
#X connect 7 0 9 0;
#X connect 8 0 57 0;
#X connect 9 0 14 1;
#X connect 10 0 50 0;
#X connect 12 0 23 0;
#X connect 13 0 12 0;
#X connect 13 0 14 0;
#X connect 13 0 37 0;
#X connect 13 0 38 0;
#X connect 14 0 25 0;
#X connect 15 0 6 0;
#X connect 16 0 10 0;
#X connect 17 0 0 0;
#X connect 22 0 3 1;
#X connect 23 0 15 1;
#X connect 24 0 7 1;
#X connect 25 0 16 1;
#X connect 26 0 0 0;
#X connect 27 0 0 0;
#X connect 28 0 30 0;
#X connect 29 0 58 0;
#X connect 30 0 37 1;
#X connect 31 0 51 0;
#X connect 32 0 43 0;
#X connect 32 0 41 0;
#X connect 32 0 24 0;
#X connect 32 0 22 0;
#X connect 33 0 35 0;
#X connect 34 0 59 0;
#X connect 35 0 38 1;
#X connect 36 0 52 0;
#X connect 37 0 42 0;
#X connect 38 0 44 0;
#X connect 39 0 31 0;
#X connect 40 0 36 0;
#X connect 41 0 28 1;
#X connect 42 0 39 1;
#X connect 43 0 33 1;
#X connect 44 0 40 1;
#X connect 45 0 4 0;
#X connect 46 0 8 0;
#X connect 47 0 29 0;
#X connect 48 0 34 0;
#X connect 49 0 1 0;
#X connect 50 0 2 0;
#X connect 51 0 26 0;
#X connect 52 0 27 0;
#X connect 53 0 54 0;
#X connect 54 0 4 0;
#X connect 54 0 8 0;
#X connect 54 0 29 0;
#X connect 54 0 34 0;
#X connect 55 0 15 0;
#X connect 55 0 16 0;
#X connect 55 0 39 0;
#X connect 55 0 40 0;
#X connect 56 0 3 0;
#X connect 57 0 7 0;
#X connect 58 0 28 0;
#X connect 59 0 33 0;
#X coords 0 -1 1 1 180 60 1 100 100;
