#N canvas 39 178 740 300 12;
#X obj 24 24 udpreceive 57120;
#X obj 25 2 inlet;
#X obj 24 78 unpackOSC /probability0;
#X obj 24 105 routeOSC /probability0;
#X obj 196 79 unpackOSC /probability1;
#X obj 196 106 routeOSC /probability1;
#X obj 366 79 unpackOSC /probability2;
#X obj 366 106 routeOSC /probability2;
#X obj 538 80 unpackOSC /probability3;
#X obj 538 107 routeOSC /probability3;
#X obj 24 132 unpack f f f;
#X obj 196 131 unpack f f f;
#X obj 366 129 unpack f f f;
#X obj 538 130 unpack f f f;
#X obj 103 160 s length0;
#X obj 62 185 s plRel0;
#X obj 22 206 s plAbs0;
#X obj 277 156 s length1;
#X obj 236 177 s plRel1;
#X obj 190 199 s plAbs1;
#X obj 447 154 s length2;
#X obj 406 175 s plRel2;
#X obj 366 197 s plAbs2;
#X obj 619 155 s length3;
#X obj 578 176 s plRel3;
#X obj 538 198 s plAbs3;
#X connect 0 0 2 0;
#X connect 0 0 4 0;
#X connect 0 0 6 0;
#X connect 0 0 8 0;
#X connect 1 0 0 0;
#X connect 2 0 3 0;
#X connect 3 0 10 0;
#X connect 4 0 5 0;
#X connect 5 0 11 0;
#X connect 6 0 7 0;
#X connect 7 0 12 0;
#X connect 8 0 9 0;
#X connect 9 0 13 0;
#X connect 10 0 16 0;
#X connect 10 1 15 0;
#X connect 10 2 14 0;
#X connect 11 0 19 0;
#X connect 11 1 18 0;
#X connect 11 2 17 0;
#X connect 12 0 22 0;
#X connect 12 1 21 0;
#X connect 12 2 20 0;
#X connect 13 0 25 0;
#X connect 13 1 24 0;
#X connect 13 2 23 0;
