#N canvas 61 0 1920 976 12;
#X obj 198 312 hradio 15 1 0 16 empty empty empty 0 -8 0 10 #fcfcfc
#000000 #000000 0;
#X obj 193 373 trigger f f;
#X obj 194 418 spigot;
#X obj 248 399 > 0;
#N canvas -23 75 1920 976 counter 0;
#X obj 93 153 f;
#X obj 159 160 + 1;
#X msg 109 124 0;
#X text 147 122 Resetter to index 0;
#X obj 111 64 sel 0;
#X obj 82 21 inlet toggle;
#X obj 225 26 inlet speed;
#X obj 92 231 outlet cnt;
#X obj 93 91 metro 144;
#X obj 95 190 % 16;
#X connect 0 0 1 0;
#X connect 0 0 9 0;
#X connect 1 0 0 1;
#X connect 2 0 0 1;
#X connect 4 0 2 0;
#X connect 5 0 4 0;
#X connect 5 0 8 0;
#X connect 6 0 8 1;
#X connect 8 0 0 0;
#X connect 9 0 7 0;
#X restore 197 279 pd counter;
#X obj 195 244 tgl 15 0 empty empty empty 17 7 0 10 #fcfcfc #000000
#000000 0 1;
#X obj 118 89 inlet;
#X obj 118 120 tgl 15 0 empty empty empty 17 7 0 10 #fcfcfc #000000
#000000 0 1;
#X obj 193 167 spigot;
#X obj 378 129 sel 1;
#X obj 401 209 bng 15 250 50 0 empty empty empty 17 7 0 10 #fcfcfc
#000000 #000000;
#X obj 379 96 == 16;
#X obj 377 63 + 1;
#X obj 420 234 outlet;
#N canvas 0 50 450 250 (subpatch) 0;
#X array \$0-perc 16 float 3;
#A 0 1 0 0 0 0 0 0 0 1 0 0 0 0 0 0 0;
#X coords 0 1 16 0 200 50 1 0 0;
#X restore 470 363 graph;
#X obj 471 147 inlet;
#X obj 191 117 inlet;
#X obj 194 344 array get \$0-perc;
#X obj 471 319 array set \$0-perc;
#X obj 194 456 outlet;
#X obj 432 38 inlet;
#X obj 244 69 inlet;
#X obj 194 200 select 0;
#X obj 380 167 tgl 15 0 empty empty empty 17 7 0 10 #fcfcfc #000000
#000000 0 1;
#X obj 285 253 r pulse;
#X connect 0 0 17 0;
#X connect 1 0 2 0;
#X connect 1 1 3 0;
#X connect 2 0 19 0;
#X connect 3 0 2 1;
#X connect 4 0 0 0;
#X connect 4 0 12 0;
#X connect 5 0 4 0;
#X connect 6 0 7 0;
#X connect 7 0 8 1;
#X connect 8 0 22 0;
#X connect 9 0 23 0;
#X connect 10 0 13 0;
#X connect 10 0 5 0;
#X connect 11 0 9 0;
#X connect 12 0 11 0;
#X connect 15 0 18 0;
#X connect 16 0 8 0;
#X connect 17 0 1 0;
#X connect 20 0 11 1;
#X connect 21 0 22 1;
#X connect 22 0 5 0;
#X connect 23 0 10 0;
#X connect 24 0 4 1;
