#N canvas 45 171 1073 600 12;
#X obj 568 282 soundfiler;
#X obj 556 17 loadbang;
#X msg 599 224 set read -resize \$1 \$2-buffer;
#X obj 780 160 bng 15 250 50 0 empty empty empty 17 7 0 10 #fcfcfc
#000000 #000000;
#X obj 600 202 pack s f;
#X obj 556 39 bng 15 250 50 0 empty empty empty 17 7 0 10 #fcfcfc #000000
#000000;
#X msg 568 259 read -resize ./samples/gamelan/0.wav 1007-buffer;
#X msg 600 163 ./samples/gamelan/\$1.wav;
#X obj 290 198 tabplay~ \$0-buffer;
#X obj 290 54 bng 15 250 50 0 empty empty empty 17 7 0 10 #fcfcfc #000000
#000000;
#X obj 320 73 + 1;
#X obj 290 98 % 2;
#X obj 290 160 sel 0 1;
#X floatatom 290 122 5 0 0 0 - - - 0;
#X obj 290 222 *~ 0.5;
#X obj 426 222 *~ 0.5;
#X obj 290 30 inlet;
#X obj 287 283 outlet~;
#X obj 321 97 sel 1;
#X msg 364 97 0;
#X obj 290 74 f;
#X obj 426 198 tabplay~ \$0-buffer;
#X floatatom 569 99 5 0 10 0 - \$0-samplenumber - 0;
#X obj 568 122 t b f;
#X obj 556 63 t b b, f 6;
#X floatatom 110 125 3 0 10 0 - - \$0-samplenumber 0;
#X text 137 125 sample;
#N canvas 0 25 1440 776 (subpatch) 0;
#X array \$0-buffer 170775 float 2;
#X coords 0 1 170775 -1 200 140 1 0 0;
#X restore 856 47 graph;
#X obj 780 183 f \$0;
#X obj 623 87 t b b;
#X msg 623 111 0;
#X connect 1 0 5 0;
#X connect 2 0 6 0;
#X connect 3 0 28 0;
#X connect 4 0 2 0;
#X connect 5 0 24 0;
#X connect 6 0 0 0;
#X connect 7 0 4 0;
#X connect 8 0 14 0;
#X connect 9 0 20 0;
#X connect 10 0 20 1;
#X connect 11 0 13 0;
#X connect 11 0 18 0;
#X connect 12 0 8 0;
#X connect 12 1 21 0;
#X connect 13 0 12 0;
#X connect 14 0 17 0;
#X connect 15 0 17 0;
#X connect 16 0 9 0;
#X connect 18 0 19 0;
#X connect 19 0 20 1;
#X connect 20 0 10 0;
#X connect 20 0 11 0;
#X connect 21 0 15 0;
#X connect 22 0 23 0;
#X connect 23 0 6 0;
#X connect 23 1 7 0;
#X connect 24 0 6 0;
#X connect 24 1 29 0;
#X connect 28 0 4 1;
#X connect 29 0 30 0;
#X connect 29 1 3 0;
#X connect 30 0 23 0;
#X coords 0 -1 1 1 85 60 1 100 100;
