#N canvas 155 85 1073 600 12;
#X obj 361 298 soundfiler;
#X obj 379 92 loadbang;
#X msg 378 240 set read -resize \$1 \$2-buffer;
#X obj 559 176 bng 15 250 50 0 empty empty empty 17 7 0 10 #fcfcfc
#000000 #000000;
#X obj 559 199 f \$0;
#X obj 379 218 pack s f;
#X obj 379 114 bng 15 250 50 0 empty empty empty 17 7 0 10 #fcfcfc
#000000 #000000;
#X obj 388 156 random 7;
#X msg 361 275 read -resize ./samples/gamelan/6.wav 1215-buffer;
#X msg 379 179 ./samples/gamelan/\$1.wav;
#N canvas 9 29 1440 776 (subpatch) 0;
#X array \$0-buffer 339968 float 2;
#X coords 0 1 339968 -1 200 140 1 0 0;
#X restore 762 151 graph;
#X obj 75 274 tabplay~ \$0-buffer;
#X obj 75 130 bng 15 250 50 0 empty empty empty 17 7 0 10 #fcfcfc #000000
#000000;
#X obj 379 132 t b b b;
#X obj 105 149 + 1;
#X obj 75 174 % 2;
#X obj 75 236 sel 0 1;
#X floatatom 75 198 5 0 0 0 - - - 0;
#X obj 75 298 *~ 0.5;
#X obj 211 298 *~ 0.5;
#X obj 76 106 inlet;
#X obj 72 359 outlet~;
#X obj 106 173 sel 1;
#X floatatom 29 182 5 0 0 0 - - - 0;
#X msg 149 173 0;
#X obj 75 150 f;
#X obj 328 303 bng 15 250 50 0 empty empty empty 17 7 0 10 #fcfcfc
#000000 #000000;
#X obj 211 274 tabplay~ \$0-buffer;
#X obj 93 393 env~;
#X floatatom 93 417 5 0 0 0 - - - 0;
#X obj 207 375 env~;
#X floatatom 207 399 5 0 0 0 - - - 0;
#X connect 1 0 6 0;
#X connect 2 0 8 0;
#X connect 3 0 4 0;
#X connect 4 0 5 1;
#X connect 5 0 2 0;
#X connect 6 0 13 0;
#X connect 7 0 9 0;
#X connect 8 0 0 0;
#X connect 9 0 5 0;
#X connect 11 0 18 0;
#X connect 12 0 25 0;
#X connect 13 0 8 0;
#X connect 13 1 7 0;
#X connect 13 2 3 0;
#X connect 14 0 25 1;
#X connect 15 0 17 0;
#X connect 15 0 22 0;
#X connect 16 0 11 0;
#X connect 16 1 27 0;
#X connect 17 0 16 0;
#X connect 18 0 21 0;
#X connect 18 0 28 0;
#X connect 19 0 21 0;
#X connect 19 0 30 0;
#X connect 20 0 12 0;
#X connect 22 0 24 0;
#X connect 24 0 25 1;
#X connect 25 0 14 0;
#X connect 25 0 15 0;
#X connect 25 0 23 0;
#X connect 27 0 19 0;
#X connect 27 1 26 0;
#X connect 28 0 29 0;
#X connect 30 0 31 0;
