#N canvas 654 80 553 496 10;
#N canvas 450 25 990 724 gestione 1;
#N canvas 0 0 450 300 (subpatch) 0;
#X array table21 1.00957e+07 float 0;
#X coords 0 1.02 1.00957e+07 -1.02 200 130 1;
#X restore 125 212 graph;
#X obj 713 594 loadbang;
#X obj 412 878 hip~ 5;
#X floatatom 125 166 0 0 0 0 - - - 0;
#X obj 380 690 +~ 1;
#X obj 717 490 adc~ 1;
#X obj 717 515 hip~ 5;
#X obj 414 771 *~;
#X obj 476 693 line~;
#X floatatom 197 123 0 0 0 0 - - - 0;
#X obj 476 668 pack 0 100;
#X obj 414 722 +~;
#X obj 476 718 samphold~;
#X obj 380 618 samphold~;
#X obj 380 593 sig~;
#X obj 380 665 *~;
#X obj 494 774 r~ phase;
#X obj 380 493 s~ phase;
#X obj 438 593 r~ phase;
#X obj 396 640 r~ phase;
#X obj 534 694 r~ phase;
#X obj 521 588 s chunk-size;
#X floatatom 125 123 0 0 0 0 - - - 0;
#X obj 391 394 r chunk-size;
#X obj 391 419 t b f;
#X obj 380 443 /;
#X obj 713 648 soundfiler;
#X obj 380 316 loadbang;
#X obj 494 798 -~ 0.5;
#X obj 494 822 *~ 0.5;
#X obj 494 845 cos~;
#X obj 414 747 tabread4~ table21;
#X text 286 190 <-- record;
#X obj 380 364 expr pow(2 \, $f1/120);
#X obj 380 467 phasor~;
#X obj 717 564 tabwrite~ table21;
#X obj 521 563 * 0.1;
#X obj 453 275 metro 100;
#X obj 264 124 tgl 15 0 empty empty empty 17 7 0 10 #fcfcfc #000000
#000000 0 1;
#X floatatom 263 152 5 0 0 0 - - - 0;
#X obj 496 445 random 20;
#X obj 495 471 + 60;
#X floatatom 536 410 5 0 0 0 - - - 0;
#X obj 586 237 metro 100;
#X obj 200 157 tgl 15 0 empty empty empty 17 7 0 10 #fcfcfc #000000
#000000 0 1;
#X floatatom 195 180 5 0 0 0 - - - 0;
#X obj 585 271 random 90;
#X obj 380 568 * 4410;
#X obj 475 643 * 4410;
#X text 190 106 inizio;
#X text 259 108 random;
#X text 260 139 tempo random;
#X text 112 108 nota;
#X text 114 151 lunghezza;
#X obj 264 188 bng 15 250 50 0 empty empty empty 17 7 0 10 #fcfcfc
#000000 #000000;
#X text 195 196 inizio rnd;
#X obj 60 41 inlet;
#X obj 198 53 inlet;
#X msg 138 412 0.5;
#X msg 346 34 75;
#X msg 713 621 read -resize ./samples/viafratelli2.wav table21;
#X obj 416 931 *~ 0.1;
#X obj 415 953 outlet~;
#X connect 1 0 60 0;
#X connect 2 0 61 0;
#X connect 3 0 36 0;
#X connect 3 0 47 0;
#X connect 4 0 11 0;
#X connect 5 0 6 0;
#X connect 6 0 35 0;
#X connect 7 0 2 0;
#X connect 8 0 12 0;
#X connect 9 0 48 0;
#X connect 10 0 8 0;
#X connect 11 0 31 0;
#X connect 12 0 11 1;
#X connect 13 0 15 0;
#X connect 14 0 13 0;
#X connect 15 0 4 0;
#X connect 16 0 28 0;
#X connect 18 0 13 1;
#X connect 19 0 15 1;
#X connect 20 0 12 1;
#X connect 22 0 33 0;
#X connect 23 0 24 0;
#X connect 24 0 25 0;
#X connect 24 1 25 1;
#X connect 25 0 34 0;
#X connect 27 0 22 0;
#X connect 27 0 58 0;
#X connect 27 0 59 0;
#X connect 28 0 29 0;
#X connect 29 0 30 0;
#X connect 30 0 7 1;
#X connect 31 0 7 0;
#X connect 33 0 25 0;
#X connect 34 0 17 0;
#X connect 36 0 21 0;
#X connect 37 0 40 0;
#X connect 38 0 37 0;
#X connect 39 0 37 1;
#X connect 40 0 41 0;
#X connect 41 0 9 0;
#X connect 42 0 41 1;
#X connect 43 0 46 0;
#X connect 44 0 43 0;
#X connect 45 0 43 1;
#X connect 46 0 42 0;
#X connect 47 0 14 0;
#X connect 48 0 10 0;
#X connect 54 0 35 0;
#X connect 56 0 3 0;
#X connect 57 0 9 0;
#X connect 58 0 3 0;
#X connect 59 0 9 0;
#X connect 60 0 26 0;
#X connect 61 0 62 0;
#X coords 0 -1 1 1 250 250 2 100 100;
#X restore 40 69 pd gestione;
#N canvas 451 25 953 724 gestione 0;
#N canvas 0 23 450 300 (subpatch) 0;
#X array table22 1.00957e+07 float 0;
#X coords 0 1.02 1.00957e+07 -1.02 200 130 1 0 0;
#X restore 125 212 graph;
#X obj 713 594 loadbang;
#X obj 412 878 hip~ 5;
#X floatatom 125 166 0 0 0 0 - - - 0;
#X obj 380 690 +~ 1;
#X obj 717 515 hip~ 5;
#X obj 414 771 *~;
#X obj 476 693 line~;
#X floatatom 197 123 0 0 0 0 - - - 0;
#X obj 476 668 pack 0 100;
#X obj 414 722 +~;
#X obj 476 718 samphold~;
#X obj 380 618 samphold~;
#X obj 380 593 sig~;
#X obj 380 665 *~;
#X floatatom 125 123 0 0 0 0 - - - 0;
#X obj 391 419 t b f;
#X obj 380 443 /;
#X obj 713 648 soundfiler;
#X obj 380 316 loadbang;
#X obj 494 798 -~ 0.5;
#X obj 494 822 *~ 0.5;
#X obj 494 845 cos~;
#X text 286 190 <-- record;
#X obj 380 364 expr pow(2 \, $f1/120);
#X obj 380 467 phasor~;
#X obj 521 563 * 0.1;
#X obj 453 275 metro 100;
#X obj 264 124 tgl 15 0 empty empty empty 17 7 0 10 #fcfcfc #000000
#000000 0 1;
#X floatatom 263 152 5 0 0 0 - - - 0;
#X obj 476 485 random 20;
#X obj 475 511 + 60;
#X floatatom 536 410 5 0 0 0 - - - 0;
#X obj 586 237 metro 100;
#X obj 203 162 tgl 15 0 empty empty empty 17 7 0 10 #fcfcfc #000000
#000000 0 1;
#X floatatom 204 183 5 0 0 0 - - - 0;
#X obj 585 271 random 90;
#X obj 380 568 * 4410;
#X obj 475 643 * 4410;
#X obj 416 931 *~ 0.9;
#X text 190 106 inizio;
#X text 259 108 random;
#X text 260 139 tempo random;
#X text 112 108 nota;
#X text 114 151 lunghezza;
#X obj 264 188 bng 15 250 50 0 empty empty empty 17 7 0 10 #fcfcfc
#000000 #000000;
#X obj 240 854 outlet~;
#X obj 717 564 tabwrite~ table22;
#X obj 414 747 tabread4~ table22;
#X obj 717 489 adc~ 2;
#X obj 380 493 s~ phase2;
#X obj 391 394 r chunk-size2;
#X obj 521 588 s chunk-size2;
#X obj 534 694 r~ phase2;
#X obj 438 593 r~ phase2;
#X obj 396 641 r~ phase2;
#X obj 494 774 r~ phase2;
#X text 195 197 inizio rnd;
#X obj 139 60 inlet;
#X msg 138 412 0.5;
#X msg 183 410 75;
#X msg 713 621 read -resize ./samples/viafratelli2.wav table22;
#X obj 261 56 inlet;
#X connect 1 0 61 0;
#X connect 2 0 39 0;
#X connect 3 0 26 0;
#X connect 3 0 37 0;
#X connect 4 0 10 0;
#X connect 5 0 47 0;
#X connect 6 0 2 0;
#X connect 7 0 11 0;
#X connect 8 0 38 0;
#X connect 9 0 7 0;
#X connect 10 0 48 0;
#X connect 11 0 10 1;
#X connect 12 0 14 0;
#X connect 13 0 12 0;
#X connect 14 0 4 0;
#X connect 15 0 24 0;
#X connect 16 0 17 0;
#X connect 16 1 17 1;
#X connect 17 0 25 0;
#X connect 19 0 15 0;
#X connect 19 0 59 0;
#X connect 19 0 60 0;
#X connect 20 0 21 0;
#X connect 21 0 22 0;
#X connect 22 0 6 1;
#X connect 24 0 17 0;
#X connect 25 0 50 0;
#X connect 26 0 52 0;
#X connect 27 0 30 0;
#X connect 28 0 27 0;
#X connect 29 0 27 1;
#X connect 30 0 31 0;
#X connect 31 0 8 0;
#X connect 32 0 31 1;
#X connect 33 0 36 0;
#X connect 34 0 33 0;
#X connect 35 0 33 1;
#X connect 36 0 32 0;
#X connect 37 0 13 0;
#X connect 38 0 9 0;
#X connect 39 0 46 0;
#X connect 45 0 47 0;
#X connect 48 0 6 0;
#X connect 49 0 5 0;
#X connect 51 0 16 0;
#X connect 53 0 11 1;
#X connect 54 0 12 1;
#X connect 55 0 14 1;
#X connect 56 0 20 0;
#X connect 58 0 3 0;
#X connect 59 0 3 0;
#X connect 60 0 35 0;
#X connect 61 0 18 0;
#X connect 62 0 8 0;
#X coords 0 -1 1 1 250 250 2 100 100;
#X restore 341 73 pd gestione;
#X obj 31 444 *~;
#X obj 50 424 line~;
#X obj 50 401 pack f 10;
#X floatatom 48 356 5 0 0 0 - - - 0;
#X obj 298 441 *~;
#X obj 313 419 line~;
#X obj 313 397 pack f 10;
#X floatatom 313 355 5 0 0 0 - - - 0;
#X obj 50 336 ctlin 51;
#X obj 313 334 ctlin 55;
#X obj 57 -10 ctlin 31;
#X obj 57 11 / 30;
#X obj 50 377 / 127;
#X obj 313 375 / 127;
#X obj 170 506 dac~ 1 2;
#X obj 31 466 s~ uno;
#X obj 298 462 s~ due;
#X floatatom 280 36 5 0 0 0 - - - 0;
#X floatatom 488 26 5 0 0 0 - - - 0;
#X connect 1 0 6 0;
#X connect 2 0 17 0;
#X connect 3 0 2 1;
#X connect 4 0 3 0;
#X connect 5 0 14 0;
#X connect 6 0 18 0;
#X connect 6 0 16 1;
#X connect 7 0 6 1;
#X connect 8 0 7 0;
#X connect 9 0 15 0;
#X connect 10 0 5 0;
#X connect 11 0 9 0;
#X connect 12 0 13 0;
#X connect 13 0 0 0;
#X connect 14 0 4 0;
#X connect 15 0 8 0;
#X connect 19 0 0 1;
#X connect 20 0 1 1;
