#N canvas 96 392 1920 976 12;
#X msg 79 108 1;
#X obj 45 163 f;
#X floatatom 66 137 5 0 0 0 - - - 0;
#X msg 78 163 0;
#X obj 79 38 inlet;
#X text 124 40 prepare;
#X obj 389 84 inlet;
#X obj 439 84 r pulse;
#X obj 389 108 * 0;
#X obj 256 133 del;
#X obj 45 216 outlet;
#X text 387 62 num of pulses to delay;
#X obj 45 187 sel 1;
#X obj 254 7 r beat;
#X obj 254 31 f;
#X obj 284 30 + 1;
#X obj 256 109 bng 15 250 50 0 empty empty empty 17 7 0 10 #fcfcfc
#000000 #000000;
#X obj 256 82 sel 0;
#X msg 311 103 0;
#X obj 254 55 % 4;
#X obj 311 79 sel 3;
#X connect 0 0 2 0;
#X connect 1 0 3 0;
#X connect 1 0 12 0;
#X connect 2 0 1 1;
#X connect 3 0 2 0;
#X connect 4 0 0 0;
#X connect 6 0 8 0;
#X connect 7 0 8 1;
#X connect 8 0 9 1;
#X connect 9 0 1 0;
#X connect 12 0 10 0;
#X connect 13 0 14 0;
#X connect 14 0 15 0;
#X connect 14 0 19 0;
#X connect 15 0 14 1;
#X connect 16 0 9 0;
#X connect 17 0 16 0;
#X connect 18 0 14 1;
#X connect 19 0 17 0;
#X connect 19 0 20 0;
#X connect 20 0 18 0;
