#N canvas 0 23 1440 807 12;
#X obj 100 62 oscparse;
#X obj 100 86 route /markov;
#X obj 100 110 print;
#X msg 100 13 listen 3000;
#X obj 100 38 netreceive 3000;
#X obj 70 380 bng 15 250 50 0 empty empty empty 20 8 0 8 -262144 -1
-1;
#X obj 70 291 bng 20 250 50 0 empty empty empty 20 8 0 8 -262144 -1
-1;
#X obj 113 183 r state;
#X obj 242 382 bng 15 250 50 0 empty empty empty 20 8 0 8 -262144 -1
-1;
#X obj 406 383 bng 15 250 50 0 empty empty empty 20 8 0 8 -262144 -1
-1;
#X msg 281 292 \; state 1;
#X obj 70 408 random 100;
#X obj 242 409 random 100;
#X obj 406 410 random 100;
#X obj 480 439 moses 80;
#X floatatom 108 328 3 0 0 0 - - -;
#X text 235 299 reset;
#X text 33 292 STEP;
#X obj 70 354 select 1 2 3, f 37;
#X floatatom 148 261 5 0 0 0 - - -;
#X floatatom 210 259 5 0 0 0 - - -;
#X floatatom 295 259 5 0 0 0 - - -;
#X floatatom 372 259 5 0 0 0 - - -;
#X floatatom 531 255 5 0 0 0 - - -;
#X floatatom 460 257 5 0 0 0 - - -;
#X obj 72 640 bng 15 250 50 0 empty empty empty 20 8 0 8 -262144 -1
-1;
#X obj 104 640 bng 15 250 50 0 empty empty empty 20 8 0 8 -262144 -1
-1;
#X obj 137 640 bng 15 250 50 0 empty empty empty 20 8 0 8 -262144 -1
-1;
#X obj 104 698 s state;
#X obj 71 592 bng 15 250 50 0 empty empty empty 20 8 0 8 -262144 -1
-1;
#X obj 103 592 bng 15 250 50 0 empty empty empty 20 8 0 8 -262144 -1
-1;
#X obj 136 592 bng 15 250 50 0 empty empty empty 20 8 0 8 -262144 -1
-1;
#X obj 71 547 bng 15 250 50 0 empty empty empty 20 8 0 8 -262144 -1
-1;
#X obj 103 547 bng 15 250 50 0 empty empty empty 20 8 0 8 -262144 -1
-1;
#X obj 136 547 bng 15 250 50 0 empty empty empty 20 8 0 8 -262144 -1
-1;
#X obj 70 328 f 1;
#X obj 70 436 moses 30;
#X obj 149 438 moses 60;
#X obj 242 439 moses 10;
#X obj 312 441 moses 60;
#X obj 406 439 moses 70;
#X obj 799 23 r state;
#X obj 799 514 select 1 2 3;
#X msg 71 569 1 1;
#X msg 103 569 2 1;
#X msg 136 568 3 1;
#X msg 72 614 1 2;
#X msg 103 613 2 2;
#X msg 136 613 3 2;
#X msg 72 662 1 3;
#X msg 105 662 2 3;
#X msg 138 661 3 3;
#X obj 113 207 unpack f f;
#X obj 799 47 unpack f f;
#X obj 779 348 paf~;
#X obj 779 326 phasor~;
#X floatatom 779 303 5 0 0 0 - - -;
#X obj 780 699 dac~;
#X floatatom 862 282 5 0 0 0 - - -;
#X obj 780 667 *~;
#X obj 798 645 line~;
#X obj 857 598 del 100;
#X msg 856 620 0 100;
#X obj 934 349 paf~;
#X obj 934 327 phasor~;
#X floatatom 934 304 5 0 0 0 - - -;
#X obj 935 700 dac~;
#X floatatom 1017 283 5 0 0 0 - - -;
#X obj 935 668 *~;
#X obj 953 646 line~;
#X obj 1012 599 del 100;
#X msg 1011 621 0 100;
#X obj 866 134 select 1 2 3;
#X obj 70 243 tgl 15 0 empty empty empty 17 7 0 10 -262144 -1 -1 1
1;
#X msg 800 620 0.5 10;
#X msg 954 621 0.5 10;
#X obj 1089 349 paf~;
#X obj 1089 327 phasor~;
#X floatatom 1089 304 5 0 0 0 - - -;
#X obj 1090 700 dac~;
#X floatatom 1172 283 5 0 0 0 - - -;
#X obj 1090 668 *~;
#X obj 1108 646 line~;
#X obj 1167 599 del 100;
#X msg 1166 621 0 100;
#X msg 1109 621 0.5 10;
#X obj 71 154 loadbang;
#X obj 661 192 loadbang;
#X msg 661 248 100;
#X msg 695 249 200;
#X msg 728 249 350;
#X obj 70 264 metro 150;
#X msg 202 195 \; pd dsp 1 \;;
#X obj 961 67 select 1 2 3;
#X obj 960 98 random 50;
#X obj 865 166 random;
#X obj 890 196 random;
#X obj 957 218 random;
#X obj 661 216 bng 15 250 50 0 empty empty empty 17 7 0 10 -262144
-1 -1;
#X msg 694 297 350;
#X msg 727 297 500;
#X msg 694 274 800;
#X obj 761 276 bng 15 250 50 0 empty empty empty 17 7 0 10 -262144
-1 -1;
#X msg 727 274 700;
#X obj 629 296 bng 15 250 50 0 empty empty empty 17 7 0 10 -262144
-1 -1;
#X msg 660 296 1000;
#X msg 660 273 950;
#X obj 984 128 random 250;
#X obj 1051 156 random 500;
#X obj 212 139 unpack f f f f f f f f f;
#X obj 211 165 +;
#X obj 309 178 +;
#X obj 425 181 +;
#X msg 212 116 30 30 40 10 50 40 70 10 20;
#X msg 212 93 10 60 30 90 5 5 25 25 50;
#X text 392 66 esempi di messaggi che dovrebbero arrivare da processing
;
#X text 37 482 matrice di markov;
#X text 55 75 osc;
#X text 882 20 sintesi;
#X msg 213 71 70 10 20 25 25 50 80 10 10;
#X msg 213 45 33 33 33 33 33 33 33 33 33;
#X connect 0 0 1 0;
#X connect 1 0 2 0;
#X connect 1 0 109 0;
#X connect 3 0 4 0;
#X connect 4 0 0 0;
#X connect 5 0 11 0;
#X connect 6 0 35 0;
#X connect 7 0 52 0;
#X connect 8 0 12 0;
#X connect 9 0 13 0;
#X connect 11 0 36 0;
#X connect 12 0 38 0;
#X connect 13 0 40 0;
#X connect 14 0 26 0;
#X connect 14 1 27 0;
#X connect 18 0 5 0;
#X connect 18 1 8 0;
#X connect 18 2 9 0;
#X connect 19 0 36 1;
#X connect 20 0 37 1;
#X connect 21 0 38 1;
#X connect 22 0 39 1;
#X connect 23 0 14 1;
#X connect 24 0 40 1;
#X connect 25 0 49 0;
#X connect 26 0 50 0;
#X connect 27 0 51 0;
#X connect 29 0 46 0;
#X connect 30 0 47 0;
#X connect 31 0 48 0;
#X connect 32 0 43 0;
#X connect 33 0 44 0;
#X connect 34 0 45 0;
#X connect 35 0 18 0;
#X connect 36 0 32 0;
#X connect 36 1 37 0;
#X connect 37 0 33 0;
#X connect 37 1 34 0;
#X connect 38 0 29 0;
#X connect 38 1 39 0;
#X connect 39 0 30 0;
#X connect 39 1 31 0;
#X connect 40 0 25 0;
#X connect 40 1 14 0;
#X connect 41 0 53 0;
#X connect 42 0 74 0;
#X connect 42 0 61 0;
#X connect 42 1 75 0;
#X connect 42 1 70 0;
#X connect 42 2 85 0;
#X connect 42 2 83 0;
#X connect 43 0 28 0;
#X connect 44 0 28 0;
#X connect 45 0 28 0;
#X connect 46 0 28 0;
#X connect 47 0 28 0;
#X connect 48 0 28 0;
#X connect 49 0 28 0;
#X connect 50 0 28 0;
#X connect 51 0 28 0;
#X connect 52 0 35 1;
#X connect 52 0 15 0;
#X connect 53 0 42 0;
#X connect 53 0 72 0;
#X connect 53 1 93 0;
#X connect 54 0 59 0;
#X connect 55 0 54 0;
#X connect 56 0 55 0;
#X connect 58 0 54 1;
#X connect 58 0 54 2;
#X connect 58 0 63 3;
#X connect 58 0 54 3;
#X connect 59 0 57 0;
#X connect 60 0 59 1;
#X connect 61 0 62 0;
#X connect 62 0 60 0;
#X connect 63 0 68 0;
#X connect 64 0 63 0;
#X connect 65 0 64 0;
#X connect 67 0 63 1;
#X connect 67 0 63 2;
#X connect 68 0 66 0;
#X connect 69 0 68 1;
#X connect 70 0 71 0;
#X connect 71 0 69 0;
#X connect 72 0 95 0;
#X connect 72 1 96 0;
#X connect 72 2 97 0;
#X connect 73 0 91 0;
#X connect 74 0 60 0;
#X connect 75 0 69 0;
#X connect 76 0 81 0;
#X connect 77 0 76 0;
#X connect 78 0 77 0;
#X connect 80 0 76 1;
#X connect 80 0 76 2;
#X connect 80 0 76 3;
#X connect 81 0 79 0;
#X connect 82 0 81 1;
#X connect 83 0 84 0;
#X connect 84 0 82 0;
#X connect 85 0 82 0;
#X connect 86 0 73 0;
#X connect 86 0 92 0;
#X connect 87 0 98 0;
#X connect 88 0 56 0;
#X connect 89 0 65 0;
#X connect 90 0 78 0;
#X connect 91 0 6 0;
#X connect 93 0 94 0;
#X connect 93 0 98 0;
#X connect 93 1 102 0;
#X connect 93 1 107 0;
#X connect 93 2 104 0;
#X connect 93 2 108 0;
#X connect 94 0 95 1;
#X connect 95 0 58 0;
#X connect 96 0 67 0;
#X connect 97 0 80 0;
#X connect 98 0 88 0;
#X connect 98 0 89 0;
#X connect 98 0 90 0;
#X connect 99 0 65 0;
#X connect 100 0 78 0;
#X connect 101 0 65 0;
#X connect 102 0 103 0;
#X connect 102 0 101 0;
#X connect 102 0 106 0;
#X connect 103 0 78 0;
#X connect 104 0 105 0;
#X connect 104 0 99 0;
#X connect 104 0 100 0;
#X connect 105 0 56 0;
#X connect 106 0 56 0;
#X connect 107 0 96 1;
#X connect 107 0 97 1;
#X connect 108 0 97 1;
#X connect 109 0 19 0;
#X connect 109 0 110 0;
#X connect 109 1 110 1;
#X connect 109 3 21 0;
#X connect 109 3 111 0;
#X connect 109 4 111 1;
#X connect 109 6 24 0;
#X connect 109 6 112 0;
#X connect 109 7 112 1;
#X connect 110 0 20 0;
#X connect 111 0 22 0;
#X connect 112 0 23 0;
#X connect 113 0 109 0;
#X connect 114 0 109 0;
#X connect 119 0 109 0;
#X connect 120 0 109 0;
